<svg width="84" height="84" viewBox="0 0 84 84" fill="none" xmlns="http://www.w3.org/2000/svg">
<rect width="84" height="84" fill="#EFF6FB"/>
<path d="M35.8492 34.63C34.2592 44.39 25.8492 51.14 17.1292 49.72C14.973 49.3738 12.9223 48.5467 11.1292 47.3C9.36863 47.3303 7.63532 46.8623 6.12923 45.95C0.79923 42.68 -0.180776 34.38 3.52922 26.62C3.90889 25.812 4.33631 25.0272 4.80922 24.27C7.80922 19.39 12.0892 16.05 16.2992 14.82L16.5392 14.76C18.5855 14.1873 20.7321 14.0679 22.8292 14.41C26.2741 14.9878 29.4065 16.7575 31.6792 19.41L32.0592 19.87C33.6945 21.9247 34.8774 24.3017 35.5305 26.8452C36.1837 29.3888 36.2923 32.0416 35.8492 34.63Z" fill="#A08D82"/>
<path d="M48.5198 34.63C50.1098 44.38 58.5198 51.13 67.2398 49.71C69.3946 49.3645 71.4448 48.541 73.2398 47.3C75.0002 47.3281 76.7329 46.8603 78.2398 45.95C83.5698 42.67 84.5598 34.38 80.8398 26.62C80.4602 25.8087 80.0328 25.0206 79.5598 24.26C76.5598 19.39 72.2898 16.05 68.0798 14.82L67.8398 14.75C65.7909 14.1738 63.641 14.0509 61.5398 14.39C58.0978 14.9758 54.968 16.7441 52.6898 19.39L52.3098 19.84C50.6738 21.9002 49.4906 24.2823 48.8376 26.8308C48.1845 29.3793 48.0762 32.0368 48.5198 34.63Z" fill="#A08D82"/>
<path d="M52.2598 19.82L69.1398 25.82C69.1345 25.7667 69.1345 25.7132 69.1398 25.66C69.2085 24.9227 69.4558 24.2132 69.8602 23.5929C70.2646 22.9726 70.814 22.4601 71.4609 22.0997C72.1078 21.7394 72.8327 21.542 73.573 21.5246C74.3133 21.5072 75.0467 21.6704 75.7098 22C77.8302 23.0231 79.6061 24.6426 80.8198 26.66C80.4402 25.8487 80.0127 25.0606 79.5398 24.3C76.5398 19.43 72.2698 16.09 68.0598 14.86L67.8198 14.79C65.7709 14.2137 63.621 14.0909 61.5198 14.43C58.0778 15.0158 54.9479 16.7841 52.6698 19.43L52.2598 19.82Z" fill="#DBC7BA"/>
<path d="M46.6792 16.47C45.1628 16.4635 43.6525 16.6619 42.1892 17.06C40.7261 16.6613 39.2157 16.4628 37.6992 16.47C32.6992 16.47 28.6992 18.47 28.6992 20.88C28.6992 23.29 32.6992 25.29 37.6992 25.29C39.2157 25.2971 40.7261 25.0986 42.1892 24.7C43.6525 25.098 45.1628 25.2965 46.6792 25.29C51.6792 25.29 55.6792 23.29 55.6792 20.88C55.6792 18.47 51.6492 16.47 46.6792 16.47Z" fill="#DBC7BA"/>
<path d="M69.1507 27.31V69.07C69.148 70.2538 68.6759 71.3882 67.8379 72.2243C66.9999 73.0604 65.8645 73.53 64.6807 73.53H19.6807C18.4978 73.53 17.3634 73.0601 16.527 72.2237C15.6906 71.3873 15.2207 70.2529 15.2207 69.07V19.63H69.0707L69.1507 27.31Z" fill="#DBC7BA"/>
<path d="M19.0605 46.4C19.0605 47.5724 19.4081 48.7185 20.0592 49.6935C20.7104 50.6684 21.6359 51.4285 22.7189 51.8776C23.8019 52.3267 24.9937 52.4448 26.1438 52.2168C27.2938 51.9888 28.3504 51.425 29.1802 50.5966C30.0099 49.7683 30.5755 48.7126 30.8054 47.563C31.0353 46.4133 30.9193 45.2213 30.472 44.1376C30.0247 43.0538 29.2662 42.127 28.2924 41.4742C27.3185 40.8214 26.173 40.472 25.0005 40.47C24.221 40.4687 23.4488 40.6211 22.7282 40.9185C22.0075 41.2159 21.3526 41.6525 20.8009 42.2033C20.2492 42.7541 19.8115 43.4082 19.5129 44.1284C19.2143 44.8485 19.0605 45.6204 19.0605 46.4Z" fill="white"/>
<path d="M30.9202 46.7999C30.8141 46.7999 30.7123 46.7578 30.6373 46.6828C30.5623 46.6078 30.5202 46.506 30.5202 46.3999C30.4595 44.9753 29.8509 43.6291 28.8214 42.6425C27.7919 41.6559 26.4211 41.1051 24.9951 41.1051C23.5692 41.1051 22.1984 41.6559 21.1689 42.6425C20.1394 43.6291 19.5308 44.9753 19.4702 46.3999C19.4549 46.4964 19.4058 46.5843 19.3315 46.6478C19.2573 46.7112 19.1628 46.7461 19.0652 46.7461C18.9675 46.7461 18.873 46.7112 18.7988 46.6478C18.7245 46.5843 18.6754 46.4964 18.6602 46.3999C18.6602 45.5687 18.8239 44.7456 19.142 43.9776C19.4601 43.2096 19.9264 42.5118 20.5142 41.924C21.102 41.3362 21.7998 40.8699 22.5678 40.5518C23.3358 40.2337 24.1589 40.0699 24.9902 40.0699C25.8214 40.0699 26.6445 40.2337 27.4125 40.5518C28.1805 40.8699 28.8783 41.3362 29.4661 41.924C30.0539 42.5118 30.5202 43.2096 30.8383 43.9776C31.1564 44.7456 31.3202 45.5687 31.3202 46.3999C31.3202 46.506 31.278 46.6078 31.203 46.6828C31.128 46.7578 31.0262 46.7999 30.9202 46.7999Z" fill="#3A2127"/>
<path d="M20 46.4C20 47.3889 20.2932 48.3556 20.8427 49.1778C21.3921 50.0001 22.1729 50.6409 23.0866 51.0194C24.0002 51.3978 25.0055 51.4968 25.9754 51.3039C26.9454 51.111 27.8363 50.6348 28.5355 49.9355C29.2348 49.2362 29.711 48.3453 29.9039 47.3754C30.0969 46.4055 29.9978 45.4002 29.6194 44.4865C29.241 43.5729 28.6001 42.792 27.7778 42.2426C26.9556 41.6932 25.9889 41.4 25 41.4C23.6739 41.4 22.4021 41.9267 21.4645 42.8644C20.5268 43.8021 20 45.0739 20 46.4Z" fill="#3A2127"/>
<path d="M24.7594 49.72C24.5331 49.932 24.2427 50.0629 23.9339 50.092C23.6252 50.1212 23.3154 50.047 23.0534 49.8811C22.7913 49.7151 22.5918 49.4669 22.4861 49.1753C22.3804 48.8837 22.3746 48.5653 22.4695 48.27C22.7695 47.79 23.0795 48.44 23.7095 48.84C24.3395 49.24 25.0594 49.24 24.7594 49.72Z" fill="white"/>
<path d="M19.8099 43.65C19.7157 43.6492 19.6244 43.6176 19.5499 43.56L17.9299 42.17C17.8921 42.1327 17.8621 42.0884 17.8416 42.0394C17.8211 41.9905 17.8105 41.938 17.8105 41.885C17.8105 41.8319 17.8211 41.7794 17.8416 41.7305C17.8621 41.6815 17.8921 41.6372 17.9299 41.6C17.9996 41.519 18.0982 41.4684 18.2047 41.4591C18.3112 41.4497 18.4171 41.4824 18.4999 41.55L20.1199 42.94C20.1577 42.9772 20.1877 43.0215 20.2082 43.0705C20.2287 43.1194 20.2392 43.1719 20.2392 43.225C20.2392 43.278 20.2287 43.3305 20.2082 43.3794C20.1877 43.4284 20.1577 43.4727 20.1199 43.51C20.0826 43.5558 20.0352 43.5923 19.9814 43.6166C19.9276 43.6409 19.8689 43.6523 19.8099 43.65Z" fill="#3A2127"/>
<path d="M22.5399 41.39C22.4624 41.3928 22.3857 41.3725 22.3198 41.3315C22.2539 41.2905 22.2017 41.2308 22.1699 41.16L21.2699 39.23C21.2463 39.1822 21.2325 39.1301 21.2292 39.0769C21.226 39.0236 21.2335 38.9703 21.2512 38.92C21.2689 38.8697 21.2965 38.8234 21.3323 38.7839C21.3682 38.7444 21.4116 38.7125 21.4599 38.69C21.557 38.645 21.6677 38.6397 21.7686 38.6752C21.8695 38.7107 21.9525 38.7842 21.9999 38.88L22.8999 40.82C22.9234 40.8671 22.9371 40.9184 22.9402 40.9709C22.9433 41.0234 22.9357 41.076 22.918 41.1255C22.9002 41.175 22.8726 41.2205 22.8369 41.259C22.8011 41.2976 22.758 41.3285 22.7099 41.35C22.6572 41.3764 22.5989 41.39 22.5399 41.39Z" fill="#3A2127"/>
<path d="M27.5799 41.48C27.5173 41.4935 27.4525 41.4935 27.3899 41.48C27.295 41.429 27.2239 41.3427 27.1921 41.2398C27.1603 41.1369 27.1703 41.0256 27.2199 40.93L28.2199 39.05C28.2441 39.002 28.2777 38.9594 28.3188 38.9247C28.3598 38.8901 28.4074 38.864 28.4588 38.8482C28.5101 38.8323 28.5641 38.8269 28.6176 38.8324C28.671 38.8379 28.7228 38.854 28.7699 38.88C28.8631 38.9326 28.9319 39.0196 28.9618 39.1224C28.9917 39.2251 28.9803 39.3355 28.9299 39.43L27.9299 41.31C27.8896 41.3644 27.8367 41.4083 27.7757 41.4379C27.7148 41.4675 27.6476 41.4819 27.5799 41.48Z" fill="#3A2127"/>
<path d="M30.1792 44C30.101 43.9994 30.0247 43.9765 29.9592 43.934C29.8936 43.8915 29.8416 43.8311 29.8092 43.76C29.7874 43.7121 29.7754 43.6603 29.7736 43.6077C29.7719 43.5551 29.7806 43.5027 29.7992 43.4535C29.8178 43.4043 29.8459 43.3592 29.8819 43.3208C29.9179 43.2825 29.9612 43.2516 30.0092 43.23L31.9392 42.33C31.987 42.3064 32.0391 42.2925 32.0923 42.2893C32.1455 42.2861 32.1989 42.2935 32.2492 42.3112C32.2995 42.3289 32.3458 42.3565 32.3853 42.3924C32.4248 42.4282 32.4567 42.4716 32.4792 42.52C32.5209 42.6185 32.5235 42.7293 32.4863 42.8297C32.4491 42.93 32.375 43.0124 32.2792 43.06L30.3492 43.96C30.2951 43.9826 30.2377 43.9962 30.1792 44Z" fill="#3A2127"/>
<path d="M53.1406 46.4C53.1406 47.5728 53.4884 48.7193 54.14 49.6945C54.7916 50.6697 55.7178 51.4298 56.8013 51.8786C57.8849 52.3274 59.0772 52.4448 60.2275 52.216C61.3778 51.9872 62.4344 51.4224 63.2638 50.5931C64.0931 49.7638 64.6579 48.7072 64.8867 47.5569C65.1155 46.4066 64.9981 45.2142 64.5492 44.1307C64.1004 43.0471 63.3404 42.121 62.3652 41.4694C61.39 40.8178 60.2435 40.47 59.0706 40.47C58.2915 40.4687 57.5198 40.6211 56.7998 40.9187C56.0797 41.2162 55.4255 41.653 54.8746 42.2039C54.3236 42.7548 53.8869 43.4091 53.5893 44.1291C53.2918 44.8492 53.1393 45.6209 53.1406 46.4Z" fill="white"/>
<path d="M65.0002 46.7999C64.8932 46.8 64.7904 46.7582 64.7138 46.6834C64.6372 46.6087 64.5928 46.5069 64.5902 46.3999C64.5296 44.9753 63.921 43.6291 62.8915 42.6425C61.862 41.6559 60.4912 41.1051 59.0652 41.1051C57.6393 41.1051 56.2685 41.6559 55.239 42.6425C54.2094 43.6291 53.6008 44.9753 53.5402 46.3999C53.5402 46.4525 53.5299 46.5045 53.5098 46.553C53.4897 46.6016 53.4602 46.6456 53.4231 46.6828C53.3859 46.7199 53.3418 46.7494 53.2933 46.7695C53.2448 46.7896 53.1928 46.7999 53.1402 46.7999C53.0877 46.7999 53.0357 46.7896 52.9872 46.7695C52.9386 46.7494 52.8945 46.7199 52.8574 46.6828C52.8202 46.6456 52.7908 46.6016 52.7707 46.553C52.7506 46.5045 52.7402 46.4525 52.7402 46.3999C52.7402 44.7211 53.4071 43.1111 54.5942 41.924C55.7813 40.7369 57.3914 40.0699 59.0702 40.0699C60.7491 40.0699 62.3591 40.7369 63.5462 41.924C64.7333 43.1111 65.4002 44.7211 65.4002 46.3999C65.4002 46.506 65.3581 46.6078 65.2831 46.6828C65.2081 46.7578 65.1063 46.7999 65.0002 46.7999Z" fill="#3A2127"/>
<path d="M59.0706 51.41C61.8375 51.41 64.0806 49.1669 64.0806 46.4C64.0806 43.633 61.8375 41.39 59.0706 41.39C56.3036 41.39 54.0605 43.633 54.0605 46.4C54.0605 49.1669 56.3036 51.41 59.0706 51.41Z" fill="#3A2127"/>
<path d="M58.83 49.72C58.6228 49.9594 58.3307 50.1089 58.0153 50.1368C57.7 50.1648 57.3861 50.0691 57.14 49.87C56.8538 49.7311 56.632 49.4876 56.5204 49.1898C56.4087 48.892 56.4157 48.5627 56.54 48.27C56.85 47.79 57.16 48.44 57.79 48.84C58.42 49.24 59.14 49.24 58.83 49.72Z" fill="white"/>
<path d="M53.8901 43.65C53.7956 43.6508 53.7038 43.619 53.6301 43.56L52.0001 42.17C51.9179 42.101 51.8664 42.0022 51.857 41.8953C51.8476 41.7884 51.8811 41.6822 51.9501 41.6C52.019 41.5178 52.1178 41.4663 52.2247 41.4569C52.3316 41.4476 52.4379 41.481 52.5201 41.55L54.1401 42.94C54.214 43.0164 54.2553 43.1186 54.2553 43.225C54.2553 43.3313 54.214 43.4335 54.1401 43.51C54.0782 43.5875 53.9885 43.6377 53.8901 43.65Z" fill="#3A2127"/>
<path d="M56.61 41.39C56.5341 41.3908 56.4597 41.3695 56.3957 41.3287C56.3318 41.2878 56.2811 41.2292 56.25 41.16L55.35 39.23C55.3264 39.1822 55.3125 39.1301 55.3093 39.0769C55.3061 39.0236 55.3136 38.9703 55.3313 38.92C55.349 38.8697 55.3766 38.8234 55.4124 38.7839C55.4483 38.7444 55.4916 38.7125 55.54 38.69C55.637 38.645 55.7478 38.6397 55.8487 38.6752C55.9495 38.7107 56.0326 38.7842 56.08 38.88L56.98 40.82C57.0032 40.8677 57.0164 40.9196 57.0188 40.9726C57.0212 41.0255 57.0128 41.0784 56.9941 41.128C56.9753 41.1776 56.9467 41.2229 56.9099 41.2611C56.8731 41.2992 56.8289 41.3295 56.78 41.35C56.728 41.3784 56.6692 41.3922 56.61 41.39Z" fill="#3A2127"/>
<path d="M61.6606 41.48C61.5904 41.4794 61.5214 41.4608 61.4605 41.426C61.3995 41.3911 61.3485 41.3412 61.3123 41.2809C61.2762 41.2207 61.2561 41.1522 61.2541 41.082C61.252 41.0118 61.268 40.9422 61.3006 40.88L62.3006 39C62.3238 38.9524 62.3565 38.91 62.3966 38.8754C62.4368 38.8408 62.4835 38.8148 62.534 38.7989C62.5846 38.783 62.6378 38.7775 62.6905 38.7829C62.7432 38.7882 62.7943 38.8043 62.8406 38.83C62.8885 38.8542 62.9311 38.8879 62.9658 38.9289C63.0005 38.9699 63.0265 39.0176 63.0424 39.0689C63.0582 39.1202 63.0636 39.1742 63.0581 39.2277C63.0527 39.2811 63.0365 39.3329 63.0106 39.38L62.0106 41.26C61.9762 41.3237 61.9259 41.3775 61.8645 41.416C61.8032 41.4546 61.7329 41.4766 61.6606 41.48Z" fill="#3A2127"/>
<path d="M64.2607 44C64.1823 44.0007 64.1054 43.9783 64.0397 43.9356C63.9739 43.8929 63.9221 43.8319 63.8907 43.76C63.8676 43.7123 63.8544 43.6604 63.852 43.6074C63.8496 43.5545 63.858 43.5016 63.8767 43.4519C63.8954 43.4023 63.924 43.3571 63.9608 43.3189C63.9976 43.2808 64.0418 43.2505 64.0907 43.23L66.0207 42.33C66.0678 42.3065 66.1191 42.2928 66.1716 42.2897C66.2241 42.2866 66.2767 42.2942 66.3263 42.3119C66.3758 42.3297 66.4212 42.3573 66.4598 42.393C66.4983 42.4288 66.5293 42.472 66.5507 42.52C66.5744 42.5678 66.5882 42.6199 66.5914 42.6731C66.5946 42.7263 66.5872 42.7797 66.5695 42.83C66.5518 42.8803 66.5242 42.9266 66.4883 42.9661C66.4525 43.0056 66.4091 43.0375 66.3607 43.06L64.4307 43.96C64.3764 43.9817 64.3191 43.9952 64.2607 44Z" fill="#3A2127"/>
<path d="M29.3099 53.47C29.3099 58.47 31.5399 66.21 34.9999 71.25C33.1799 72.11 31.4399 72.53 30.8999 72.81C29.8199 73.37 31.1899 74.9 31.1899 74.9C31.1899 74.9 28.3899 76.7 28.8499 78.23C29.4199 80.11 33.9499 79.15 35.4499 78.69C42.4499 76.5 46.1699 74.3 48.8999 71.55C54.1699 66.24 55.0999 59.29 55.1299 53.55L29.3099 53.47Z" fill="#DBC7BA"/>
<path d="M31.3894 79.76C30.7009 79.7815 30.0167 79.6446 29.3894 79.36C29.1835 79.262 28.9999 79.1226 28.8503 78.9506C28.7006 78.7785 28.5879 78.5775 28.5194 78.36C28.0694 76.9 29.8394 75.42 30.6594 74.82C30.3016 74.3813 30.1198 73.8252 30.1494 73.26C30.1834 73.0888 30.2572 72.9281 30.3649 72.7908C30.4727 72.6536 30.6112 72.5436 30.7694 72.47C31.1398 72.2941 31.5245 72.1503 31.9194 72.04C32.5994 71.81 33.4994 71.5 34.4494 71.04C31.2694 66.19 28.9294 58.72 28.9494 53.42C28.9544 53.3138 28.9995 53.2135 29.0756 53.1392C29.1517 53.065 29.2531 53.0224 29.3594 53.02C29.4128 53.0199 29.4656 53.0306 29.5148 53.0513C29.564 53.0721 29.6086 53.1024 29.6458 53.1406C29.6831 53.1788 29.7124 53.2241 29.7319 53.2738C29.7514 53.3235 29.7607 53.3766 29.7594 53.43C29.7594 58.73 32.1494 66.27 35.3794 70.98C35.4133 71.027 35.4363 71.0811 35.4467 71.1382C35.4571 71.1953 35.4546 71.254 35.4394 71.31C35.4255 71.3674 35.3984 71.4208 35.3602 71.466C35.322 71.5111 35.2738 71.5467 35.2194 71.57C34.2441 72.0235 33.2423 72.4175 32.2194 72.75C31.7694 72.91 31.3694 73.04 31.2194 73.13C31.0694 73.22 31.0394 73.29 31.0294 73.35C31.0792 73.8184 31.2874 74.2558 31.6194 74.59C31.6596 74.634 31.6895 74.6865 31.7068 74.7436C31.7241 74.8007 31.7284 74.861 31.7194 74.92C31.7141 74.9777 31.695 75.0333 31.6637 75.082C31.6324 75.1308 31.5897 75.1712 31.5394 75.2C30.8794 75.63 29.0594 77.07 29.3694 78.08C29.4095 78.1961 29.4727 78.303 29.5552 78.3941C29.6376 78.4852 29.7378 78.5586 29.8494 78.61C31.0594 79.25 33.9294 78.74 35.4594 78.26C41.8494 76.26 45.8194 74.17 48.7394 71.26C54.1694 65.79 54.8294 58.55 54.8594 53.58C54.8581 53.5266 54.8674 53.4735 54.8869 53.4238C54.9064 53.3741 54.9357 53.3288 54.973 53.2906C55.0102 53.2524 55.0548 53.2221 55.104 53.2013C55.1532 53.1806 55.206 53.1699 55.2594 53.17C55.3656 53.175 55.4659 53.2201 55.5401 53.2962C55.6144 53.3723 55.657 53.4737 55.6594 53.58C55.6594 58.69 54.9494 66.15 49.3094 71.83C46.3094 74.83 42.2294 77.03 35.6994 79.06C34.3002 79.4839 32.8508 79.7193 31.3894 79.76Z" fill="#3A2127"/>
<path d="M49.8898 46.27C49.7813 46.269 49.6774 46.2259 49.5999 46.15C48.6287 45.1734 47.4741 44.3984 46.2025 43.8695C44.9308 43.3407 43.5671 43.0684 42.1898 43.0684C40.8126 43.0684 39.4489 43.3407 38.1772 43.8695C36.9056 44.3984 35.751 45.1734 34.7798 46.15C34.7043 46.2256 34.6017 46.268 34.4948 46.268C34.3879 46.268 34.2854 46.2256 34.2099 46.15C34.1343 46.0744 34.0918 45.9719 34.0918 45.865C34.0918 45.7581 34.1343 45.6556 34.2099 45.58C35.2568 44.523 36.5028 43.6839 37.876 43.1113C39.2491 42.5387 40.7221 42.2438 42.2099 42.2438C43.6976 42.2438 45.1706 42.5387 46.5437 43.1113C47.9168 43.6839 49.1629 44.523 50.2099 45.58C50.2639 45.6378 50.3001 45.7099 50.314 45.7878C50.328 45.8657 50.3191 45.946 50.2884 46.0189C50.2578 46.0919 50.2067 46.1544 50.1413 46.1989C50.0759 46.2435 49.999 46.2682 49.9198 46.27H49.8898Z" fill="#3A2127"/>
<path d="M48.1895 34.55L61.8994 32.41C61.8994 32.41 54.8695 19.61 48.1895 34.55Z" fill="#A08D82"/>
<path d="M36.1905 34.55L22.4805 32.41C22.4805 32.41 29.5105 19.61 36.1905 34.55Z" fill="#A08D82"/>
<path d="M32.1108 19.83L15.2408 25.83C15.2358 25.7767 15.2358 25.7232 15.2408 25.67C15.1712 24.9329 14.9237 24.2237 14.5193 23.6035C14.115 22.9832 13.566 22.4705 12.9196 22.1095C12.2733 21.7484 11.5489 21.5498 10.8087 21.5307C10.0686 21.5116 9.33489 21.6727 8.67078 22C6.55122 23.0282 4.77344 24.6463 3.55078 26.66C3.93045 25.8519 4.35787 25.0672 4.83078 24.31C7.83078 19.43 12.1108 16.09 16.3208 14.86L16.5608 14.8C18.607 14.2273 20.7536 14.1078 22.8508 14.45C26.2957 15.0278 29.428 16.7975 31.7008 19.45L32.1108 19.83Z" fill="#DBC7BA"/>
</svg>
