<svg width="85" height="84" viewBox="0 0 85 84" fill="none" xmlns="http://www.w3.org/2000/svg">
<rect width="84" height="84" transform="translate(0.994141)" fill="#EFF6FB"/>
<path d="M69.9105 19.75V69.21C69.9105 70.3938 69.4409 71.5292 68.6048 72.3672C67.7687 73.2052 66.6343 73.6773 65.4505 73.68H20.4505C19.265 73.68 18.128 73.2091 17.2897 72.3708C16.4514 71.5325 15.9805 70.3955 15.9805 69.21V19.75H69.9105Z" fill="#FFB3A1"/>
<path d="M28.4004 47.31C31.576 47.31 34.1504 44.7356 34.1504 41.56C34.1504 38.3844 31.576 35.81 28.4004 35.81C25.2248 35.81 22.6504 38.3844 22.6504 41.56C22.6504 44.7356 25.2248 47.31 28.4004 47.31Z" fill="white"/>
<path d="M23.5293 41.56C23.5273 42.5236 23.8113 43.4661 24.3452 44.2683C24.8791 45.0705 25.639 45.6962 26.5287 46.0664C27.4184 46.4365 28.3979 46.5344 29.3432 46.3476C30.2886 46.1608 31.1573 45.6978 31.8394 45.0171C32.5214 44.3364 32.9863 43.4687 33.175 42.5237C33.3637 41.5788 33.2678 40.5991 32.8995 39.7086C32.5312 38.8181 31.9071 38.057 31.106 37.5214C30.3049 36.9858 29.3629 36.7 28.3993 36.7C27.1094 36.6999 25.8722 37.2117 24.9592 38.1228C24.0462 39.0339 23.532 40.2701 23.5293 41.56Z" fill="#3A2127"/>
<path d="M28.6806 45C28.3971 45.3209 28.0006 45.5198 27.5738 45.5552C27.1471 45.5906 26.7232 45.4598 26.3906 45.19C26.0027 45.0073 25.7017 44.68 25.5522 44.2781C25.4026 43.8762 25.4164 43.4318 25.5906 43.04C26.0006 42.39 26.4106 43.27 27.2706 43.81C28.1306 44.35 29.0906 44.3 28.6806 45Z" fill="white"/>
<path d="M52.1504 41.56C52.1484 42.6996 52.4846 43.8143 53.1163 44.7628C53.748 45.7113 54.6469 46.4512 55.6992 46.8887C56.7515 47.3262 57.91 47.4417 59.028 47.2205C60.146 46.9994 61.1733 46.4516 61.9798 45.6465C62.7864 44.8413 63.3359 43.815 63.559 42.6974C63.7821 41.5798 63.6686 40.4211 63.2329 39.3681C62.7972 38.315 62.059 37.4148 61.1115 36.7814C60.1641 36.1481 59.0501 35.81 57.9104 35.81C56.3845 35.81 54.9209 36.4155 53.841 37.4935C52.7611 38.5716 52.153 40.0341 52.1504 41.56Z" fill="white"/>
<path d="M53 41.56C52.998 42.5236 53.282 43.4661 53.8159 44.2683C54.3498 45.0705 55.1097 45.6962 55.9994 46.0664C56.8891 46.4365 57.8686 46.5344 58.8139 46.3476C59.7593 46.1608 60.628 45.6978 61.3101 45.0171C61.9922 44.3364 62.457 43.4687 62.6457 42.5237C62.8344 41.5788 62.7386 40.5991 62.3702 39.7086C62.0019 38.8181 61.3778 38.057 60.5767 37.5214C59.7756 36.9858 58.8336 36.7 57.87 36.7C56.5801 36.6999 55.343 37.2117 54.4299 38.1228C53.5169 39.0339 53.0027 40.2701 53 41.56Z" fill="#3A2127"/>
<path d="M58.1894 45C57.8777 45.2819 57.4818 45.4532 57.063 45.4873C56.6441 45.5213 56.2257 45.4163 55.8726 45.1885C55.5195 44.9607 55.2513 44.6228 55.1097 44.2271C54.9681 43.8315 54.961 43.4001 55.0894 43C55.5094 42.35 55.9194 43.23 56.7694 43.77C57.6194 44.31 58.5994 44.3 58.1894 45Z" fill="white"/>
<path d="M28.5098 19.75H11.1498C10.0886 19.7508 9.06782 20.1571 8.29635 20.8858C7.52487 21.6145 7.06106 22.6105 6.99984 23.67C6.79984 27.37 7.12984 32.9 10.2398 36.67C10.767 37.2928 11.4347 37.7814 12.1877 38.0955C12.9408 38.4097 13.7577 38.5404 14.5712 38.4769C15.3847 38.4135 16.1714 38.1576 16.8667 37.7304C17.5619 37.3033 18.1456 36.717 18.5698 36.02L28.5098 19.75Z" fill="#ED4F63"/>
<path d="M57.3906 19.75H74.7506C75.8125 19.7484 76.8347 20.1539 77.6067 20.8831C78.3787 21.6123 78.8418 22.6097 78.9006 23.67C79.1106 27.37 78.7806 32.9 75.6606 36.67C75.1334 37.2928 74.4658 37.7814 73.7127 38.0955C72.9597 38.4097 72.1427 38.5404 71.3293 38.4769C70.5158 38.4135 69.729 38.1576 69.0338 37.7304C68.3386 37.3033 67.7548 36.717 67.3306 36.02L57.3906 19.75Z" fill="#ED4F63"/>
<path d="M40.621 66.64C40.1114 66.6423 39.607 66.5366 39.1411 66.33C38.6846 66.1379 38.2707 65.8575 37.9229 65.5049C37.5752 65.1523 37.3005 64.7346 37.1147 64.2755C36.9288 63.8165 36.8355 63.3253 36.84 62.8301C36.8445 62.3349 36.9469 61.8455 37.1411 61.39C37.1606 61.3402 37.1901 61.295 37.2278 61.2571C37.2656 61.2193 37.3107 61.1896 37.3604 61.1699C37.4101 61.1502 37.4634 61.1409 37.5168 61.1427C37.5702 61.1444 37.6227 61.1571 37.6711 61.18C37.7199 61.2007 37.7642 61.2309 37.8012 61.2688C37.8383 61.3068 37.8675 61.3517 37.887 61.401C37.9066 61.4503 37.9161 61.5031 37.9151 61.5561C37.914 61.6091 37.9025 61.6615 37.881 61.71C37.5856 62.4338 37.5844 63.2443 37.8776 63.969C38.1708 64.6937 38.7354 65.2753 39.4511 65.59C40.1749 65.8854 40.9854 65.8867 41.7101 65.5934C42.4348 65.3002 43.0164 64.7356 43.331 64.02C43.3749 63.9231 43.4547 63.847 43.5536 63.8078C43.6525 63.7686 43.7627 63.7694 43.861 63.81C43.9099 63.8307 43.9542 63.8609 43.9912 63.8988C44.0283 63.9368 44.0575 63.9817 44.077 64.031C44.0966 64.0803 44.1061 64.1331 44.1051 64.1861C44.104 64.2391 44.0925 64.2915 44.071 64.34C43.878 64.792 43.5975 65.2014 43.2456 65.5446C42.8938 65.8878 42.4777 66.1581 42.021 66.34C41.5769 66.5258 41.1022 66.6275 40.621 66.64Z" fill="#3A2127"/>
<path d="M56.4799 51.41C56.4799 58.89 50.4199 58.34 42.9499 58.34C35.4799 58.34 29.4199 58.89 29.4199 51.41C29.4199 47.8216 30.8454 44.3802 33.3828 41.8429C35.9201 39.3055 39.3615 37.88 42.9499 37.88C46.5383 37.88 49.9797 39.3055 52.5171 41.8429C55.0544 44.3802 56.4799 47.8216 56.4799 51.41Z" fill="#ED4F63"/>
<path d="M36.2694 52.3C36.216 52.3 36.1632 52.2893 36.114 52.2686C36.0648 52.2479 36.0202 52.2175 35.9829 52.1793C35.9457 52.1411 35.9164 52.0958 35.8969 52.0461C35.8774 51.9964 35.8681 51.9433 35.8694 51.89C35.8694 49.83 35.1394 48.52 34.6394 48.52C34.1394 48.52 33.4094 49.83 33.4094 51.89C33.4094 51.996 33.3673 52.0978 33.2922 52.1728C33.2172 52.2478 33.1155 52.2899 33.0094 52.2899C32.9033 52.2899 32.8015 52.2478 32.7265 52.1728C32.6515 52.0978 32.6094 51.996 32.6094 51.89C32.6094 49.51 33.4794 47.71 34.6094 47.71C35.7394 47.71 36.6094 49.51 36.6094 51.89C36.6108 51.9876 36.5774 52.0825 36.515 52.1577C36.4527 52.2328 36.3656 52.2833 36.2694 52.3Z" fill="#3A2127"/>
<path d="M53.6808 52.3C53.5721 52.3 53.4678 52.2568 53.3909 52.1799C53.314 52.103 53.2708 51.9987 53.2708 51.89C53.2708 49.83 52.5508 48.52 52.0508 48.52C51.5508 48.52 50.8209 49.83 50.8209 51.89C50.8301 51.9485 50.8265 52.0083 50.8104 52.0653C50.7943 52.1223 50.766 52.1752 50.7275 52.2202C50.689 52.2652 50.6412 52.3014 50.5874 52.3262C50.5336 52.3509 50.4751 52.3638 50.4159 52.3638C50.3566 52.3638 50.2981 52.3509 50.2443 52.3262C50.1905 52.3014 50.1427 52.2652 50.1042 52.2202C50.0657 52.1752 50.0374 52.1223 50.0213 52.0653C50.0052 52.0083 50.0016 51.9485 50.0109 51.89C50.0109 49.51 50.8909 47.71 52.0109 47.71C53.1309 47.71 54.0109 49.51 54.0109 51.89C54.0148 51.9867 53.9835 52.0815 53.9228 52.1569C53.8621 52.2323 53.7761 52.2831 53.6808 52.3Z" fill="#3A2127"/>
<path d="M46.1093 9.51997C46.0648 9.49042 46.015 9.47007 45.9625 9.4601C45.9101 9.45013 45.8562 9.45076 45.804 9.46195C45.7518 9.47313 45.7024 9.49464 45.6587 9.52522C45.6149 9.55579 45.5777 9.59481 45.5493 9.63998C44.1522 11.9183 43.0755 14.378 42.3493 16.95C41.9457 15.3155 41.1258 13.8135 39.9693 12.59C39.9306 12.5539 39.8851 12.5257 39.8355 12.5072C39.7859 12.4887 39.7331 12.4801 39.6801 12.4819C39.6272 12.4838 39.5752 12.4961 39.527 12.518C39.4788 12.54 39.4354 12.5712 39.3993 12.61C39.3632 12.6487 39.3351 12.6942 39.3165 12.7438C39.298 12.7934 39.2894 12.8462 39.2913 12.8991C39.2931 12.952 39.3054 13.0041 39.3273 13.0523C39.3493 13.1005 39.3806 13.1439 39.4193 13.18C41.0606 14.9619 41.9336 17.3188 41.8493 19.74C41.8445 19.7798 41.8445 19.8201 41.8493 19.86C41.8293 20.2564 41.8293 20.6536 41.8493 21.05C41.8543 21.1535 41.8984 21.2513 41.9726 21.3236C42.0468 21.396 42.1457 21.4376 42.2493 21.44C42.3554 21.4299 42.4536 21.3798 42.5242 21.3C42.5947 21.2202 42.6323 21.1165 42.6293 21.01C42.3793 16.15 46.1593 10.13 46.1993 10.07C46.2588 9.9846 46.2826 9.87941 46.2658 9.77673C46.249 9.67404 46.1929 9.58194 46.1093 9.51997Z" fill="#3A2127"/>
<path d="M44.4806 22C44.3941 22.0018 44.3092 21.9755 44.2389 21.925C44.1686 21.8745 44.1166 21.8026 44.0906 21.72C43.3006 19.22 44.9306 16.46 45.0006 16.34C45.0611 16.2579 45.1501 16.2012 45.2501 16.1812C45.3502 16.1612 45.4541 16.1791 45.5416 16.2316C45.6291 16.2841 45.6939 16.3674 45.7233 16.4651C45.7527 16.5628 45.7446 16.6679 45.7006 16.76C45.7006 16.76 44.1906 19.33 44.8606 21.48C44.8776 21.5299 44.8843 21.5826 44.8803 21.6351C44.8763 21.6877 44.8617 21.7388 44.8374 21.7855C44.8131 21.8323 44.7796 21.8736 44.7389 21.907C44.6982 21.9404 44.6512 21.9653 44.6006 21.98C44.5629 21.9965 44.5217 22.0033 44.4806 22Z" fill="#3A2127"/>
<path d="M35.0006 35.3C34.9196 35.3005 34.8403 35.277 34.7727 35.2325C34.7051 35.188 34.6521 35.1245 34.6205 35.05C34.308 34.4133 33.8285 33.8734 33.2333 33.4877C32.6381 33.102 31.9494 32.8851 31.2405 32.86C31.1875 32.8588 31.1354 32.8468 31.0872 32.8247C31.039 32.8027 30.9957 32.771 30.9602 32.7317C30.9246 32.6924 30.8974 32.6463 30.8803 32.5961C30.8632 32.5459 30.8564 32.4928 30.8605 32.44C30.8631 32.3874 30.876 32.3359 30.8985 32.2883C30.921 32.2408 30.9527 32.1981 30.9917 32.1628C31.0307 32.1275 31.0763 32.1003 31.1259 32.0826C31.1755 32.065 31.228 32.0573 31.2806 32.06C32.1417 32.0917 32.9779 32.3581 33.6987 32.8305C34.4196 33.3028 34.9976 33.9631 35.3705 34.74C35.4105 34.8395 35.4098 34.9508 35.3687 35.0499C35.3276 35.149 35.2493 35.228 35.1505 35.27C35.1029 35.2895 35.052 35.2997 35.0006 35.3Z" fill="#3A2127"/>
<path d="M50.8795 35.3C50.8266 35.3095 50.7724 35.3095 50.7195 35.3C50.6226 35.2561 50.5465 35.1763 50.5073 35.0774C50.4682 34.9785 50.469 34.8683 50.5095 34.77C50.879 33.9924 51.4548 33.3313 52.1743 32.8587C52.8938 32.3861 53.7292 32.1202 54.5895 32.09C54.6432 32.0844 54.6974 32.0901 54.7487 32.1065C54.8001 32.123 54.8475 32.1499 54.8879 32.1857C54.9283 32.2214 54.9608 32.2651 54.9835 32.314C55.0062 32.3629 55.0184 32.416 55.0195 32.47C55.0222 32.5225 55.0145 32.5751 54.9969 32.6246C54.9792 32.6742 54.952 32.7198 54.9167 32.7588C54.8814 32.7978 54.8387 32.8295 54.7912 32.852C54.7436 32.8745 54.6921 32.8874 54.6395 32.89C53.9311 32.9217 53.2438 33.1412 52.6481 33.5261C52.0524 33.9109 51.5697 34.4472 51.2495 35.08C51.2163 35.1489 51.1634 35.2065 51.0976 35.2456C51.0319 35.2848 50.956 35.3036 50.8795 35.3Z" fill="#3A2127"/>
</svg>
