<svg width="85" height="84" viewBox="0 0 85 84" fill="none" xmlns="http://www.w3.org/2000/svg">
<rect width="84" height="84" transform="translate(0.994141)" fill="#EFF6FB"/>
<path d="M69.5901 21.75V71.21C69.5901 71.7965 69.4745 72.3773 69.2497 72.9191C69.0249 73.4608 68.6955 73.953 68.2803 74.3672C67.8651 74.7815 67.3723 75.1098 66.83 75.3334C66.2877 75.5569 65.7067 75.6713 65.1201 75.67H20.1201C18.9373 75.67 17.8029 75.2001 16.9665 74.3637C16.13 73.5273 15.6602 72.3929 15.6602 71.21V21.75H69.5901Z" fill="#7A4438"/>
<path d="M23.0508 40.4499C23.0488 41.4694 23.3494 42.4664 23.9146 43.3149C24.4797 44.1633 25.2839 44.825 26.2254 45.216C27.1668 45.607 28.2031 45.7099 29.2031 45.5115C30.203 45.3131 31.1215 44.8224 31.8424 44.1015C32.5632 43.3807 33.0539 42.4621 33.2523 41.4622C33.4507 40.4623 33.3479 39.426 32.9569 38.4845C32.5658 37.5431 31.9042 36.7388 31.0557 36.1737C30.2073 35.6086 29.2102 35.308 28.1908 35.3099C26.8284 35.3126 25.5225 35.855 24.5592 36.8183C23.5958 37.7817 23.0534 39.0875 23.0508 40.4499Z" fill="white"/>
<path d="M23.8398 40.45C23.8398 41.3103 24.095 42.1514 24.573 42.8667C25.051 43.5821 25.7303 44.1396 26.5252 44.4688C27.32 44.7981 28.1947 44.8842 29.0385 44.7164C29.8823 44.5485 30.6574 44.1342 31.2657 43.5259C31.8741 42.9175 32.2884 42.1424 32.4563 41.2986C32.6241 40.4548 32.538 39.5802 32.2087 38.7853C31.8795 37.9904 31.3219 37.3111 30.6066 36.8331C29.8912 36.3551 29.0502 36.1 28.1898 36.1C27.0362 36.1 25.9297 36.5583 25.1139 37.3741C24.2981 38.1898 23.8398 39.2963 23.8398 40.45Z" fill="#3A2127"/>
<path d="M28.4403 43.4799C28.1639 43.727 27.8143 43.8769 27.4447 43.9069C27.0752 43.9368 26.706 43.8452 26.3934 43.6458C26.0808 43.4465 25.8419 43.1504 25.7132 42.8027C25.5845 42.455 25.5729 42.0748 25.6803 41.7199C26.0503 41.1499 26.4203 41.9299 27.1803 42.4099C27.9403 42.8899 28.8103 42.8999 28.4403 43.4799Z" fill="white"/>
<path d="M51.3203 40.4499C51.3183 41.4694 51.619 42.4664 52.1841 43.3149C52.7492 44.1633 53.5534 44.825 54.4949 45.216C55.4363 45.607 56.4726 45.7099 57.4726 45.5115C58.4725 45.3131 59.3911 44.8224 60.1119 44.1015C60.8328 43.3807 61.3234 42.4621 61.5218 41.4622C61.7202 40.4623 61.6174 39.426 61.2264 38.4845C60.8353 37.5431 60.1737 36.7388 59.3253 36.1737C58.4768 35.6086 57.4797 35.308 56.4603 35.3099C55.0979 35.3126 53.7921 35.855 52.8287 36.8183C51.8653 37.7817 51.323 39.0875 51.3203 40.4499Z" fill="white"/>
<path d="M52.1094 40.45C52.1094 41.3103 52.3645 42.1514 52.8425 42.8667C53.3205 43.5821 53.9998 44.1396 54.7947 44.4688C55.5896 44.7981 56.4642 44.8842 57.308 44.7164C58.1519 44.5485 58.927 44.1342 59.5353 43.5259C60.1437 42.9175 60.558 42.1424 60.7258 41.2986C60.8936 40.4548 60.8075 39.5802 60.4783 38.7853C60.149 37.9904 59.5915 37.3111 58.8761 36.8331C58.1608 36.3551 57.3197 36.1 56.4594 36.1C55.3057 36.1 54.1993 36.5583 53.3835 37.3741C52.5677 38.1898 52.1094 39.2963 52.1094 40.45Z" fill="#3A2127"/>
<path d="M56.7098 43.4799C56.4334 43.727 56.0838 43.8769 55.7143 43.9069C55.3447 43.9368 54.9755 43.8452 54.6629 43.6458C54.3503 43.4465 54.1114 43.1504 53.9827 42.8027C53.854 42.455 53.8425 42.0748 53.9499 41.7199C54.3099 41.1499 54.6899 41.9299 55.4499 42.4099C56.2099 42.8899 57.0798 42.8999 56.7098 43.4799Z" fill="white"/>
<path d="M50.7401 64.5799C50.7401 67.5799 46.9702 72.0799 42.3202 72.0799C37.6702 72.0799 33.9102 67.6099 33.9102 64.5799C33.9102 61.5499 37.6802 60.3099 42.3202 60.3099C46.9602 60.3099 50.7401 61.5499 50.7401 64.5799Z" fill="#E2C4A3"/>
<path d="M66.5299 58.71C66.5299 66.5 61.0799 71.2 54.3499 71.2C48.2799 71.2 43.2499 66.07 42.3499 59.34C41.4099 66.07 36.3499 71.2 30.3499 71.2C23.6199 71.2 18.1699 66.5 18.1699 58.71C18.1699 49.51 28.8799 42.98 35.6099 42.98H49.1599C55.8199 43 66.5299 49.51 66.5299 58.71Z" fill="#FFE2C2"/>
<path d="M54.3503 70.8C48.5403 70.8 43.6502 65.97 42.7202 59.31V49.17C42.705 49.0735 42.6559 48.9856 42.5816 48.9221C42.5074 48.8587 42.4129 48.8238 42.3152 48.8238C42.2176 48.8238 42.1231 48.8587 42.0489 48.9221C41.9746 48.9856 41.9255 49.0735 41.9102 49.17V59.31C40.9802 65.97 36.0903 70.8 30.2903 70.8C30.2317 70.7907 30.1719 70.7943 30.1149 70.8104C30.0579 70.8265 30.0051 70.8548 29.96 70.8933C29.915 70.9318 29.8788 70.9796 29.854 71.0334C29.8292 71.0872 29.8164 71.1457 29.8164 71.205C29.8164 71.2642 29.8292 71.3227 29.854 71.3765C29.8788 71.4303 29.915 71.4781 29.96 71.5166C30.0051 71.5551 30.0579 71.5834 30.1149 71.5995C30.1719 71.6156 30.2317 71.6192 30.2903 71.61C35.9103 71.61 40.7203 67.42 42.2903 61.39C43.8803 67.39 48.6903 71.61 54.2903 71.61C54.3867 71.5947 54.4746 71.5456 54.5381 71.4713C54.6015 71.3971 54.6364 71.3026 54.6364 71.205C54.6364 71.1073 54.6015 71.0128 54.5381 70.9386C54.4746 70.8643 54.3867 70.8152 54.2903 70.8H54.3503Z" fill="#3A2127"/>
<path d="M41.47 24.34L44.77 13.18C44.77 13.18 37.74 18.82 41.47 24.34Z" fill="#7A4438"/>
<path d="M40.9004 23.0699L45.2704 18.0699C45.2704 18.0699 46.4904 23.0699 40.9004 23.0699Z" fill="#7A4438"/>
<path d="M46.2207 34.47L59.9407 32.33C59.9407 32.33 52.9107 19.52 46.2207 34.47Z" fill="#FFE2C2"/>
<path d="M38.4095 34.47L24.6895 32.33C24.6895 32.33 31.7195 19.52 38.4095 34.47Z" fill="#FFE2C2"/>
<path d="M28.8407 19.27C28.8407 25.8 22.2607 31.09 18.6307 31.09C15.0007 31.09 15.7007 25.8 15.7007 19.27C15.7007 12.74 16.2107 7.44995 19.8407 7.44995C23.4707 7.44995 28.8407 12.74 28.8407 19.27Z" fill="#7A4438"/>
<path d="M26.0001 19.27C26.0001 22.96 22.2901 25.95 20.2401 25.95C18.1901 25.95 18.5901 22.95 18.5901 19.27C18.5901 15.59 18.8801 12.6 20.9301 12.6C22.9801 12.6 26.0001 15.59 26.0001 19.27Z" fill="#FFE2C2"/>
<path d="M56.4297 19.27C56.4297 25.8 63.0097 31.09 66.6397 31.09C70.2697 31.09 69.5697 25.8 69.5697 19.27C69.5697 12.74 69.0597 7.44995 65.4297 7.44995C61.7997 7.44995 56.4297 12.74 56.4297 19.27Z" fill="#7A4438"/>
<path d="M59.5293 19.27C59.5293 22.74 63.0193 25.55 64.9493 25.55C66.8793 25.55 66.4993 22.74 66.4993 19.27C66.4993 15.8 66.2293 13 64.2993 13C62.3693 13 59.5293 15.81 59.5293 19.27Z" fill="#FFE2C2"/>
<path d="M49.0511 44.53C49.066 44.733 49.066 44.9369 49.0511 45.14C48.1857 44.6007 47.1803 44.3293 46.1611 44.36C45.5226 44.3166 44.8822 44.4111 44.2834 44.6371C43.6847 44.8632 43.1416 45.2154 42.6911 45.67C42.6573 45.71 42.6152 45.7421 42.5677 45.7642C42.5202 45.7862 42.4685 45.7976 42.4161 45.7976C42.3637 45.7976 42.312 45.7862 42.2645 45.7642C42.217 45.7421 42.1749 45.71 42.1411 45.67C41.6906 45.2154 41.1475 44.8632 40.5487 44.6371C39.95 44.4111 39.3096 44.3166 38.6711 44.36C37.6071 44.3245 36.5584 44.6216 35.6711 45.21C35.6392 44.9847 35.6225 44.7575 35.6211 44.53C35.6211 41.53 38.6211 41.33 42.3511 41.33C46.0811 41.33 49.0511 41.54 49.0511 44.53Z" fill="#51333D"/>
<path d="M49.0009 45.14C48.9319 45.6385 48.7797 46.1219 48.5508 46.57C47.8739 47.6079 46.9487 48.4605 45.8592 49.0507C44.7696 49.6409 43.55 49.95 42.3109 49.95C41.0717 49.95 39.8521 49.6409 38.7625 49.0507C37.673 48.4605 36.7478 47.6079 36.0709 46.57C35.8598 46.1401 35.7116 45.6821 35.6309 45.21C36.5182 44.6217 37.5668 44.3245 38.6309 44.36C39.2694 44.3166 39.9097 44.4111 40.5085 44.6372C41.1072 44.8632 41.6503 45.2155 42.1009 45.67C42.1347 45.71 42.1767 45.7422 42.2242 45.7642C42.2717 45.7863 42.3235 45.7977 42.3759 45.7977C42.4282 45.7977 42.48 45.7863 42.5275 45.7642C42.575 45.7422 42.6171 45.71 42.6508 45.67C43.1014 45.2155 43.6445 44.8632 44.2432 44.6372C44.842 44.4111 45.4823 44.3166 46.1208 44.36C47.1366 44.3313 48.1384 44.6026 49.0009 45.14Z" fill="#3A2127"/>
</svg>
