<svg width="85" height="84" viewBox="0 0 85 84" fill="none" xmlns="http://www.w3.org/2000/svg">
<rect width="84" height="84" transform="translate(0.994141)" fill="#EFF6FB"/>
<path d="M69.4752 22.1023V71.5523C69.4752 72.7378 69.0042 73.8748 68.166 74.7131C67.3277 75.5514 66.1907 76.0223 65.0052 76.0223H20.0052C18.8197 76.0223 17.6827 75.5514 16.8444 74.7131C16.0061 73.8748 15.5352 72.7378 15.5352 71.5523V22.1023H69.4752Z" fill="#632F2B"/>
<path d="M26.784 49.8523C30.3462 49.8523 33.234 46.9645 33.234 43.4023C33.234 39.84 30.3462 36.9523 26.784 36.9523C23.2218 36.9523 20.334 39.84 20.334 43.4023C20.334 46.9645 23.2218 49.8523 26.784 49.8523Z" fill="white"/>
<path d="M26.784 48.8523C29.7939 48.8523 32.234 46.4122 32.234 43.4023C32.234 40.3923 29.7939 37.9523 26.784 37.9523C23.774 37.9523 21.334 40.3923 21.334 43.4023C21.334 46.4122 23.774 48.8523 26.784 48.8523Z" fill="#3A2127"/>
<path d="M25.9542 47.4823C25.7505 47.7081 25.4682 47.8474 25.165 47.8716C24.8619 47.8957 24.561 47.803 24.3242 47.6123C24.051 47.4819 23.839 47.2507 23.7327 46.9672C23.6264 46.6838 23.6341 46.3702 23.7542 46.0923C24.0542 45.6323 24.3442 46.2523 24.9442 46.6323C25.5442 47.0123 26.2442 47.0223 25.9542 47.4823Z" fill="white"/>
<path d="M31.3843 38.8723L30.5443 36.7623L29.6943 38.8723L27.6543 39.6523L29.6643 40.3023L30.5443 42.5523L31.4143 40.3023L33.4343 39.6523L31.3843 38.8723Z" fill="white"/>
<path d="M58.4949 49.8523C62.0572 49.8523 64.9449 46.9645 64.9449 43.4023C64.9449 39.84 62.0572 36.9523 58.4949 36.9523C54.9327 36.9523 52.0449 39.84 52.0449 43.4023C52.0449 46.9645 54.9327 49.8523 58.4949 49.8523Z" fill="white"/>
<path d="M63.9449 43.4023C63.9449 44.4802 63.6253 45.5339 63.0264 46.4301C62.4276 47.3264 61.5764 48.0249 60.5806 48.4374C59.5847 48.8499 58.4889 48.9578 57.4317 48.7475C56.3745 48.5373 55.4034 48.0182 54.6412 47.256C53.879 46.4938 53.3599 45.5227 53.1496 44.4655C52.9394 43.4083 53.0473 42.3125 53.4598 41.3167C53.8723 40.3208 54.5708 39.4696 55.467 38.8708C56.3633 38.2719 57.417 37.9523 58.4949 37.9523C59.9404 37.9523 61.3265 38.5265 62.3486 39.5485C63.3707 40.5706 63.9449 41.9568 63.9449 43.4023Z" fill="#3A2127"/>
<path d="M63.2944 38.8723L62.4544 36.7623L61.6144 38.8723L59.5645 39.6523L61.5744 40.3023L62.4544 42.5523L63.3244 40.3023L65.3444 39.6523L63.2944 38.8723Z" fill="white"/>
<path d="M57.8644 47.4823C57.6607 47.7081 57.3784 47.8474 57.0752 47.8716C56.7721 47.8957 56.4712 47.803 56.2344 47.6123C55.9612 47.4819 55.7492 47.2507 55.6429 46.9672C55.5366 46.6838 55.5443 46.3702 55.6643 46.0923C55.9643 45.6323 56.2543 46.2523 56.8543 46.6323C57.4543 47.0123 58.1544 47.0223 57.8644 47.4823Z" fill="white"/>
<path d="M71.0851 15.9923C71.0851 20.5623 67.3752 27.5723 62.8152 27.5723C58.2552 27.5723 54.5352 20.5723 54.5352 15.9923C54.6097 13.8474 55.5142 11.8153 57.0579 10.3243C58.6016 8.83333 60.664 8 62.8102 8C64.9564 8 67.0187 8.83333 68.5624 10.3243C70.1061 11.8153 71.0106 13.8474 71.0851 15.9923Z" fill="#632F2B"/>
<path d="M57.0636 18.3923C57.0636 21.5623 59.6336 26.3923 62.8136 26.3923C65.9936 26.3923 68.5536 21.5223 68.5536 18.3923C68.5859 17.6177 68.4612 16.8445 68.1871 16.1193C67.9129 15.3941 67.495 14.7319 66.9583 14.1723C66.4217 13.6128 65.7774 13.1676 65.0643 12.8635C64.3511 12.5593 63.5839 12.4025 62.8086 12.4025C62.0333 12.4025 61.266 12.5593 60.5529 12.8635C59.8397 13.1676 59.1955 13.6128 58.6588 14.1723C58.1222 14.7319 57.7042 15.3941 57.43 16.1193C57.1559 16.8445 57.0313 17.6177 57.0636 18.3923Z" fill="#E2C4A3"/>
<path d="M30.5441 15.9923C30.5441 20.5623 26.8341 27.5723 22.2741 27.5723C17.7141 27.5723 13.9941 20.5723 13.9941 15.9923C14.0687 13.8474 14.9732 11.8153 16.5169 10.3243C18.0606 8.83333 20.1229 8 22.2691 8C24.4153 8 26.4776 8.83333 28.0214 10.3243C29.5651 11.8153 30.4696 13.8474 30.5441 15.9923Z" fill="#632F2B"/>
<path d="M16.5245 18.3923C16.5245 21.5623 19.0945 26.3923 22.2745 26.3923C25.4545 26.3923 28.0145 21.5223 28.0145 18.3923C28.0468 17.6177 27.9222 16.8445 27.6481 16.1193C27.3739 15.3941 26.956 14.7319 26.4193 14.1723C25.8826 13.6128 25.2384 13.1676 24.5253 12.8635C23.8121 12.5593 23.0448 12.4025 22.2695 12.4025C21.4942 12.4025 20.727 12.5593 20.0138 12.8635C19.3007 13.1676 18.6565 13.6128 18.1198 14.1723C17.5831 14.7319 17.1652 15.3941 16.891 16.1193C16.6169 16.8445 16.4922 17.6177 16.5245 18.3923Z" fill="#E2C4A3"/>
<path d="M54.4938 53.7523C54.4938 60.2823 49.2038 69.6123 42.6738 69.6123C36.1438 69.6123 30.8438 60.2823 30.8438 53.7523C30.8438 47.2223 36.1438 45.9623 42.6738 45.9623C49.2038 45.9623 54.4938 47.2223 54.4938 53.7523Z" fill="#E2C4A3"/>
<path d="M51.4138 53.3423C51.4138 53.6823 51.4138 54.0123 51.4138 54.3423C50.3207 53.4837 48.9634 53.0313 47.5737 53.0623C46.6899 53.0162 45.8084 53.1893 45.0076 53.5661C44.2068 53.943 43.5116 54.5119 42.9838 55.2223C42.9485 55.287 42.8965 55.341 42.8331 55.3786C42.7698 55.4162 42.6975 55.4361 42.6238 55.4361C42.5501 55.4361 42.4778 55.4162 42.4144 55.3786C42.3511 55.341 42.299 55.287 42.2637 55.2223C41.7343 54.5111 41.0374 53.9418 40.2349 53.5649C39.4323 53.1881 38.5491 53.0154 37.6638 53.0623C36.2026 53.0146 34.7762 53.5138 33.6638 54.4623C33.6202 54.0905 33.5968 53.7166 33.5938 53.3423C33.5938 48.4223 37.5937 48.0823 42.5137 48.0823C47.4337 48.0823 51.4138 48.3423 51.4138 53.3423Z" fill="#51333D"/>
<path d="M51.3641 54.3422C51.2684 55.1518 51.0666 55.9453 50.764 56.7022C50.0148 58.5242 48.6835 60.0469 46.9778 61.0326C45.2722 62.0184 43.2882 62.4118 41.3355 62.1514C39.3828 61.8911 37.5712 60.9916 36.1834 59.5934C34.7956 58.1952 33.9098 56.3769 33.6641 54.4222C34.7765 53.4738 36.2029 52.9745 37.6641 53.0222C38.5494 52.9754 39.4326 53.148 40.2352 53.5249C41.0377 53.9017 41.7346 54.471 42.264 55.1822C42.2993 55.2469 42.3514 55.3009 42.4147 55.3385C42.4781 55.3762 42.5504 55.396 42.6241 55.396C42.6978 55.396 42.7701 55.3762 42.8334 55.3385C42.8968 55.3009 42.9488 55.2469 42.9841 55.1822C43.5119 54.4718 44.2071 53.9029 45.0079 53.5261C45.8087 53.1492 46.6902 52.9762 47.574 53.0222C48.9514 53.0142 50.2897 53.4802 51.3641 54.3422Z" fill="#3A2127"/>
<path d="M53.6646 57.8722C53.612 57.8667 53.5588 57.8717 53.5082 57.8868C53.4575 57.902 53.4104 57.927 53.3695 57.9605C53.3285 57.9939 53.2947 58.0352 53.2698 58.0819C53.2449 58.1285 53.2296 58.1796 53.2246 58.2322C52.9346 60.7322 51.9745 62.5222 50.3845 63.5422C47.5945 65.3322 43.6746 64.3023 42.9946 64.1123V60.5422C42.9946 60.4362 42.9524 60.3344 42.8774 60.2594C42.8024 60.1844 42.7006 60.1422 42.5946 60.1422C42.4885 60.1422 42.3867 60.1844 42.3117 60.2594C42.2367 60.3344 42.1946 60.4362 42.1946 60.5422V64.1522C41.1946 64.4222 37.5846 65.2223 34.9846 63.5523C33.3846 62.5523 32.4245 60.7322 32.1345 58.2322C32.1286 58.1797 32.1124 58.1289 32.0869 58.0826C32.0613 58.0363 32.0269 57.9955 31.9856 57.9626C31.9443 57.9296 31.8969 57.9051 31.8461 57.8905C31.7953 57.8758 31.7421 57.8713 31.6896 57.8773C31.6371 57.8832 31.5862 57.8994 31.5399 57.9249C31.4937 57.9505 31.4528 57.9849 31.4199 58.0262C31.3869 58.0675 31.3624 58.115 31.3478 58.1657C31.3332 58.2165 31.3286 58.2697 31.3346 58.3222C31.6546 61.0822 32.7346 63.0622 34.5446 64.2322C35.8938 65.0366 37.4445 65.439 39.0145 65.3923C40.2533 65.387 41.4852 65.2086 42.6746 64.8623C43.8676 65.2073 45.1026 65.3856 46.3446 65.3923C47.9145 65.4379 49.465 65.0355 50.8146 64.2322C52.6246 63.0622 53.7046 61.0822 54.0246 58.3222C54.0315 58.2689 54.0276 58.2147 54.0131 58.1629C53.9987 58.1111 53.9739 58.0627 53.9403 58.0207C53.9067 57.9787 53.8649 57.9439 53.8175 57.9184C53.7701 57.8929 53.7181 57.8772 53.6646 57.8722Z" fill="#3A2127"/>
<path d="M46.6641 35.7023L60.3741 33.5623C60.3741 33.5623 53.3741 20.7523 46.6641 35.7023Z" fill="#3A2127"/>
<path d="M38.8741 35.7023L25.1641 33.5623C25.1641 33.5623 32.1941 20.7523 38.8741 35.7023Z" fill="#3A2127"/>
</svg>
