<svg width="84" height="84" viewBox="0 0 84 84" fill="none" xmlns="http://www.w3.org/2000/svg">
<rect width="84" height="84" fill="#EFF6FB"/>
<path d="M65.4203 19.62C66.5448 19.62 67.6233 20.0667 68.4184 20.8618C69.2136 21.657 69.6603 22.7354 69.6603 23.86V69.07C69.6622 69.4998 69.6016 69.9276 69.4803 70.34C69.2049 71.2613 68.6398 72.0693 67.8687 72.644C67.0977 73.2187 66.1619 73.5294 65.2003 73.53H20.2003C19.6138 73.5326 19.0327 73.4191 18.4904 73.1959C17.9481 72.9727 17.4554 72.6442 17.0407 72.2296C16.626 71.8149 16.2976 71.3222 16.0744 70.7799C15.8512 70.2375 15.7376 69.6564 15.7403 69.07V23.86C15.7403 23.3015 15.8506 22.7485 16.0649 22.2328C16.2793 21.717 16.5934 21.2487 16.9892 20.8547C17.3851 20.4608 17.8548 20.1489 18.3716 19.937C18.8883 19.7251 19.4418 19.6173 20.0003 19.62L28.6403 16.23C37.6844 12.6802 47.7361 12.6802 56.7803 16.23L65.4203 19.62Z" fill="#5B2D25"/>
<path d="M46.9202 66.75H38.5002C33.1057 66.75 27.9321 64.607 24.1176 60.7925C20.3031 56.978 18.1602 51.8045 18.1602 46.41C18.16 44.0622 18.7227 41.7486 19.8008 39.663C20.879 37.5774 22.4414 35.7807 24.357 34.4233C26.2727 33.0659 28.4857 32.1874 30.8108 31.8615C33.1358 31.5356 35.5051 31.7716 37.7202 32.55C40.8608 33.6451 44.2796 33.6451 47.4202 32.55L47.7502 32.43C49.9655 31.6605 52.333 31.4326 54.6544 31.7653C56.9759 32.0981 59.184 32.9818 61.0941 34.3426C63.0041 35.7034 64.5606 37.5018 65.6333 39.5873C66.706 41.6727 67.2639 43.9848 67.2602 46.33V46.41C67.2602 51.8045 65.1172 56.978 61.3027 60.7925C57.4882 64.607 52.3147 66.75 46.9202 66.75Z" fill="#F9AC50"/>
<path d="M44.5395 70H40.5895C39.2236 70 37.9137 69.4574 36.9479 68.4916C35.982 67.5258 35.4395 66.2158 35.4395 64.85V60.8C35.4393 60.7777 35.4474 60.7562 35.4622 60.7396C35.477 60.723 35.4974 60.7124 35.5195 60.71H49.6095C49.6209 60.7099 49.6321 60.7122 49.6426 60.7169C49.653 60.7215 49.6623 60.7283 49.6699 60.7368C49.6775 60.7453 49.6831 60.7554 49.6865 60.7663C49.6899 60.7772 49.6909 60.7886 49.6895 60.8V64.89C49.6789 66.2489 49.1317 67.5486 48.167 68.5057C47.2023 69.4629 45.8984 70 44.5395 70Z" fill="#FFEFE1"/>
<path d="M37.5007 63.27C40.4168 63.27 42.7807 61.1836 42.7807 58.61C42.7807 56.0363 40.4168 53.95 37.5007 53.95C34.5846 53.95 32.2207 56.0363 32.2207 58.61C32.2207 61.1836 34.5846 63.27 37.5007 63.27Z" fill="#FFEFE1"/>
<path d="M47.6394 63.27C50.5554 63.27 52.9194 61.1836 52.9194 58.61C52.9194 56.0363 50.5554 53.95 47.6394 53.95C44.7233 53.95 42.3594 56.0363 42.3594 58.61C42.3594 61.1836 44.7233 63.27 47.6394 63.27Z" fill="#FFEFE1"/>
<path d="M48.7701 53.74V53.67C48.7701 45.01 45.9901 40.38 42.5501 40.38C39.1101 40.38 36.3301 45 36.3301 53.67V53.74L42.5501 55.74L48.7701 53.74Z" fill="#E5892C"/>
<path d="M42.5693 60.54C42.5159 60.5413 42.4628 60.5319 42.4131 60.5124C42.3635 60.4929 42.3182 60.4637 42.28 60.4264C42.2418 60.3891 42.2114 60.3446 42.1907 60.2954C42.1699 60.2462 42.1593 60.1934 42.1593 60.14V57.89C42.1501 57.8315 42.1536 57.7716 42.1698 57.7146C42.1859 57.6576 42.2141 57.6048 42.2526 57.5597C42.2911 57.5147 42.3389 57.4786 42.3927 57.4538C42.4465 57.429 42.5051 57.4161 42.5643 57.4161C42.6235 57.4161 42.6821 57.429 42.7359 57.4538C42.7897 57.4786 42.8375 57.5147 42.876 57.5597C42.9145 57.6048 42.9427 57.6576 42.9588 57.7146C42.975 57.7716 42.9785 57.8315 42.9693 57.89V60.14C42.9693 60.1925 42.959 60.2445 42.9388 60.293C42.9187 60.3416 42.8893 60.3857 42.8521 60.4228C42.815 60.46 42.7709 60.4894 42.7224 60.5095C42.6738 60.5296 42.6218 60.54 42.5693 60.54Z" fill="#3A2127"/>
<path d="M48.54 54.45L45 56.69C44.2695 57.1457 43.4259 57.3873 42.565 57.3873C41.704 57.3873 40.8604 57.1457 40.13 56.69L36.6 54.48C36.4554 54.3931 36.3434 54.2612 36.2811 54.1045C36.2187 53.9478 36.2096 53.775 36.255 53.6126C36.3005 53.4502 36.3979 53.3072 36.5325 53.2055C36.6671 53.1039 36.8313 53.0493 37 53.05L42.57 52.19L48.14 53.02C48.3086 53.0193 48.4728 53.0739 48.6074 53.1755C48.742 53.2772 48.8395 53.4202 48.8849 53.5826C48.9303 53.745 48.9212 53.9178 48.8589 54.0745C48.7966 54.2312 48.6845 54.3631 48.54 54.45Z" fill="#3A2127"/>
<path d="M47.6395 63.54C44.5595 63.54 42.1495 62.05 42.1495 60.14C42.1403 60.0815 42.1439 60.0216 42.16 59.9646C42.1761 59.9076 42.2044 59.8548 42.2429 59.8097C42.2814 59.7647 42.3291 59.7286 42.3829 59.7038C42.4368 59.679 42.4953 59.6661 42.5545 59.6661C42.6138 59.6661 42.6723 59.679 42.7261 59.7038C42.7799 59.7286 42.8277 59.7647 42.8662 59.8097C42.9047 59.8548 42.933 59.9076 42.9491 59.9646C42.9652 60.0216 42.9688 60.0815 42.9595 60.14C42.9595 61.54 45.0995 62.73 47.6395 62.73C50.1795 62.73 52.3095 61.54 52.3095 60.14C52.3003 60.0815 52.3039 60.0216 52.32 59.9646C52.3361 59.9076 52.3644 59.8548 52.4029 59.8097C52.4414 59.7647 52.4891 59.7286 52.5429 59.7038C52.5968 59.679 52.6553 59.6661 52.7145 59.6661C52.7738 59.6661 52.8323 59.679 52.8861 59.7038C52.9399 59.7286 52.9877 59.7647 53.0262 59.8097C53.0647 59.8548 53.093 59.9076 53.1091 59.9646C53.1252 60.0216 53.1288 60.0815 53.1195 60.14C53.1195 62.05 50.7095 63.54 47.6395 63.54Z" fill="#3A2127"/>
<path d="M37.4811 63.54C34.4111 63.54 32.0011 62.05 32.0011 60.14C31.9919 60.0815 31.9954 60.0216 32.0115 59.9646C32.0277 59.9076 32.0559 59.8548 32.0944 59.8097C32.1329 59.7647 32.1807 59.7286 32.2345 59.7038C32.2883 59.679 32.3469 59.6661 32.4061 59.6661C32.4653 59.6661 32.5239 59.679 32.5777 59.7038C32.6315 59.7286 32.6793 59.7647 32.7178 59.8097C32.7563 59.8548 32.7845 59.9076 32.8006 59.9646C32.8167 60.0216 32.8203 60.0815 32.8111 60.14C32.8111 61.54 34.9511 62.73 37.4811 62.73C40.0111 62.73 42.1611 61.54 42.1611 60.14C42.1519 60.0815 42.1554 60.0216 42.1715 59.9646C42.1877 59.9076 42.2159 59.8548 42.2544 59.8097C42.2929 59.7647 42.3407 59.7286 42.3945 59.7038C42.4483 59.679 42.5069 59.6661 42.5661 59.6661C42.6253 59.6661 42.6839 59.679 42.7377 59.7038C42.7915 59.7286 42.8393 59.7647 42.8778 59.8097C42.9163 59.8548 42.9445 59.9076 42.9606 59.9646C42.9768 60.0216 42.9803 60.0815 42.9711 60.14C43.0011 62.05 40.5611 63.54 37.4811 63.54Z" fill="#3A2127"/>
<path d="M33.0801 13.08C33.0801 13.08 40.6401 12.08 39.0801 20.61L33.0801 13.08Z" fill="#7A4438"/>
<path d="M51.6698 13.71C51.6698 13.71 45.4498 13.71 47.9398 19.94L51.6698 13.71Z" fill="#7A4438"/>
<path d="M40.3496 10C40.3496 10 48.6696 16.15 42.4396 24.51L40.3496 10Z" fill="#7A4438"/>
<path d="M21.0703 46.22C21.0703 46.22 25.0703 58.56 33.9003 49.58L21.0703 46.22Z" fill="#FFEFE1"/>
<path d="M22 43C22.3691 43.8552 22.832 44.6668 23.38 45.42C24.2758 46.7121 25.4517 47.7855 26.82 48.56C27.9947 49.1735 29.2796 49.5474 30.6 49.66C31.7699 49.782 32.9511 49.7416 34.11 49.54C33.6928 48.5667 33.1553 47.6496 32.51 46.81C31.6533 45.6657 30.571 44.7093 29.33 44C27.8429 43.243 26.1987 42.8456 24.53 42.84C23.6834 42.8073 22.8357 42.8609 22 43Z" fill="#3A2127"/>
<path d="M32.5392 46.85C32.4241 47.1963 32.2768 47.5311 32.0992 47.85C31.728 48.5496 31.2334 49.1764 30.6392 49.7C29.8364 49.6272 29.0446 49.4628 28.2792 49.21C27.8967 49.08 27.5227 48.9263 27.1592 48.75L26.8892 48.61L26.6192 48.45C26.4345 48.3497 26.2574 48.2361 26.0892 48.11C25.8659 47.9638 25.6521 47.8034 25.4492 47.63C24.6918 46.9997 24.0195 46.2736 23.4492 45.47C23.6341 44.5355 24.0122 43.6499 24.5592 42.87C25.504 42.8895 26.4434 43.017 27.3592 43.25C27.5592 43.2967 27.7592 43.3567 27.9592 43.43H28.0292C28.4882 43.5852 28.9332 43.7792 29.3592 44.01C29.5962 44.1382 29.8265 44.2784 30.0492 44.43L30.1692 44.51L30.3892 44.67C31.207 45.2895 31.9311 46.0237 32.5392 46.85Z" fill="#FFE2C2"/>
<path d="M30.3592 44.68C30.2266 45.4444 30.0016 46.1899 29.6892 46.9C29.3371 47.736 28.8619 48.5147 28.2792 49.21C27.8967 49.08 27.5227 48.9263 27.1592 48.75L26.8892 48.61L26.6192 48.45C26.4345 48.3497 26.2574 48.2361 26.0892 48.11C25.8659 47.9638 25.6521 47.8034 25.4492 47.63C25.573 46.8442 25.7983 46.0778 26.1192 45.35C26.4453 44.602 26.8618 43.8968 27.3592 43.25C27.5592 43.2967 27.7592 43.3567 27.9592 43.43H28.0292C28.4882 43.5852 28.9332 43.7792 29.3592 44.01C29.5962 44.1382 29.8265 44.2784 30.0492 44.43L30.1692 44.51L30.3592 44.68Z" fill="#3A2127"/>
<path d="M32.0005 50.17C31.5905 50.17 31.1305 50.17 30.6505 50.11H30.5805H30.5105C30.463 50.0866 30.4206 50.054 30.3857 50.0141C30.3509 49.9742 30.3244 49.9278 30.3076 49.8776C30.2909 49.8274 30.2843 49.7743 30.2882 49.7215C30.2921 49.6687 30.3065 49.6172 30.3305 49.57C30.3708 49.4935 30.4337 49.4314 30.5107 49.392C30.5876 49.3526 30.6749 49.3379 30.7605 49.35C31.8805 49.4704 33.0119 49.43 34.1205 49.23C34.2262 49.2119 34.3348 49.235 34.4241 49.2945C34.5133 49.354 34.5765 49.4454 34.6005 49.55C34.6186 49.6531 34.5965 49.7592 34.5389 49.8466C34.4813 49.934 34.3924 49.996 34.2905 50.02C33.5336 50.142 32.7668 50.1922 32.0005 50.17Z" fill="#3A2127"/>
<path d="M30.6409 50.11C29.2565 50.0097 27.9065 49.6322 26.6709 49C25.2474 48.1923 24.0238 47.0747 23.0909 45.73C22.5177 44.9574 22.0409 44.1179 21.6709 43.23C21.6499 43.1816 21.6389 43.1294 21.6387 43.0766C21.6384 43.0238 21.6489 42.9715 21.6695 42.9229C21.6901 42.8743 21.7203 42.8303 21.7583 42.7937C21.7964 42.7571 21.8415 42.7286 21.8909 42.71C21.9917 42.6706 22.104 42.6727 22.2033 42.7158C22.3025 42.7589 22.3808 42.8395 22.4209 42.94C22.7733 43.762 23.2196 44.5405 23.7509 45.26C24.611 46.4957 25.7391 47.5212 27.0509 48.26C28.1849 48.8248 29.4176 49.1644 30.6809 49.26C30.7335 49.265 30.7846 49.2804 30.8313 49.3052C30.8779 49.3301 30.9192 49.364 30.9526 49.4049C30.9861 49.4458 31.0111 49.493 31.0263 49.5436C31.0414 49.5943 31.0464 49.6474 31.0409 49.7C31.0409 49.807 30.9991 49.9098 30.9243 49.9864C30.8496 50.063 30.7479 50.1074 30.6409 50.11Z" fill="#3A2127"/>
<path d="M34.1505 50C34.0706 50.0012 33.9923 49.9779 33.9261 49.9332C33.86 49.8885 33.8091 49.8245 33.7805 49.75C33.3717 48.8119 32.8477 47.9285 32.2205 47.12C31.4005 46.0031 30.3501 45.0755 29.1405 44.4C27.7129 43.6607 26.1281 43.2765 24.5205 43.28C23.7164 43.2586 22.9123 43.3189 22.1205 43.46C22.0173 43.4781 21.9112 43.456 21.8238 43.3984C21.7364 43.3408 21.6744 43.2519 21.6505 43.15C21.6387 43.0981 21.6375 43.0444 21.6468 42.992C21.6561 42.9396 21.6757 42.8896 21.7046 42.8449C21.7335 42.8002 21.771 42.7617 21.8149 42.7316C21.8588 42.7016 21.9083 42.6806 21.9605 42.67C22.8109 42.5117 23.6758 42.4447 24.5405 42.47C26.2812 42.467 27.9967 42.8856 29.5405 43.69C30.8526 44.4176 31.9946 45.4164 32.8905 46.62C33.5606 47.4897 34.1184 48.4406 34.5505 49.45C34.5698 49.4992 34.5791 49.5518 34.578 49.6046C34.5769 49.6575 34.5653 49.7096 34.5439 49.758C34.5225 49.8063 34.4918 49.85 34.4534 49.8863C34.4151 49.9227 34.3699 49.9512 34.3205 49.97L34.1505 50Z" fill="#3A2127"/>
<path d="M35.4407 36.58C35.1907 35.36 33.9407 34.44 30.9607 35.07C27.9807 35.7 26.6507 37 26.9007 38.22C27.1507 39.44 28.9007 40.08 31.9007 39.45C34.9007 38.82 35.7007 37.79 35.4407 36.58Z" fill="#E5892C"/>
<path d="M64.0605 46.22C64.0605 46.22 60.0605 58.56 51.2305 49.58L64.0605 46.22Z" fill="#FFEFE1"/>
<path d="M63.09 43C62.7209 43.8552 62.258 44.6668 61.71 45.42C60.8168 46.7144 59.6403 47.7883 58.27 48.56C57.0953 49.1735 55.8104 49.5474 54.49 49.66C53.3285 49.7934 52.1542 49.7664 51 49.58C51.4186 48.6053 51.9596 47.6879 52.61 46.85C53.4619 45.687 54.5488 44.7161 55.8 44C57.2879 43.2451 58.9315 42.8479 60.6 42.84C61.4333 42.81 62.2674 42.8636 63.09 43Z" fill="#3A2127"/>
<path d="M52.5898 46.85C52.7093 47.1947 52.8564 47.5291 53.0298 47.85C53.401 48.5496 53.8957 49.1764 54.4898 49.7C55.2926 49.6272 56.0844 49.4628 56.8498 49.21C57.2417 49.079 57.6257 48.9254 57.9998 48.75L58.2698 48.61L58.5398 48.45C58.7278 48.3498 58.9083 48.2362 59.0798 48.11C59.2998 47.96 59.5098 47.8 59.7198 47.63C60.4778 47.0003 61.1502 46.2741 61.7198 45.47C61.5349 44.5355 61.1569 43.6499 60.6098 42.87C59.6651 42.8895 58.7256 43.017 57.8098 43.25C57.6098 43.2967 57.4098 43.3567 57.2098 43.43H57.1498C56.6838 43.5794 56.232 43.7702 55.7998 44C55.5628 44.1282 55.3326 44.2683 55.1098 44.42L54.9998 44.5L54.7698 44.66C53.9408 45.2803 53.2064 46.0181 52.5898 46.85Z" fill="#FFE2C2"/>
<path d="M54.7695 44.68C54.9021 45.4444 55.1271 46.1898 55.4395 46.9C55.7954 47.7341 56.2703 48.5122 56.8495 49.21C57.2414 49.0789 57.6254 48.9254 57.9995 48.75L58.2695 48.61L58.5395 48.45C58.7275 48.3498 58.908 48.2362 59.0795 48.11C59.2995 47.96 59.5095 47.8 59.7195 47.63C59.5752 46.8398 59.3333 46.0706 58.9995 45.34C58.6777 44.5898 58.261 43.8841 57.7595 43.24C57.5595 43.2867 57.3595 43.3467 57.1595 43.42H57.0995C56.6502 43.5754 56.2153 43.7694 55.7995 44C55.5625 44.1282 55.3322 44.2683 55.1095 44.42L54.9995 44.5L54.7695 44.68Z" fill="#3A2127"/>
<path d="M53.18 50.17C52.4163 50.186 51.6529 50.1291 50.9 50C50.7963 49.9782 50.705 49.9171 50.6453 49.8295C50.5856 49.7418 50.5622 49.6345 50.58 49.53C50.604 49.4254 50.6671 49.334 50.7564 49.2745C50.8456 49.215 50.9543 49.1919 51.06 49.21C52.1754 49.4093 53.3133 49.4497 54.44 49.33C54.5362 49.3133 54.6352 49.3324 54.7183 49.3836C54.8015 49.4349 54.8629 49.5148 54.8912 49.6082C54.9195 49.7017 54.9126 49.8023 54.8719 49.891C54.8311 49.9797 54.7593 50.0505 54.67 50.09H54.61H54.53C54.05 50.1433 53.6 50.17 53.18 50.17Z" fill="#3A2127"/>
<path d="M54.4901 50.11C54.3897 50.108 54.2935 50.0692 54.2197 50.001C54.146 49.9328 54.0999 49.8399 54.0901 49.74C54.0846 49.6874 54.0895 49.6342 54.1047 49.5836C54.1198 49.5329 54.1448 49.4858 54.1783 49.4449C54.2118 49.404 54.253 49.3701 54.2997 49.3452C54.3463 49.3203 54.3975 49.305 54.4501 49.3C55.7138 49.2072 56.9471 48.8674 58.0801 48.3C59.3929 47.5587 60.5237 46.5338 61.3901 45.3C61.9185 44.5804 62.3615 43.8018 62.7101 42.98C62.7502 42.8794 62.8284 42.7988 62.9277 42.7558C63.027 42.7127 63.1393 42.7106 63.2401 42.75C63.2895 42.7688 63.3347 42.7972 63.3731 42.8336C63.4114 42.87 63.4422 42.9136 63.4636 42.962C63.485 43.0103 63.4965 43.0625 63.4977 43.1153C63.4988 43.1682 63.4894 43.2207 63.4701 43.27C63.0712 44.1286 62.5781 44.9402 62.0001 45.69C61.0858 47.047 59.8754 48.1788 58.4601 49C57.2389 49.6375 55.9028 50.025 54.5301 50.14L54.4901 50.11Z" fill="#3A2127"/>
<path d="M50.9995 49.9999H50.8495C50.8 49.9811 50.7549 49.9527 50.7165 49.9163C50.6781 49.8799 50.6474 49.8363 50.626 49.7879C50.6046 49.7396 50.593 49.6875 50.5919 49.6346C50.5908 49.5817 50.6001 49.5292 50.6195 49.4799C51.0576 48.4715 51.6186 47.521 52.2895 46.6499C53.1817 45.4468 54.3204 44.4479 55.6295 43.7199C57.1732 42.9156 58.8887 42.497 60.6295 42.4999C61.494 42.4806 62.3583 42.5476 63.2095 42.6999C63.3153 42.7217 63.4082 42.7843 63.4682 42.8741C63.5281 42.964 63.5501 43.0739 63.5295 43.1799C63.5033 43.2826 63.4393 43.3717 63.3503 43.4292C63.2613 43.4866 63.1538 43.5084 63.0495 43.4899C62.2576 43.3489 61.4535 43.2885 60.6495 43.3099C59.0358 43.2862 57.4404 43.6533 55.9995 44.3799C54.7898 45.0555 53.7394 45.9831 52.9195 47.0999C52.2902 47.907 51.766 48.7907 51.3595 49.7299C51.3347 49.8066 51.2868 49.8738 51.2223 49.9221C51.1579 49.9704 51.08 49.9976 50.9995 49.9999Z" fill="#3A2127"/>
<path d="M49.6897 36.58C49.9397 35.36 51.1897 34.44 54.1697 35.07C57.1497 35.7 58.4897 37.01 58.2297 38.22C57.9697 39.43 56.2297 40.08 53.2297 39.45C50.2297 38.82 49.4397 37.79 49.6897 36.58Z" fill="#E5892C"/>
<path d="M17.0008 19.68C13.5108 22.55 13.0008 27.91 15.5608 32.48C15.674 32.747 15.8439 32.9863 16.0588 33.1811C16.2737 33.3759 16.5284 33.5217 16.8052 33.6082C17.082 33.6948 17.3744 33.7201 17.662 33.6824C17.9496 33.6448 18.2256 33.545 18.4708 33.39L30.1708 23.75C30.3648 23.5398 30.5114 23.2904 30.6009 23.0186C30.6903 22.7469 30.7204 22.4592 30.6891 22.1748C30.6578 21.8905 30.5659 21.6161 30.4195 21.3703C30.2732 21.1245 30.0758 20.913 29.8408 20.75C25.8208 17.37 20.4708 16.81 17.0008 19.68Z" fill="#F9AC50"/>
<path d="M18.9009 24.94C17.3809 26.19 17.1709 28.53 18.2709 30.53C18.3219 30.6451 18.3971 30.748 18.4913 30.8315C18.5855 30.9151 18.6966 30.9775 18.817 31.0145C18.9374 31.0514 19.0643 31.0621 19.1892 31.0458C19.3141 31.0295 19.434 30.9866 19.5409 30.92L24.6509 26.72C24.7365 26.6278 24.8014 26.5184 24.8411 26.3991C24.8809 26.2797 24.8946 26.1532 24.8813 26.0281C24.8681 25.903 24.8281 25.7822 24.7642 25.6739C24.7003 25.5655 24.6139 25.4721 24.5109 25.4C22.7609 23.93 20.4209 23.69 18.9009 24.94Z" fill="#FFEFE1"/>
<path d="M16.8797 19.68C13.3897 22.55 12.8797 27.91 15.4397 32.48C15.5529 32.747 15.7228 32.9863 15.9377 33.1811C16.1526 33.3759 16.4073 33.5217 16.6841 33.6082C16.961 33.6948 17.2533 33.7201 17.5409 33.6824C17.8285 33.6448 18.1045 33.545 18.3497 33.39L30.0497 23.75C30.2437 23.5398 30.3903 23.2904 30.4798 23.0186C30.5692 22.7469 30.5993 22.4592 30.568 22.1748C30.5367 21.8905 30.4448 21.6161 30.2985 21.3703C30.1521 21.1245 29.9547 20.913 29.7197 20.75C25.7197 17.37 20.3697 16.81 16.8797 19.68Z" fill="#F9AC50"/>
<path d="M18.7993 24.94C17.2793 26.19 17.0693 28.53 18.1693 30.53C18.2204 30.6451 18.2955 30.748 18.3898 30.8315C18.484 30.9151 18.595 30.9775 18.7154 31.0145C18.8358 31.0514 18.9627 31.0621 19.0876 31.0458C19.2125 31.0295 19.3324 30.9866 19.4393 30.92L24.5493 26.72C24.6349 26.6278 24.6998 26.5184 24.7396 26.3991C24.7793 26.2797 24.7931 26.1532 24.7798 26.0281C24.7665 25.903 24.7266 25.7822 24.6627 25.6739C24.5988 25.5655 24.5124 25.4721 24.4093 25.4C22.6593 23.93 20.3293 23.69 18.7993 24.94Z" fill="#FFEFE1"/>
<path d="M68.1205 19.68C71.6005 22.55 72.1205 27.91 69.5605 32.48C69.4473 32.747 69.2773 32.9863 69.0624 33.1811C68.8476 33.3759 68.5929 33.5217 68.316 33.6082C68.0392 33.6948 67.7468 33.7201 67.4592 33.6824C67.1716 33.6448 66.8957 33.545 66.6505 33.39L54.9405 23.75C54.7465 23.5398 54.5998 23.2904 54.5104 23.0186C54.421 22.7469 54.3909 22.4592 54.4221 22.1748C54.4534 21.8905 54.5453 21.6161 54.6917 21.3703C54.838 21.1245 55.0354 20.913 55.2705 20.75C59.2705 17.37 64.6305 16.81 68.1205 19.68Z" fill="#F9AC50"/>
<path d="M66.1896 24.94C67.7196 26.19 67.9296 28.53 66.8196 30.53C66.7686 30.6451 66.6934 30.7479 66.5992 30.8315C66.505 30.9151 66.3939 30.9775 66.2735 31.0144C66.1531 31.0514 66.0262 31.0621 65.9013 31.0458C65.7764 31.0295 65.6565 30.9866 65.5496 30.92L60.4496 26.72C60.3624 26.6286 60.2961 26.5193 60.2554 26.3997C60.2147 26.2802 60.2005 26.1531 60.2138 26.0275C60.2272 25.9019 60.2677 25.7807 60.3326 25.6723C60.3975 25.564 60.4852 25.471 60.5896 25.4C61.323 24.6824 62.2841 24.2437 63.3066 24.1597C64.3292 24.0757 65.349 24.3517 66.1896 24.94Z" fill="#FFEFE1"/>
</svg>
