<svg width="84" height="84" viewBox="0 0 84 84" fill="none" xmlns="http://www.w3.org/2000/svg">
<rect width="84" height="84" fill="#EFF6FB"/>
<path d="M69.3502 20.78V70.23C69.3502 71.4155 68.8792 72.5524 68.0409 73.3907C67.2026 74.229 66.0657 74.7 64.8802 74.7H19.8802C18.6946 74.7 17.5577 74.229 16.7194 73.3907C15.8811 72.5524 15.4102 71.4155 15.4102 70.23V20.78H69.3502Z" fill="#E5892C"/>
<path d="M60.6309 74C60.6309 74.24 60.6309 74.49 60.6309 74.73H25.6309C25.6309 74.49 25.6309 74.24 25.6309 74C25.6309 65.71 33.4809 57.37 43.1709 57.37C52.8609 57.37 60.6309 65.68 60.6309 74Z" fill="#FFEFE1"/>
<path d="M69.3507 22.65V11.65C69.3509 11.4353 69.3032 11.2232 69.2109 11.0294C69.1186 10.8355 68.9841 10.6648 68.8173 10.5296C68.6505 10.3944 68.4556 10.2983 68.2468 10.2481C68.038 10.198 67.8207 10.1952 67.6107 10.24C58.6807 12.17 56.8307 20.73 56.8307 20.73H28.0007C28.0007 20.73 26.1407 12.17 17.2107 10.24C17.0007 10.1952 16.7834 10.198 16.5746 10.2481C16.3658 10.2983 16.1709 10.3944 16.0041 10.5296C15.8373 10.6648 15.7028 10.8355 15.6105 11.0294C15.5182 11.2232 15.4705 11.4353 15.4707 11.65V20.73V62.23C23.5813 67.1333 32.8496 69.7923 42.326 69.9347C51.8025 70.077 61.1465 67.6975 69.4007 63.04V22.65H69.3507Z" fill="#FCA444"/>
<path d="M43.3195 55C43.3195 57.22 40.7695 59 37.6295 59C34.4895 59 31.9395 57.21 31.9395 55C31.9395 52.79 34.4895 51 37.6295 51C40.7695 51 43.3195 52.78 43.3195 55Z" fill="#FFEFE1"/>
<path d="M54.2511 55C54.2511 57.22 51.7011 59 48.5611 59C45.4211 59 42.8711 57.21 42.8711 55C42.8711 52.79 45.4211 51 48.5611 51C51.7011 51 54.2511 52.78 54.2511 55Z" fill="#FFEFE1"/>
<path d="M46.6295 51.27C46.6295 48.55 45.0395 43.52 43.0795 43.52C41.1195 43.52 39.5195 48.52 39.5195 51.27H46.6295Z" fill="#E5892C"/>
<path d="M46.5005 51.6799L44.5005 52.96C44.0815 53.2194 43.5984 53.3569 43.1055 53.3569C42.6127 53.3569 42.1295 53.2194 41.7105 52.96L39.7105 51.69C39.6264 51.6409 39.5609 51.5653 39.5243 51.475C39.4878 51.3847 39.4822 51.2848 39.5085 51.191C39.5348 51.0973 39.5915 51.0149 39.6697 50.9567C39.7479 50.8986 39.8431 50.8681 39.9405 50.87H46.3105C46.4016 50.8792 46.4876 50.9167 46.5564 50.9772C46.6252 51.0376 46.6734 51.118 46.6943 51.2072C46.7152 51.2964 46.7078 51.3899 46.6731 51.4746C46.6383 51.5593 46.578 51.6311 46.5005 51.6799Z" fill="#3A2127"/>
<path d="M53.9995 55.3799C53.9461 55.3786 53.893 55.388 53.8433 55.4075C53.7936 55.427 53.7483 55.4562 53.7101 55.4935C53.6719 55.5308 53.6415 55.5753 53.6208 55.6245C53.6001 55.6737 53.5894 55.7266 53.5894 55.7799C53.5894 57.3199 51.2694 58.6099 48.5194 58.6099C45.7694 58.6099 43.5195 57.3599 43.4495 55.8499C43.4495 55.8499 43.4495 55.8499 43.4495 55.7799V53.3599C43.4587 53.3014 43.4551 53.2416 43.439 53.1846C43.4229 53.1276 43.3946 53.0747 43.3561 53.0297C43.3176 52.9847 43.2698 52.9485 43.216 52.9237C43.1622 52.8989 43.1037 52.8861 43.0445 52.8861C42.9852 52.8861 42.9267 52.8989 42.8729 52.9237C42.8191 52.9485 42.7713 52.9847 42.7328 53.0297C42.6943 53.0747 42.666 53.1276 42.6499 53.1846C42.6338 53.2416 42.6302 53.3014 42.6395 53.3599V55.7199C42.6395 55.7199 42.6395 55.7199 42.6395 55.7799V55.8499C42.5695 57.3599 40.2794 58.6099 37.5794 58.6099C34.8794 58.6099 32.4995 57.3199 32.4995 55.7799C32.4842 55.6835 32.4351 55.5956 32.3608 55.5321C32.2866 55.4686 32.1921 55.4338 32.0945 55.4338C31.9968 55.4338 31.9023 55.4686 31.8281 55.5321C31.7538 55.5956 31.7047 55.6835 31.6895 55.7799C31.6895 57.7799 34.2794 59.4199 37.5794 59.4199C40.0994 59.4199 42.1994 58.4799 43.0494 57.1299C43.8994 58.4799 46.0494 59.4199 48.5194 59.4199C51.8194 59.4199 54.3994 57.8199 54.3994 55.7799C54.3994 55.6739 54.3573 55.5721 54.2823 55.4971C54.2073 55.4221 54.1055 55.3799 53.9995 55.3799Z" fill="#3A2127"/>
<path d="M43.111 64C41.9067 63.9556 40.7689 63.4364 39.9463 62.5557C39.1237 61.675 38.6832 60.5045 38.721 59.3C38.721 59.1939 38.7631 59.0921 38.8382 59.0171C38.9132 58.9421 39.0149 58.9 39.121 58.9C39.228 58.8999 39.3308 58.9418 39.4074 59.0165C39.484 59.0912 39.5284 59.193 39.531 59.3C39.4854 59.7983 39.5441 60.3007 39.7035 60.7751C39.863 61.2494 40.1195 61.6854 40.4569 62.055C40.7942 62.4247 41.2049 62.7199 41.6628 62.9219C42.1206 63.1239 42.6156 63.2283 43.116 63.2283C43.6164 63.2283 44.1114 63.1239 44.5692 62.9219C45.0271 62.7199 45.4378 62.4247 45.7751 62.055C46.1124 61.6854 46.369 61.2494 46.5284 60.7751C46.6879 60.3007 46.7466 59.7983 46.701 59.3C46.701 59.1939 46.7432 59.0921 46.8182 59.0171C46.8932 58.9421 46.9949 58.9 47.101 58.9C47.2071 58.9 47.3088 58.9421 47.3838 59.0171C47.4589 59.0921 47.501 59.1939 47.501 59.3C47.5388 60.5045 47.0983 61.675 46.2757 62.5557C45.4531 63.4364 44.3153 63.9556 43.111 64Z" fill="#3A2127"/>
<path d="M35.0902 42.46C35.0902 42.46 39.4802 35.21 32.4902 29.63L35.0902 42.46Z" fill="#FFEFE1"/>
<path d="M31.2597 38C31.2597 38.43 23.1797 30.09 23.1797 30.09C23.1797 30.09 30.6097 29.16 31.2597 38Z" fill="#FFEFE1"/>
<path d="M51.1306 42.46C51.1306 42.46 46.7405 35.21 53.7405 29.63L51.1306 42.46Z" fill="#FFEFE1"/>
<path d="M55 38C55 38.43 63.07 30.09 63.07 30.09C63.07 30.09 55.61 29.16 55 38Z" fill="#FFEFE1"/>
<path d="M19.4395 39.16C19.7945 40.3407 20.2808 41.4778 20.8895 42.55C21.8722 44.3909 23.2605 45.9844 24.9495 47.21C26.4057 48.1865 28.0402 48.8662 29.7595 49.21C31.2816 49.5469 32.8431 49.6714 34.3994 49.58C33.9972 48.2333 33.426 46.9431 32.6995 45.74C31.7376 44.0831 30.4398 42.6457 28.8895 41.52C27.0443 40.2962 24.9379 39.5222 22.7394 39.26C21.6458 39.1137 20.54 39.0802 19.4395 39.16Z" fill="white"/>
<path d="M32.7109 45.77C32.5095 46.1993 32.272 46.6108 32.0009 47C31.4038 47.8636 30.6591 48.6151 29.8009 49.22C28.2274 48.8936 26.7241 48.291 25.3609 47.44L25.0209 47.21C24.9068 47.1323 24.7966 47.0489 24.6909 46.96C24.4609 46.8 24.2509 46.62 24.0309 46.44C22.7947 45.3265 21.7566 44.0111 20.9609 42.55C21.2342 41.6864 21.6389 40.8702 22.1609 40.13C22.3649 39.8377 22.5852 39.5573 22.821 39.29C24.3426 39.4864 25.826 39.9112 27.2209 40.55H27.3009C27.8841 40.8369 28.4427 41.1714 28.9709 41.55C29.2668 41.7498 29.5506 41.9668 29.821 42.2L29.9609 42.32C31.0514 43.32 31.9792 44.484 32.7109 45.77Z" fill="#8D9D3A"/>
<path d="M32.7102 45.77C32.5088 46.1993 32.2713 46.6108 32.0002 47C31.4031 47.8636 30.6584 48.6151 29.8002 49.22C28.7661 48.9995 27.7598 48.6641 26.8002 48.22C26.3137 47.9948 25.8427 47.7375 25.3903 47.45L25.0502 47.22C24.9361 47.1423 24.8259 47.0589 24.7202 46.97C24.4917 46.8078 24.2714 46.6342 24.0602 46.45C23.7902 46.21 23.5403 45.97 23.2903 45.72C22.3955 44.7661 21.6229 43.7046 20.9902 42.56C21.2635 41.6964 21.6682 40.8802 22.1902 40.14C22.3942 39.8477 22.6145 39.5673 22.8503 39.3C24.0917 39.4707 25.3096 39.7827 26.4803 40.23C26.7403 40.33 26.9902 40.44 27.2502 40.56H27.3302C27.9134 40.8469 28.472 41.1814 29.0002 41.56C29.2961 41.7598 29.5799 41.9768 29.8503 42.21L29.9902 42.33L30.2603 42.58C31.2221 43.5235 32.0468 44.5973 32.7102 45.77Z" fill="#9CAD23"/>
<path d="M30.1607 42.58C29.8675 43.5651 29.4579 44.5118 28.9407 45.4C28.3489 46.448 27.604 47.4018 26.7307 48.23C26.2442 48.0048 25.7732 47.7475 25.3207 47.46L24.9807 47.23C24.8666 47.1523 24.7564 47.0688 24.6507 46.98C24.4221 46.8178 24.2019 46.6443 23.9907 46.46C23.7207 46.22 23.4707 45.98 23.2207 45.73C23.8185 43.6664 24.9139 41.7812 26.4107 40.24C26.6707 40.34 26.9207 40.45 27.1807 40.57H27.2607C27.8439 40.8569 28.4024 41.1914 28.9307 41.57C29.2266 41.7698 29.5104 41.9868 29.7807 42.22L29.9207 42.34L30.1607 42.58Z" fill="#3A2127"/>
<path d="M34.41 50C34.3213 49.9989 34.2353 49.9691 34.165 49.915C34.0947 49.8609 34.0438 49.7854 34.02 49.6999C33.6275 48.3911 33.0696 47.1377 32.36 45.97C31.4388 44.3568 30.1801 42.9617 28.67 41.88C26.8756 40.6756 24.8176 39.921 22.67 39.6799C21.6071 39.529 20.5316 39.4855 19.46 39.55C19.4074 39.5546 19.3545 39.5488 19.3042 39.5329C19.2539 39.517 19.2073 39.4914 19.1669 39.4575C19.1265 39.4237 19.0932 39.3821 19.0688 39.3354C19.0445 39.2886 19.0296 39.2375 19.025 39.1849C19.0204 39.1324 19.0262 39.0795 19.042 39.0292C19.0579 38.9789 19.0835 38.9323 19.1174 38.8919C19.1513 38.8515 19.1928 38.8181 19.2396 38.7938C19.2863 38.7694 19.3375 38.7545 19.39 38.75C20.5214 38.6736 21.6577 38.7171 22.78 38.8799C25.0454 39.1415 27.2156 39.9403 29.11 41.21C30.7076 42.3645 32.0434 43.8435 33.03 45.55C33.7825 46.785 34.3708 48.1128 34.78 49.5C34.8076 49.6021 34.7936 49.7109 34.7411 49.8027C34.6886 49.8946 34.6019 49.9619 34.5 49.99L34.41 50Z" fill="#3A2127"/>
<path d="M24.2398 41.12C23.8698 40.88 23.2399 41.18 22.8499 41.79C22.4599 42.4 22.4298 43.09 22.7998 43.33C23.1698 43.57 23.2399 42.92 23.6399 42.33C24.0399 41.74 24.6098 41.36 24.2398 41.12Z" fill="white"/>
<path d="M66.8994 39.16C66.5444 40.3407 66.0581 41.4778 65.4495 42.55C64.4636 44.3887 63.0758 45.9816 61.3895 47.21C59.9333 48.1865 58.2987 48.8662 56.5794 49.21C55.0572 49.5468 53.4958 49.6713 51.9395 49.58C52.3417 48.2333 52.9129 46.9431 53.6395 45.74C54.6014 44.0831 55.8991 42.6457 57.4495 41.52C59.2946 40.2962 61.401 39.5222 63.5995 39.26C64.6931 39.1137 65.7989 39.0802 66.8994 39.16Z" fill="white"/>
<path d="M53.6309 45.7699C53.8412 46.205 54.0853 46.623 54.3608 47.0199C54.9621 47.8834 55.7101 48.6348 56.5709 49.2399C58.1439 48.9118 59.6468 48.3093 61.0109 47.4599L61.3509 47.2299L61.6808 46.9799C61.9062 46.8177 62.1231 46.6441 62.3308 46.4599C63.5728 45.3493 64.6146 44.0335 65.4109 42.5699C65.1298 41.7077 64.722 40.8921 64.2009 40.1499C64.0035 39.8555 63.7863 39.5749 63.5508 39.3099C62.0292 39.5064 60.5458 39.9311 59.1508 40.5699H59.0709C58.4865 40.8546 57.9277 41.1892 57.4008 41.5699C57.105 41.7697 56.8212 41.9868 56.5508 42.2199L56.4109 42.3399C55.3114 43.3317 54.3734 44.4889 53.6309 45.7699Z" fill="#8D9D3A"/>
<path d="M53.6309 45.7699C53.8412 46.205 54.0853 46.623 54.3608 47.0199C54.9621 47.8834 55.7101 48.6348 56.5709 49.2399C57.6046 49.018 58.6107 48.6826 59.5709 48.2399C60.0574 48.0147 60.5284 47.7575 60.9809 47.4699L61.3209 47.2399L61.6508 46.9899C61.8762 46.8277 62.0931 46.6541 62.3008 46.4699C62.5708 46.2299 62.8309 45.9899 63.0709 45.7399C63.9716 44.7887 64.7479 43.7269 65.3809 42.5799C65.0998 41.7177 64.692 40.9021 64.1709 40.1599C63.9735 39.8655 63.7563 39.5849 63.5208 39.3199C62.2761 39.4906 61.0549 39.8026 59.8809 40.2499L59.1208 40.5799H59.0409C58.4565 40.8646 57.8977 41.1992 57.3708 41.5799C57.075 41.7797 56.7912 41.9967 56.5208 42.2299L56.3809 42.3499L56.1108 42.5999C55.1399 43.5353 54.3051 44.6024 53.6309 45.7699Z" fill="#9CAD23"/>
<path d="M56.1797 42.58C56.4685 43.5667 56.8783 44.5139 57.3997 45.4C57.9915 46.448 58.7364 47.4018 59.6097 48.23C60.0962 48.0048 60.5672 47.7475 61.0197 47.46L61.3597 47.23L61.6897 46.98C61.915 46.8177 62.1319 46.6442 62.3397 46.46C62.6097 46.22 62.8697 45.98 63.1097 45.73C62.5119 43.6664 61.4165 41.7812 59.9197 40.24L59.1597 40.57H59.0797C58.4953 40.8547 57.9366 41.1892 57.4097 41.57C57.1138 41.7698 56.83 41.9868 56.5597 42.22L56.4197 42.34L56.1797 42.58Z" fill="#3A2127"/>
<path d="M51.9292 50H51.8192C51.7173 49.9719 51.6306 49.9046 51.5781 49.8128C51.5256 49.721 51.5117 49.6121 51.5392 49.51C51.9474 48.1241 52.5322 46.7966 53.2792 45.56C54.2728 43.8555 55.6114 42.3773 57.2092 41.22C59.1008 39.9522 61.2674 39.1535 63.5292 38.89C64.6548 38.7272 65.7945 38.6836 66.9292 38.76C67.0363 38.7702 67.1351 38.822 67.2043 38.9043C67.2735 38.9866 67.3076 39.0928 67.2992 39.2C67.2942 39.2526 67.2789 39.3037 67.254 39.3504C67.2291 39.397 67.1952 39.4383 67.1543 39.4718C67.1134 39.5052 67.0663 39.5303 67.0156 39.5454C66.965 39.5606 66.9118 39.5655 66.8592 39.56C65.7842 39.4957 64.7055 39.5392 63.6392 39.69C61.4912 39.9291 59.4327 40.6839 57.6392 41.89C56.1451 42.9829 54.9036 44.3847 53.9992 46C53.2896 47.1677 52.7317 48.4211 52.3392 49.73C52.3092 49.8132 52.253 49.8845 52.1791 49.9331C52.1052 49.9818 52.0175 50.0053 51.9292 50Z" fill="#3A2127"/>
<path d="M55.9004 44.8599C55.5204 45.0999 55.5304 45.7999 55.9004 46.4299C56.2704 47.0599 56.9004 47.3699 57.3104 47.1299C57.7204 46.8899 57.1104 46.5399 56.7104 45.9199C56.3104 45.2999 56.2804 44.6199 55.9004 44.8599Z" fill="white"/>
</svg>
