<svg width="84" height="84" viewBox="0 0 84 84" fill="none" xmlns="http://www.w3.org/2000/svg">
<rect width="84" height="84" fill="#EFF6FB"/>
<path d="M68.8499 18.19V67.63C68.8499 68.8155 68.379 69.9525 67.5407 70.7908C66.7024 71.6291 65.5654 72.1 64.3799 72.1H19.3799C18.1961 72.0974 17.0617 71.6252 16.2256 70.7872C15.3895 69.9492 14.9199 68.8138 14.9199 67.63V18.19H68.8499Z" fill="#D8522A"/>
<path d="M14.9395 13.74V18.19H27.4595C26.603 14.9813 24.712 12.1447 22.0795 10.12C21.4114 9.627 20.6194 9.32936 19.7919 9.26033C18.9645 9.19129 18.1342 9.35356 17.3936 9.72904C16.653 10.1045 16.0314 10.6784 15.598 11.3867C15.1647 12.0949 14.9367 12.9097 14.9395 13.74Z" fill="#F46831"/>
<path d="M68.8495 18.19V60.5C60.847 65.0658 51.7827 67.4423 42.5695 67.39C32.8216 67.4505 23.2511 64.7834 14.9395 59.69V18.19H68.8495Z" fill="#F46831"/>
<path d="M41.9999 56.39C41.9999 58.79 39.2399 60.74 35.8299 60.74C32.4199 60.74 29.6699 58.74 29.6699 56.39C29.6699 54.04 32.4299 52.03 35.8299 52.03C39.2299 52.03 41.9999 53.98 41.9999 56.39Z" fill="#FFEFE1"/>
<path d="M53.8495 56.39C53.8495 58.79 51.0895 60.74 47.6895 60.74C44.2895 60.74 41.5195 58.74 41.5195 56.39C41.5195 54.04 44.2795 52.03 47.6895 52.03C51.0995 52.03 53.8495 53.98 53.8495 56.39Z" fill="#FFEFE1"/>
<path d="M48.9992 51.78C48.9992 51.78 48.9992 51.73 48.9992 51.7C48.9992 39.25 45.7392 30.31 41.7192 30.31C37.6992 30.31 34.4492 39.25 34.4492 51.7V51.78L41.7192 54.1L48.9992 51.78Z" fill="#D8522A"/>
<path d="M50.511 60.65C50.511 65.85 46.601 70.05 41.781 70.05C36.961 70.05 33.041 65.85 33.041 60.65L41.711 54.71L50.511 60.65Z" fill="#FFEFE1"/>
<path d="M41.7594 57.64C41.6533 57.64 41.5515 57.5978 41.4765 57.5228C41.4015 57.4478 41.3594 57.3461 41.3594 57.24V54.57C41.3594 54.4639 41.4015 54.3622 41.4765 54.2871C41.5515 54.2121 41.6533 54.17 41.7594 54.17C41.8655 54.17 41.9672 54.2121 42.0422 54.2871C42.1173 54.3622 42.1594 54.4639 42.1594 54.57V57.2C42.165 57.2558 42.1588 57.3121 42.1412 57.3654C42.1237 57.4186 42.0951 57.4676 42.0574 57.5091C42.0197 57.5505 41.9736 57.5836 41.9223 57.6062C41.871 57.6288 41.8155 57.6403 41.7594 57.64Z" fill="#3A2127"/>
<path d="M48.7406 52.57L44.5806 55.18C43.7252 55.717 42.7357 56.0018 41.7257 56.0018C40.7156 56.0018 39.7261 55.717 38.8706 55.18L34.7507 52.59C34.5814 52.4876 34.4506 52.3324 34.3785 52.1483C34.3063 51.9641 34.2968 51.7613 34.3514 51.5713C34.4061 51.3812 34.5218 51.2144 34.6807 51.0967C34.8396 50.979 35.0329 50.9169 35.2307 50.92L41.7406 53.01L48.2507 50.89C48.4525 50.8804 48.6517 50.939 48.8162 51.0563C48.9807 51.1737 49.1008 51.343 49.1574 51.537C49.214 51.731 49.2037 51.9383 49.1281 52.1257C49.0525 52.3131 48.916 52.4696 48.7406 52.57Z" fill="#3A2127"/>
<path d="M47.6898 61.15C44.1298 61.15 41.3398 59.43 41.3398 57.24C41.3551 57.1435 41.4042 57.0556 41.4785 56.9921C41.5527 56.9287 41.6472 56.8938 41.7448 56.8938C41.8425 56.8938 41.937 56.9287 42.0112 56.9921C42.0855 57.0556 42.1346 57.1435 42.1498 57.24C42.1498 58.92 44.6898 60.34 47.6898 60.34C50.6898 60.34 53.2198 58.92 53.2198 57.24C53.2351 57.1435 53.2842 57.0556 53.3585 56.9921C53.4327 56.9287 53.5272 56.8938 53.6248 56.8938C53.7225 56.8938 53.817 56.9287 53.8912 56.9921C53.9655 57.0556 54.0146 57.1435 54.0298 57.24C53.9998 59.43 51.2399 61.15 47.6898 61.15Z" fill="#3A2127"/>
<path d="M35.8205 61.15C32.2605 61.15 29.4805 59.43 29.4805 57.24C29.4957 57.1435 29.5448 57.0556 29.6191 56.9921C29.6933 56.9287 29.7878 56.8938 29.8855 56.8938C29.9831 56.8938 30.0776 56.9287 30.1519 56.9921C30.2261 57.0556 30.2753 57.1435 30.2905 57.24C30.2905 58.92 32.8205 60.34 35.8205 60.34C38.8205 60.34 41.3604 58.92 41.3604 57.24C41.3604 57.1339 41.4026 57.0321 41.4776 56.9571C41.5526 56.8821 41.6544 56.84 41.7605 56.84C41.8666 56.84 41.9683 56.8821 42.0433 56.9571C42.1183 57.0321 42.1605 57.1339 42.1605 57.24C42.1605 59.43 39.3805 61.15 35.8205 61.15Z" fill="#3A2127"/>
<path d="M31.9002 48.36H25.8202C25.0218 48.36 24.2312 48.2027 23.4935 47.8972C22.7559 47.5916 22.0856 47.1438 21.521 46.5792C20.9564 46.0146 20.5086 45.3444 20.203 44.6067C19.8975 43.8691 19.7402 43.0784 19.7402 42.28V33.57C19.7613 31.9714 20.4111 30.4454 21.5491 29.3224C22.687 28.1994 24.2215 27.5699 25.8202 27.57C27.419 27.5699 28.9534 28.1994 30.0914 29.3224C31.2293 30.4454 31.8792 31.9714 31.9002 33.57V48.36Z" fill="#FFEFE1"/>
<path d="M32.7902 44.94C32.7902 44.94 35.9702 38.02 29.1602 33.74L32.7902 44.94Z" fill="#3A2127"/>
<path d="M28.9102 41.39C28.9802 41.76 20.9102 35.14 20.9102 35.14C20.9102 35.14 27.4302 33.51 28.9102 41.39Z" fill="#3A2127"/>
<path d="M17.7305 41.48C18.1605 42.477 18.7005 43.4229 19.3405 44.3C20.3818 45.8077 21.7488 47.062 23.3405 47.97C24.7152 48.6851 26.2169 49.1234 27.7605 49.26C29.1275 49.4003 30.5074 49.3498 31.8605 49.11C31.3785 47.972 30.7534 46.9 30.0005 45.92C28.994 44.5707 27.7167 43.4467 26.2505 42.62C24.5102 41.7308 22.5847 41.2648 20.6305 41.26C19.6587 41.2294 18.6865 41.3031 17.7305 41.48Z" fill="#3A2127"/>
<path d="M30.0011 45.93C29.865 46.3339 29.6944 46.7253 29.4911 47.1C29.0503 47.9134 28.4717 48.6443 27.7811 49.26C26.8423 49.1704 25.9165 48.9759 25.0211 48.68C24.5704 48.5362 24.1322 48.3556 23.7111 48.14L23.3911 47.98L23.0711 47.79C22.8565 47.6731 22.6494 47.5428 22.4511 47.4C22.1911 47.22 21.9411 47.03 21.7011 46.84C20.8174 46.1019 20.0341 45.2513 19.3711 44.31C19.5212 43.522 19.7945 42.7627 20.1811 42.06C20.3267 41.7861 20.4904 41.5221 20.6711 41.27C21.7743 41.2915 22.8714 41.4391 23.9411 41.71C24.1711 41.77 24.4111 41.84 24.6411 41.92H24.7211C25.2586 42.1042 25.7803 42.3316 26.2811 42.6C26.5582 42.7455 26.8255 42.9092 27.0811 43.09L27.2211 43.18L27.4811 43.37C28.4398 44.0977 29.2885 44.9599 30.0011 45.93Z" fill="#FCA444"/>
<path d="M27.4492 43.39C27.2958 44.2819 27.0338 45.1517 26.6692 45.98C26.2569 46.9572 25.7007 47.8672 25.0192 48.68C24.5685 48.5362 24.1303 48.3556 23.7092 48.14L23.3892 47.98L23.0692 47.79C22.8546 47.6731 22.6475 47.5428 22.4492 47.4C22.1892 47.22 21.9392 47.03 21.6992 46.84C21.846 45.9196 22.1116 45.0221 22.4892 44.17C22.8684 43.2929 23.3555 42.4665 23.9392 41.71C24.1692 41.77 24.4092 41.84 24.6392 41.92H24.7192C25.2567 42.1042 25.7784 42.3316 26.2792 42.6C26.5564 42.7455 26.8236 42.9092 27.0792 43.09L27.2192 43.18L27.4492 43.39Z" fill="#3A2127"/>
<path d="M31.8802 49.57C31.7995 49.569 31.721 49.5437 31.6549 49.4973C31.5889 49.4509 31.5385 49.3856 31.5102 49.31C31.0292 48.2089 30.4145 47.1711 29.6802 46.22C28.7131 44.9096 27.4793 43.819 26.0602 43.02C24.3784 42.1623 22.5181 41.7134 20.6302 41.71C19.6856 41.6882 18.7411 41.7585 17.8102 41.92C17.7583 41.9317 17.7046 41.933 17.6522 41.9237C17.5998 41.9144 17.5498 41.8947 17.5051 41.8658C17.4604 41.837 17.4219 41.7995 17.3919 41.7555C17.3618 41.7116 17.3409 41.6621 17.3302 41.61C17.3122 41.5042 17.3352 41.3956 17.3948 41.3063C17.4543 41.2171 17.5457 41.154 17.6502 41.13C18.6398 40.9517 19.645 40.8746 20.6502 40.9C22.6678 40.9052 24.6554 41.3884 26.4502 42.31C27.969 43.1653 29.291 44.3305 30.3302 45.73C31.1198 46.7358 31.7722 47.8422 32.2702 49.02C32.2925 49.0815 32.2999 49.1475 32.2915 49.2124C32.2831 49.2773 32.2594 49.3392 32.2222 49.3931C32.185 49.4469 32.1354 49.4911 32.0777 49.5218C32.0199 49.5526 31.9557 49.5691 31.8902 49.57H31.8802Z" fill="#3A2127"/>
<path d="M22.1295 42.71C21.7795 42.54 21.2595 42.86 20.9795 43.44C20.6995 44.02 20.7395 44.62 21.0895 44.79C21.4395 44.96 21.4295 44.38 21.7195 43.79C22.0095 43.2 22.4695 42.88 22.1295 42.71Z" fill="white"/>
<path d="M51.6602 48.36H57.7401C59.3527 48.36 60.8991 47.7194 62.0394 46.5792C63.1796 45.439 63.8202 43.8925 63.8202 42.28V33.57C63.7991 31.9714 63.1493 30.4454 62.0113 29.3224C60.8734 28.1994 59.3389 27.5699 57.7401 27.57C56.1414 27.5699 54.6069 28.1994 53.469 29.3224C52.331 30.4454 51.6812 31.9714 51.6602 33.57V48.36Z" fill="#FFEFE1"/>
<path d="M50.7603 44.94C50.7603 44.94 47.5903 38.02 54.4003 33.74L50.7603 44.94Z" fill="#3A2127"/>
<path d="M54.6411 41.39C54.5711 41.76 62.6411 35.14 62.6411 35.14C62.6411 35.14 56.1311 33.51 54.6411 41.39Z" fill="#3A2127"/>
<path d="M65.8294 41.48C65.3994 42.477 64.8594 43.4228 64.2195 44.3C63.1781 45.8077 61.8111 47.062 60.2195 47.97C58.8447 48.6851 57.343 49.1233 55.7994 49.26C54.4291 49.4004 53.0459 49.35 51.6895 49.11C52.1825 47.9733 52.814 46.9019 53.5695 45.92C54.5822 44.5728 55.8623 43.4494 57.3294 42.62C59.0665 41.732 60.9885 41.266 62.9395 41.26C63.9079 41.2305 64.8766 41.3043 65.8294 41.48Z" fill="#3A2127"/>
<path d="M53.5508 45.93C53.6946 46.3324 53.8685 46.7235 54.0708 47.1C54.5116 47.9134 55.0902 48.6443 55.7808 49.26C56.7194 49.1694 57.6451 48.9749 58.5408 48.68C58.9915 48.5362 59.4297 48.3556 59.8508 48.14L60.1708 47.98L60.4908 47.79C60.7054 47.6731 60.9125 47.5428 61.1108 47.4C61.3708 47.22 61.6208 47.03 61.8608 46.84C62.7419 46.0992 63.5249 45.249 64.1908 44.31C64.0362 43.5233 63.7631 42.7646 63.3808 42.06C63.2352 41.7861 63.0715 41.5221 62.8908 41.27C61.7876 41.2915 60.6904 41.4391 59.6208 41.71C59.3808 41.77 59.1508 41.84 58.9208 41.92H58.8408C58.3033 42.1042 57.7816 42.3316 57.2808 42.6C57.0036 42.7455 56.7364 42.9092 56.4808 43.09L56.3408 43.18C56.2501 43.2376 56.1632 43.3011 56.0808 43.37C55.1191 44.0976 54.2671 44.9598 53.5508 45.93Z" fill="#FCA444"/>
<path d="M56.1094 43.39C56.2628 44.2819 56.5248 45.1517 56.8894 45.98C57.3018 46.9572 57.8579 47.8672 58.5394 48.68C58.9901 48.5362 59.4283 48.3556 59.8494 48.14L60.1694 47.98L60.4894 47.79C60.704 47.6731 60.9111 47.5428 61.1094 47.4C61.3694 47.22 61.6194 47.03 61.8594 46.84C61.7088 45.9192 61.4399 45.0218 61.0594 44.17C60.6873 43.2914 60.2033 42.4645 59.6194 41.71C59.3794 41.77 59.1494 41.84 58.9194 41.92H58.8394C58.3019 42.1042 57.7802 42.3316 57.2794 42.6C57.0022 42.7455 56.735 42.9092 56.4794 43.09L56.3394 43.18C56.2584 43.2451 56.1816 43.3152 56.1094 43.39Z" fill="#3A2127"/>
<path d="M51.6711 49.57C51.625 49.5803 51.5772 49.5803 51.5311 49.57C51.4817 49.5512 51.4365 49.5228 51.3981 49.4864C51.3598 49.45 51.329 49.4063 51.3076 49.358C51.2862 49.3096 51.2746 49.2575 51.2735 49.2046C51.2724 49.1518 51.2818 49.0992 51.3011 49.05C51.7979 47.8737 52.4468 46.7676 53.2311 45.76C54.2739 44.3601 55.5992 43.1949 57.1211 42.34C58.9128 41.4196 60.8969 40.9364 62.9111 40.93C63.9161 40.911 64.9207 40.988 65.9111 41.16C66.0156 41.184 66.107 41.2471 66.1665 41.3364C66.226 41.4256 66.2492 41.5343 66.2311 41.64C66.2204 41.6921 66.1995 41.7416 66.1694 41.7856C66.1394 41.8295 66.1009 41.867 66.0562 41.8958C66.0115 41.9247 65.9615 41.9444 65.9091 41.9537C65.8567 41.963 65.803 41.9617 65.7511 41.95C64.8209 41.7825 63.8758 41.7121 62.9311 41.74C61.0432 41.7435 59.1829 42.1923 57.5011 43.05C56.0806 43.8511 54.844 44.9412 53.8711 46.25C53.1419 47.2028 52.5308 48.2403 52.0511 49.34C52.0165 49.4108 51.9623 49.4701 51.895 49.5109C51.8276 49.5517 51.7499 49.5722 51.6711 49.57Z" fill="#3A2127"/>
<path d="M61.431 42.71C61.781 42.54 62.291 42.86 62.581 43.44C62.871 44.02 62.821 44.62 62.471 44.79C62.121 44.96 62.131 44.38 61.841 43.79C61.551 43.2 61.081 42.88 61.431 42.71Z" fill="white"/>
<path d="M21.1992 18.97V11.63C21.1992 11.63 25.3492 12.98 26.0892 18.97H21.1992Z" fill="#FFEFE1"/>
<path d="M19.5294 16.51C19.5318 16.8334 19.4693 17.154 19.3456 17.4529C19.222 17.7518 19.0396 18.0228 18.8094 18.25C18.3504 18.7088 17.7285 18.9676 17.0795 18.97H14.9395V14.06H17.0795C17.7292 14.06 18.3524 14.3181 18.8119 14.7776C19.2713 15.2371 19.5294 15.8602 19.5294 16.51Z" fill="#3A2127"/>
<path d="M68.8501 13.74V18.19H56.3301C57.1852 14.9833 59.0724 12.1473 61.7001 10.12C62.3692 9.628 63.1616 9.3312 63.9892 9.2626C64.8168 9.194 65.6473 9.35628 66.3882 9.73141C67.1291 10.1065 67.7515 10.6798 68.1862 11.3875C68.6208 12.0952 68.8506 12.9095 68.8501 13.74Z" fill="#F46831"/>
<path d="M62.5892 18.97V11.63C62.5892 11.63 58.4392 12.98 57.6992 18.97H62.5892Z" fill="#FFEFE1"/>
<path d="M64.2598 16.51C64.2598 17.1607 64.5176 17.7849 64.9767 18.246C65.4359 18.707 66.059 18.9674 66.7097 18.97H68.8498V14.06H66.7097C66.06 14.06 65.4368 14.3181 64.9774 14.7776C64.5179 15.2371 64.2598 15.8602 64.2598 16.51Z" fill="#3A2127"/>
<path d="M34.8105 18.19V22.93C34.8105 23.4604 34.5998 23.9691 34.2248 24.3442C33.8497 24.7193 33.341 24.93 32.8105 24.93C32.2801 24.93 31.7714 24.7193 31.3963 24.3442C31.0213 23.9691 30.8105 23.4604 30.8105 22.93V18.19H34.8105Z" fill="#3A2127"/>
<path d="M44.9402 18.19V24.77C44.9402 25.6691 44.583 26.5313 43.9472 27.1671C43.3115 27.8028 42.4492 28.16 41.5501 28.16C40.6511 28.16 39.7888 27.8028 39.153 27.1671C38.5173 26.5313 38.1602 25.6691 38.1602 24.77V18.19H44.9402Z" fill="#3A2127"/>
<path d="M52.6699 18.19V22.93C52.6699 23.4604 52.4592 23.9691 52.0841 24.3442C51.7091 24.7193 51.2004 24.93 50.6699 24.93C50.1395 24.93 49.6308 24.7193 49.2557 24.3442C48.8806 23.9691 48.6699 23.4604 48.6699 22.93V18.19H52.6699Z" fill="#3A2127"/>
<path d="M20.6194 49.88C18.6539 50.1596 16.6517 49.7648 14.9395 48.76V43.25L20.6194 49.88Z" fill="#3A2127"/>
<path d="M63.1699 49.88C65.1354 50.1596 67.1377 49.7648 68.8499 48.76V43.25L63.1699 49.88Z" fill="#3A2127"/>
</svg>
