<svg width="85" height="84" viewBox="0 0 85 84" fill="none" xmlns="http://www.w3.org/2000/svg">
<rect width="84" height="84" transform="translate(0.994141)" fill="#EFF6FB"/>
<path d="M65.1649 17.39H20.1848C17.7161 17.39 15.7148 19.3913 15.7148 21.86V66.84C15.7148 69.3087 17.7161 71.31 20.1848 71.31H65.1649C67.6336 71.31 69.6349 69.3087 69.6349 66.84V21.86C69.6349 19.3913 67.6336 17.39 65.1649 17.39Z" fill="#3A2127"/>
<path d="M69.6351 30.11V51.76C68.15 53.4724 66.3275 54.8598 64.2816 55.8354C62.2357 56.8111 60.0104 57.3539 57.7451 57.43C56.4544 60.3691 54.3359 62.8688 51.6483 64.624C48.9606 66.3791 45.8201 67.3137 42.6101 67.3137C39.4001 67.3137 36.2595 66.3791 33.5719 64.624C30.8842 62.8688 28.7657 60.3691 27.4751 57.43C25.2418 57.3543 23.047 56.826 21.0239 55.8772C19.0007 54.9284 17.1913 53.5787 15.7051 51.91V29.91C17.4777 27.9203 19.7052 26.389 22.1978 25.4466C24.6903 24.5043 27.3738 24.1788 30.0193 24.4981C32.6648 24.8174 35.1939 25.7719 37.3907 27.2802C39.5874 28.7884 41.3867 30.8058 42.6351 33.16C43.9051 30.8114 45.725 28.8054 47.9393 27.3136C50.1536 25.8218 52.6963 24.8886 55.3499 24.5937C58.0035 24.2989 60.6891 24.6512 63.1768 25.6206C65.6646 26.5899 67.8805 28.1475 69.6351 30.16V30.11Z" fill="#FFB3A1"/>
<path d="M20.9141 40.19C20.9121 41.5531 21.3145 42.8862 22.0704 44.0206C22.8263 45.155 23.9016 46.0396 25.1604 46.5627C26.4192 47.0857 27.8049 47.2235 29.1421 46.9588C30.4793 46.6941 31.7079 46.0387 32.6725 45.0755C33.6371 44.1123 34.2943 42.8847 34.561 41.5479C34.8276 40.2111 34.6917 38.8252 34.1705 37.5656C33.6493 36.3061 32.7662 35.2294 31.633 34.4719C30.4997 33.7143 29.1672 33.31 27.8041 33.31C25.9785 33.31 24.2275 34.0345 22.9356 35.3245C21.6438 36.6145 20.9167 38.3644 20.9141 40.19Z" fill="white"/>
<path d="M34.6856 40.59C34.5786 40.59 34.4758 40.5482 34.3992 40.4734C34.3226 40.3987 34.2782 40.297 34.2756 40.19C34.3099 39.3182 34.1678 38.4486 33.8578 37.6331C33.5479 36.8176 33.0764 36.0732 32.4718 35.4443C31.8672 34.8154 31.1417 34.3151 30.3391 33.9734C29.5364 33.6316 28.673 33.4555 27.8006 33.4555C26.9282 33.4555 26.0648 33.6316 25.2621 33.9734C24.4595 34.3151 23.7341 34.8154 23.1295 35.4443C22.5248 36.0732 22.0534 36.8176 21.7434 37.6331C21.4335 38.4486 21.2914 39.3182 21.3256 40.19C21.3104 40.2865 21.2613 40.3743 21.187 40.4378C21.1128 40.5013 21.0183 40.5361 20.9206 40.5361C20.8229 40.5361 20.7285 40.5013 20.6542 40.4378C20.58 40.3743 20.5308 40.2865 20.5156 40.19C20.5855 38.3046 21.3836 36.5197 22.7422 35.2105C24.1007 33.9014 25.9139 33.1699 27.8006 33.1699C29.6873 33.1699 31.5005 33.9014 32.8591 35.2105C34.2177 36.5197 35.0158 38.3046 35.0856 40.19C35.0856 40.2961 35.0435 40.3978 34.9685 40.4728C34.8935 40.5478 34.7917 40.59 34.6856 40.59Z" fill="#3A2127"/>
<path d="M21.9844 40.19C21.9844 41.3411 22.3257 42.4663 22.9652 43.4234C23.6047 44.3805 24.5137 45.1265 25.5771 45.567C26.6406 46.0075 27.8108 46.1227 28.9398 45.8982C30.0688 45.6736 31.1058 45.1193 31.9197 44.3054C32.7337 43.4914 33.288 42.4544 33.5125 41.3254C33.7371 40.1965 33.6218 39.0262 33.1813 37.9628C32.7408 36.8993 31.9949 35.9904 31.0378 35.3508C30.0807 34.7113 28.9555 34.37 27.8044 34.37C26.2608 34.37 24.7805 34.9832 23.689 36.0746C22.5975 37.1661 21.9844 38.6464 21.9844 40.19Z" fill="#3A2127"/>
<path d="M27.5248 44.04C27.2604 44.2771 26.9257 44.4213 26.5717 44.4508C26.2178 44.4802 25.8639 44.3932 25.5639 44.203C25.2639 44.0129 25.0343 43.7299 24.9099 43.3972C24.7855 43.0645 24.7732 42.7003 24.8748 42.36C25.2248 41.8 25.5848 42.56 26.3148 43.02C27.0448 43.48 27.8848 43.49 27.5248 44.04Z" fill="white"/>
<path d="M21.7948 36.94C21.6963 36.9371 21.6014 36.902 21.5248 36.84L19.6348 35.23C19.5609 35.1535 19.5195 35.0513 19.5195 34.945C19.5195 34.8386 19.5609 34.7364 19.6348 34.66C19.672 34.6222 19.7164 34.5922 19.7653 34.5717C19.8142 34.5512 19.8668 34.5406 19.9198 34.5406C19.9728 34.5406 20.0254 34.5512 20.0743 34.5717C20.1232 34.5922 20.1676 34.6222 20.2048 34.66L22.0848 36.27C22.1226 36.3072 22.1526 36.3516 22.1731 36.4005C22.1936 36.4494 22.2041 36.5019 22.2041 36.555C22.2041 36.608 22.1936 36.6605 22.1731 36.7095C22.1526 36.7584 22.1226 36.8028 22.0848 36.84C22.0047 36.9096 21.9008 36.9454 21.7948 36.94Z" fill="#3A2127"/>
<path d="M24.9543 34.31C24.8768 34.3128 24.8001 34.2924 24.7342 34.2514C24.6683 34.2105 24.6161 34.1508 24.5843 34.08L23.5343 31.84C23.49 31.7417 23.4861 31.63 23.5236 31.5289C23.561 31.4279 23.6367 31.3456 23.7343 31.3C23.7821 31.2763 23.8342 31.2625 23.8874 31.2593C23.9407 31.2561 23.994 31.2635 24.0444 31.2812C24.0947 31.2989 24.1409 31.3265 24.1804 31.3624C24.2199 31.3982 24.2519 31.4416 24.2743 31.49L25.2743 33.74C25.2978 33.787 25.3115 33.8384 25.3146 33.8909C25.3177 33.9434 25.3101 33.996 25.2924 34.0455C25.2746 34.095 25.247 34.1404 25.2113 34.179C25.1755 34.2176 25.1324 34.2485 25.0843 34.27C25.0438 34.291 24.9997 34.3046 24.9543 34.31Z" fill="#3A2127"/>
<path d="M30.8044 34.41C30.7418 34.4235 30.6771 34.4235 30.6144 34.41C30.5221 34.3591 30.4529 34.2746 30.4213 34.174C30.3896 34.0735 30.3979 33.9646 30.4444 33.87L31.6344 31.63C31.6854 31.5351 31.7717 31.464 31.8746 31.4322C31.9775 31.4004 32.0888 31.4104 32.1844 31.46C32.2775 31.5128 32.3469 31.5991 32.3785 31.7013C32.4101 31.8035 32.4015 31.9139 32.3544 32.01L31.1944 34.19C31.1588 34.2614 31.1026 34.3205 31.0331 34.3597C30.9636 34.3989 30.884 34.4164 30.8044 34.41Z" fill="#3A2127"/>
<path d="M33.8256 37.29C33.7488 37.2892 33.6737 37.2673 33.6085 37.2267C33.5432 37.1862 33.4904 37.1285 33.4556 37.06C33.4323 37.0116 33.419 36.959 33.4165 36.9053C33.4139 36.8516 33.4223 36.7979 33.4409 36.7475C33.4596 36.6971 33.4882 36.651 33.5251 36.6119C33.562 36.5728 33.6064 36.5416 33.6556 36.52L35.8956 35.52C35.9942 35.4783 36.1049 35.4757 36.2053 35.5129C36.3057 35.5501 36.388 35.6242 36.4356 35.72C36.4574 35.7679 36.4695 35.8197 36.4712 35.8723C36.4729 35.9249 36.4642 35.9773 36.4456 36.0265C36.4271 36.0758 36.3989 36.1208 36.3629 36.1592C36.3269 36.1975 36.2836 36.2284 36.2356 36.25L33.9956 37.3C33.9389 37.3096 33.8808 37.3062 33.8256 37.29Z" fill="#3A2127"/>
<path d="M49.7344 40.19C49.7344 41.5498 50.1374 42.8792 50.8925 44.0102C51.6476 45.1412 52.7209 46.023 53.9769 46.5443C55.2329 47.0656 56.6152 47.203 57.9493 46.9392C59.2833 46.6753 60.5093 46.0221 61.4722 45.0619C62.4352 44.1017 63.092 42.8777 63.3597 41.5444C63.6275 40.2111 63.4941 38.8284 62.9764 37.5709C62.4588 36.3134 61.58 35.2375 60.4512 34.4792C59.3225 33.7208 57.9943 33.3139 56.6344 33.31C55.7292 33.3073 54.8325 33.4834 53.9954 33.8279C53.1584 34.1725 52.3976 34.6789 51.7566 35.318C51.1156 35.9571 50.607 36.7165 50.26 37.5525C49.913 38.3885 49.7344 39.2848 49.7344 40.19Z" fill="white"/>
<path d="M63.4951 40.59C63.3891 40.59 63.2873 40.5478 63.2123 40.4728C63.1373 40.3978 63.0952 40.2961 63.0952 40.19C63.0952 38.4661 62.4104 36.8128 61.1914 35.5938C59.9724 34.3748 58.3191 33.69 56.5952 33.69C54.8713 33.69 53.218 34.3748 51.999 35.5938C50.78 36.8128 50.0952 38.4661 50.0952 40.19C50.08 40.2865 50.0308 40.3743 49.9566 40.4378C49.8823 40.5013 49.7878 40.5361 49.6902 40.5361C49.5925 40.5361 49.498 40.5013 49.4238 40.4378C49.3495 40.3743 49.3004 40.2865 49.2852 40.19C49.355 38.3046 50.1531 36.5197 51.5117 35.2105C52.8703 33.9014 54.6835 33.1699 56.5702 33.1699C58.4568 33.1699 60.2701 33.9014 61.6286 35.2105C62.9872 36.5197 63.7853 38.3046 63.8551 40.19C63.8556 40.2895 63.819 40.3856 63.7525 40.4596C63.6859 40.5335 63.5942 40.58 63.4951 40.59Z" fill="#3A2127"/>
<path d="M50.7949 40.19C50.7949 41.3402 51.1358 42.4647 51.7744 43.4213C52.413 44.378 53.3208 45.124 54.3831 45.565C55.4454 46.0061 56.6146 46.1225 57.743 45.8996C58.8715 45.6766 59.9085 45.1243 60.7233 44.3124C61.538 43.5004 62.0939 42.4653 62.3207 41.3376C62.5475 40.21 62.4351 39.0404 61.9976 37.9766C61.5602 36.9128 60.8174 36.0025 59.8629 35.3606C58.9085 34.7187 57.7852 34.374 56.6349 34.37C55.8693 34.3687 55.111 34.5182 54.4031 34.81C53.6953 35.1017 53.0519 35.5301 52.5096 36.0705C51.9673 36.6109 51.5368 37.2529 51.2426 37.9597C50.9484 38.6665 50.7962 39.4244 50.7949 40.19Z" fill="#3A2127"/>
<path d="M56.0444 44.04C55.7807 44.2819 55.4447 44.4304 55.0882 44.4624C54.7318 44.4944 54.3747 44.4082 54.0721 44.217C53.7695 44.0259 53.5382 43.7405 53.4139 43.4049C53.2896 43.0693 53.2793 42.7021 53.3844 42.36C53.7344 41.8 54.0944 42.56 54.8244 43.02C55.5544 43.48 56.3944 43.49 56.0444 44.04Z" fill="white"/>
<path d="M50.634 36.94C50.5385 36.9372 50.4468 36.9019 50.374 36.84L48.494 35.23C48.413 35.1602 48.3625 35.0616 48.3531 34.9551C48.3438 34.8487 48.3764 34.7428 48.444 34.66C48.4812 34.6222 48.5256 34.5922 48.5745 34.5717C48.6235 34.5512 48.676 34.5406 48.729 34.5406C48.7821 34.5406 48.8346 34.5512 48.8835 34.5717C48.9324 34.5922 48.9768 34.6222 49.014 34.66L50.894 36.27C50.968 36.3464 51.0093 36.4486 51.0093 36.555C51.0093 36.6613 50.968 36.7635 50.894 36.84C50.8209 36.9012 50.7294 36.9364 50.634 36.94Z" fill="#3A2127"/>
<path d="M53.7656 34.31C53.6883 34.3115 53.6123 34.2906 53.5466 34.2498C53.4809 34.2089 53.4285 34.15 53.3956 34.08L52.3956 31.84C52.3513 31.7417 52.3475 31.63 52.3849 31.5289C52.4223 31.4279 52.498 31.3456 52.5957 31.3C52.6435 31.2763 52.6955 31.2625 52.7487 31.2593C52.802 31.2561 52.8553 31.2635 52.9057 31.2812C52.956 31.2989 53.0023 31.3265 53.0418 31.3624C53.0813 31.3982 53.1132 31.4416 53.1356 31.49L54.1356 33.74C54.1591 33.787 54.1728 33.8384 54.1759 33.8909C54.179 33.9434 54.1715 33.996 54.1537 34.0455C54.136 34.095 54.1083 34.1404 54.0726 34.179C54.0368 34.2176 53.9937 34.2485 53.9456 34.27C53.8903 34.2991 53.8281 34.313 53.7656 34.31Z" fill="#3A2127"/>
<path d="M59.634 34.41C59.5713 34.4235 59.5066 34.4235 59.444 34.41C59.3515 34.3593 59.2828 34.2741 59.2528 34.1729C59.2228 34.0718 59.2341 33.9629 59.284 33.87L60.4339 31.68C60.4547 31.6259 60.4867 31.5767 60.5278 31.5359C60.5689 31.495 60.6183 31.4633 60.6725 31.4429C60.7268 31.4225 60.7848 31.4139 60.8426 31.4175C60.9005 31.4211 60.957 31.437 61.0082 31.4641C61.0595 31.4912 61.1044 31.5288 61.1401 31.5745C61.1757 31.6202 61.2013 31.673 61.2151 31.7293C61.2289 31.7856 61.2306 31.8442 61.22 31.9012C61.2095 31.9582 61.187 32.0123 61.154 32.06L59.9939 34.24C59.954 34.2973 59.8998 34.3432 59.8366 34.373C59.7734 34.4028 59.7036 34.4156 59.634 34.41Z" fill="#3A2127"/>
<path d="M62.6348 37.29C62.558 37.2892 62.4829 37.2673 62.4176 37.2267C62.3524 37.1862 62.2995 37.1285 62.2648 37.06C62.2205 36.9618 62.2166 36.8501 62.254 36.749C62.2915 36.6479 62.3672 36.5657 62.4648 36.52L64.7048 35.52C64.8033 35.4783 64.9141 35.4757 65.0145 35.5129C65.1148 35.5501 65.1972 35.6242 65.2448 35.72C65.2665 35.7679 65.2786 35.8197 65.2803 35.8723C65.282 35.9249 65.2734 35.9773 65.2548 36.0265C65.2362 36.0758 65.208 36.1208 65.172 36.1592C65.136 36.1975 65.0927 36.2284 65.0448 36.25L62.8048 37.3C62.7481 37.3107 62.6898 37.3073 62.6348 37.29Z" fill="#3A2127"/>
<path d="M10.2942 28.34C13.7742 28.34 19.1142 31.16 19.1142 34.64C19.1142 38.12 13.7742 40.94 10.2942 40.94C8.62329 40.94 7.02087 40.2762 5.83939 39.0947C4.65791 37.9133 3.99414 36.3108 3.99414 34.64C3.99414 32.9691 4.65791 31.3667 5.83939 30.1852C7.02087 29.0037 8.62329 28.34 10.2942 28.34Z" fill="#FFB3A1"/>
<path d="M15.1852 33.7C15.0852 33.62 12.7652 31.62 8.34524 32.31C8.23964 32.3295 8.14593 32.3896 8.08422 32.4775C8.02251 32.5654 7.99775 32.674 8.01525 32.78C8.02245 32.8324 8.04024 32.8829 8.06759 32.9283C8.09493 32.9737 8.13126 33.013 8.17431 33.0439C8.21735 33.0747 8.26621 33.0965 8.31795 33.1079C8.3697 33.1193 8.42322 33.12 8.47524 33.11C9.68287 32.9083 10.9177 32.9354 12.1153 33.19C11.5105 33.491 11.0219 33.9831 10.7252 34.59C10.6857 34.6792 10.6792 34.7797 10.7071 34.8732C10.735 34.9668 10.7953 35.0474 10.8773 35.1004C10.9593 35.1535 11.0575 35.1755 11.1543 35.1626C11.251 35.1497 11.34 35.1026 11.4052 35.03L11.4652 34.92C11.6646 34.5239 11.9776 34.1963 12.3642 33.979C12.7507 33.7617 13.1932 33.6645 13.6352 33.7C13.9918 33.8625 14.3276 34.0673 14.6352 34.31C14.7092 34.3765 14.8058 34.4123 14.9052 34.41C14.9868 34.4081 15.0659 34.382 15.1325 34.3349C15.1991 34.2879 15.2502 34.222 15.2791 34.1458C15.3081 34.0696 15.3137 33.9864 15.2952 33.907C15.2767 33.8276 15.2349 33.7555 15.1753 33.7H15.1852Z" fill="#3A2127"/>
<path d="M75.0759 28.34C71.5959 28.34 66.2559 31.16 66.2559 34.64C66.2559 38.12 71.5959 40.94 75.0759 40.94C76.7467 40.94 78.3492 40.2762 79.5306 39.0947C80.7121 37.9133 81.3759 36.3108 81.3759 34.64C81.3759 32.9691 80.7121 31.3667 79.5306 30.1852C78.3492 29.0037 76.7467 28.34 75.0759 28.34Z" fill="#FFB3A1"/>
<path d="M77.0254 32.31C72.5954 31.62 70.2853 33.62 70.1853 33.7C70.1256 33.7555 70.0839 33.8276 70.0654 33.907C70.0469 33.9864 70.0525 34.0696 70.0814 34.1458C70.1104 34.222 70.1615 34.2879 70.2281 34.3349C70.2947 34.382 70.3738 34.4081 70.4553 34.41C70.5548 34.4123 70.6514 34.3765 70.7254 34.31C71.0315 34.065 71.3675 33.86 71.7254 33.7C72.1732 33.6673 72.6204 33.77 73.0091 33.9947C73.3978 34.2193 73.7101 34.5556 73.9054 34.96L73.9654 35.07C74.0007 35.1253 74.0495 35.1709 74.1072 35.2023C74.1649 35.2338 74.2296 35.2502 74.2953 35.25C74.3727 35.2501 74.4487 35.2294 74.5153 35.19C74.6016 35.1309 74.6626 35.0418 74.6867 34.9401C74.7107 34.8384 74.696 34.7314 74.6453 34.64V34.59C74.3449 33.9824 73.8529 33.4904 73.2453 33.19C74.4463 32.9351 75.6844 32.908 76.8953 33.11C76.9474 33.12 77.0009 33.1193 77.0526 33.1079C77.1044 33.0965 77.1533 33.0747 77.1963 33.0439C77.2394 33.013 77.2757 32.9737 77.303 32.9283C77.3303 32.8829 77.3481 32.8324 77.3553 32.78C77.3728 32.674 77.3481 32.5654 77.2864 32.4775C77.2247 32.3896 77.131 32.3295 77.0254 32.31Z" fill="#3A2127"/>
<path d="M44.1155 46C43.7886 46.0012 43.4665 46.0786 43.1748 46.2262C42.8832 46.3737 42.63 46.5873 42.4354 46.85C42.1777 46.4981 41.8154 46.2366 41.4002 46.1028C40.985 45.9691 40.5382 45.9699 40.1235 46.1052C39.7088 46.2404 39.3474 46.5033 39.091 46.8561C38.8345 47.209 38.6961 47.6338 38.6954 48.07C38.6941 48.1234 38.7035 48.1765 38.723 48.2261C38.7425 48.2758 38.7717 48.3211 38.809 48.3593C38.8463 48.3975 38.8908 48.4279 38.94 48.4486C38.9892 48.4693 39.0421 48.48 39.0954 48.48C39.2042 48.48 39.3085 48.4368 39.3853 48.3599C39.4622 48.283 39.5054 48.1787 39.5054 48.07C39.4898 47.8944 39.5109 47.7175 39.5674 47.5505C39.6239 47.3836 39.7145 47.2302 39.8335 47.1001C39.9525 46.9701 40.0972 46.8662 40.2585 46.7952C40.4198 46.7241 40.5942 46.6874 40.7704 46.6874C40.9467 46.6874 41.121 46.7241 41.2824 46.7952C41.4437 46.8662 41.5884 46.9701 41.7074 47.1001C41.8264 47.2302 41.917 47.3836 41.9735 47.5505C42.03 47.7175 42.0511 47.8944 42.0354 48.07C42.0262 48.1285 42.0298 48.1883 42.0459 48.2453C42.062 48.3024 42.0903 48.3552 42.1288 48.4002C42.1673 48.4453 42.2151 48.4814 42.2689 48.5062C42.3227 48.531 42.3812 48.5438 42.4404 48.5438C42.4997 48.5438 42.5582 48.531 42.612 48.5062C42.6658 48.4814 42.7136 48.4453 42.7521 48.4002C42.7906 48.3552 42.8189 48.3024 42.835 48.2453C42.8511 48.1883 42.8547 48.1285 42.8454 48.07C42.8298 47.8944 42.8509 47.7175 42.9074 47.5505C42.9639 47.3836 43.0545 47.2302 43.1735 47.1001C43.2925 46.9701 43.4372 46.8662 43.5985 46.7952C43.7598 46.7241 43.9342 46.6874 44.1104 46.6874C44.2867 46.6874 44.4611 46.7241 44.6224 46.7952C44.7837 46.8662 44.9284 46.9701 45.0474 47.1001C45.1664 47.2302 45.257 47.3836 45.3135 47.5505C45.37 47.7175 45.3911 47.8944 45.3754 48.07C45.3754 48.1787 45.4186 48.283 45.4955 48.3599C45.5724 48.4368 45.6767 48.48 45.7854 48.48C45.8388 48.48 45.8917 48.4693 45.9409 48.4486C45.9901 48.4279 46.0346 48.3975 46.0719 48.3593C46.1091 48.3211 46.1384 48.2758 46.1579 48.2261C46.1774 48.1765 46.1868 48.1234 46.1854 48.07C46.1854 47.521 45.9674 46.9945 45.5792 46.6063C45.191 46.2181 44.6644 46 44.1155 46Z" fill="#3A2127"/>
<path d="M50.1156 48.5C50.0095 48.5 49.9078 48.5421 49.8328 48.6172C49.7577 48.6922 49.7156 48.7939 49.7156 48.9C49.7156 51.29 46.7156 54.04 42.7956 54.22V51.76C42.7956 51.6539 42.7535 51.5522 42.6785 51.4772C42.6035 51.4021 42.5017 51.36 42.3956 51.36C42.2895 51.36 42.1878 51.4021 42.1128 51.4772C42.0377 51.5522 41.9956 51.6539 41.9956 51.76V54.21C38.0656 54.03 35.0756 51.28 35.0756 48.89C35.0604 48.7935 35.0113 48.7056 34.937 48.6422C34.8628 48.5787 34.7683 48.5438 34.6706 48.5438C34.5729 48.5438 34.4785 48.5787 34.4042 48.6422C34.33 48.7056 34.2808 48.7935 34.2656 48.89C34.2656 51.73 37.8156 55.04 42.3956 55.04C46.9756 55.04 50.5256 51.73 50.5256 48.89C50.5205 48.7848 50.475 48.6855 50.3987 48.6129C50.3223 48.5403 50.221 48.4999 50.1156 48.5Z" fill="#3A2127"/>
<path d="M40.7549 20.85L31.9648 13.57C31.9648 13.57 39.8649 11.88 40.7549 20.85Z" fill="#51333D"/>
<path d="M42.3555 22.42L50.0955 13C50.0955 13 51.4255 21.76 42.3555 22.42Z" fill="#51333D"/>
</svg>
