<svg width="85" height="84" viewBox="0 0 85 84" fill="none" xmlns="http://www.w3.org/2000/svg">
<rect width="84" height="84" transform="translate(0.994141)" fill="#EFF6FB"/>
<path d="M76.1205 14.16H62.4905V9.03C62.4905 8.22639 62.1713 7.4557 61.6031 6.88747C61.0349 6.31923 60.2642 6 59.4606 6C58.657 6 57.8862 6.31923 57.318 6.88747C56.7498 7.4557 56.4305 8.22639 56.4305 9.03V18.21H30.2806V9.03C30.2806 8.22639 29.9613 7.4557 29.3931 6.88747C28.8248 6.31923 28.0542 6 27.2505 6C26.4469 6 25.6763 6.31923 25.108 6.88747C24.5398 7.4557 24.2205 8.22639 24.2205 9.03V14.16H10.5906C9.78697 14.16 9.01623 14.4792 8.448 15.0475C7.87976 15.6157 7.56055 16.3864 7.56055 17.19C7.56055 17.9936 7.87976 18.7643 8.448 19.3325C9.01623 19.9008 9.78697 20.22 10.5906 20.22H13.4105C12.9575 20.761 12.7097 21.4444 12.7106 22.15C12.7106 22.9456 13.0266 23.7087 13.5892 24.2713C14.1518 24.8339 14.9149 25.15 15.7106 25.15C15.9585 25.152 16.2062 25.1319 16.4506 25.09V67.67C16.4518 68.263 16.571 68.8498 16.8012 69.3962C17.0314 69.9426 17.3681 70.4378 17.7915 70.8529C18.215 71.268 18.7168 71.5947 19.2677 71.8139C19.8186 72.0332 20.4077 72.1406 21.0005 72.13H66.0005C67.1834 72.13 68.3178 71.6601 69.1542 70.8237C69.9906 69.9873 70.4606 68.8529 70.4606 67.67V25.14C70.6503 25.1556 70.8409 25.1556 71.0306 25.14C71.8262 25.14 72.5892 24.8239 73.1519 24.2613C73.7145 23.6987 74.0306 22.9356 74.0306 22.14C74.0315 21.4344 73.7836 20.751 73.3306 20.21H76.1506C76.9542 20.21 77.7249 19.8908 78.2931 19.3225C78.8613 18.7543 79.1805 17.9836 79.1805 17.18C79.1805 16.3764 78.8613 15.6057 78.2931 15.0375C77.7249 14.4692 76.9542 14.15 76.1506 14.15L76.1205 14.16Z" fill="#3F222A"/>
<path d="M67.7395 33.7C67.7395 48.83 56.9495 61.1 43.6295 61.1C30.3095 61.1 19.5195 48.83 19.5195 33.7C19.5195 18.57 43.6295 33.41 43.6295 33.41C43.6295 33.41 67.7395 18.6 67.7395 33.7Z" fill="#FFEFE1"/>
<path d="M43.6298 33.41C43.6298 33.41 45.7798 15.85 21.0898 16.21L43.6298 33.41Z" fill="#E2C4A3"/>
<path d="M43.6295 33.41C43.6295 33.41 40.5795 22.6 24.2695 23.6L43.6295 33.41Z" fill="#FFEFE1"/>
<path d="M43.7309 33.41C43.7309 33.41 41.5809 15.85 66.2709 16.21L43.7309 33.41Z" fill="#E2C4A3"/>
<path d="M43.7305 33.41C43.7305 33.41 46.7305 22.62 63.0905 23.58L43.7305 33.41Z" fill="#FFEFE1"/>
<path d="M35.6199 35.7C35.612 36.6991 35.3085 37.6734 34.7477 38.5002C34.1869 39.3271 33.3939 39.9694 32.4687 40.3463C31.5434 40.7231 30.5273 40.8176 29.5484 40.6179C28.5695 40.4182 27.6717 39.9331 26.968 39.2239C26.2643 38.5147 25.7864 37.613 25.5943 36.6326C25.4023 35.6521 25.5048 34.6368 25.889 33.7145C26.2731 32.7923 26.9216 32.0044 27.7529 31.4501C28.5841 30.8959 29.5608 30.6001 30.5599 30.6C31.2277 30.6 31.889 30.7322 32.5055 30.989C33.1221 31.2458 33.6816 31.6221 34.152 32.0962C34.6224 32.5703 34.9943 33.1328 35.2463 33.7514C35.4982 34.3699 35.6251 35.0322 35.6199 35.7Z" fill="#F9AC50"/>
<path d="M34.4499 35.7C34.4479 36.4689 34.2181 37.22 33.7895 37.8584C33.3608 38.4968 32.7526 38.9938 32.0417 39.2867C31.3307 39.5796 30.5488 39.6552 29.7949 39.504C29.041 39.3528 28.3488 38.9815 27.8058 38.4371C27.2627 37.8927 26.8932 37.1995 26.7439 36.4452C26.5946 35.6909 26.6723 34.9093 26.967 34.199C27.2617 33.4888 27.7603 32.8819 28.3998 32.4549C29.0393 32.0279 29.791 31.8 30.5599 31.8C31.0716 31.8 31.5783 31.9009 32.0509 32.097C32.5235 32.2932 32.9528 32.5806 33.3141 32.9429C33.6755 33.3052 33.9617 33.7352 34.1567 34.2083C34.3516 34.6814 34.4512 35.1883 34.4499 35.7Z" fill="#3A2127"/>
<path d="M35.1794 32.24L34.4495 30.41L33.7194 32.24L31.9395 32.92L33.6895 33.48L34.4495 35.43L35.2095 33.48L36.9694 32.92L35.1794 32.24Z" fill="white"/>
<path d="M30.1701 38.16C30.086 38.2642 29.9818 38.3505 29.8637 38.4136C29.7456 38.4768 29.6161 38.5156 29.4827 38.5277C29.3493 38.5398 29.2148 38.525 29.0873 38.4842C28.9598 38.4434 28.8417 38.3774 28.7401 38.29C28.6162 38.2371 28.5042 38.1597 28.4109 38.0623C28.3176 37.965 28.245 37.8499 28.1973 37.7238C28.1497 37.5977 28.1281 37.4632 28.1337 37.3286C28.1393 37.1939 28.1721 37.0617 28.2301 36.94C28.4901 36.53 28.7501 37.08 29.2901 37.42C29.8301 37.76 30.4301 37.76 30.1701 38.16Z" fill="white"/>
<path d="M61.0501 35.7C61.0441 36.7023 60.7412 37.6804 60.1796 38.5106C59.6181 39.3408 58.823 39.986 57.8949 40.3645C56.9668 40.743 55.9474 40.838 54.9654 40.6374C53.9833 40.4367 53.0828 39.9495 52.3775 39.2373C51.6723 38.5251 51.194 37.6198 51.003 36.6358C50.8121 35.6519 50.917 34.6334 51.3047 33.7091C51.6924 32.7847 52.3453 31.9961 53.1811 31.4427C54.0168 30.8893 54.9978 30.5961 56.0001 30.6C56.6667 30.6026 57.3263 30.7367 57.9411 30.9945C58.5559 31.2524 59.1138 31.6289 59.5828 32.1026C60.0519 32.5764 60.4229 33.1379 60.6747 33.7552C60.9265 34.3725 61.054 35.0334 61.0501 35.7Z" fill="#F9AC50"/>
<path d="M59.8801 35.7C59.8801 36.4722 59.6508 37.227 59.2214 37.8688C58.792 38.5106 58.1817 39.0105 57.4679 39.305C56.7541 39.5996 55.9689 39.6757 55.2119 39.5236C54.4548 39.3715 53.7599 38.998 53.2153 38.4506C52.6707 37.9032 52.3008 37.2064 52.1526 36.4486C52.0044 35.6907 52.0845 34.9059 52.3827 34.1937C52.681 33.4814 53.184 32.8737 53.828 32.4476C54.4719 32.0214 55.2279 31.7961 56.0001 31.8C57.0309 31.8053 58.0178 32.2185 58.7449 32.9494C59.472 33.6802 59.8801 34.6691 59.8801 35.7Z" fill="#3A2127"/>
<path d="M60.6094 32.24L59.8794 30.41L59.1394 32.24L57.3594 32.92L59.1194 33.48L59.8794 35.43L60.6394 33.48L62.3894 32.92L60.6094 32.24Z" fill="white"/>
<path d="M55.4494 38.16C55.3653 38.2642 55.2611 38.3505 55.143 38.4136C55.0249 38.4768 54.8953 38.5156 54.7619 38.5277C54.6286 38.5398 54.4941 38.525 54.3665 38.4842C54.239 38.4434 54.121 38.3774 54.0194 38.29C53.8955 38.2371 53.7834 38.1597 53.6901 38.0623C53.5969 37.965 53.5242 37.8499 53.4766 37.7238C53.4289 37.5977 53.4073 37.4632 53.413 37.3286C53.4186 37.1939 53.4514 37.0617 53.5094 36.94C53.7694 36.53 54.0294 37.08 54.5694 37.42C55.1094 37.76 55.7094 37.76 55.4494 38.16Z" fill="white"/>
<path d="M47.0007 40.69C47.0007 41.64 43.3607 44.26 43.3607 44.26C43.3607 44.26 39.7207 41.64 39.7207 40.69C39.7889 39.7712 40.202 38.9122 40.8771 38.2853C41.5522 37.6584 42.4394 37.31 43.3607 37.31C44.282 37.31 45.1692 37.6584 45.8444 38.2853C46.5195 38.9122 46.9326 39.7712 47.0007 40.69Z" fill="#F9AC50"/>
<path d="M43.3605 44.76L43.1205 44.59C41.9705 43.77 39.3105 41.74 39.3105 40.69C39.3258 40.5935 39.3749 40.5056 39.4492 40.4422C39.5234 40.3787 39.6179 40.3438 39.7156 40.3438C39.8133 40.3438 39.9077 40.3787 39.9819 40.4422C40.0562 40.5056 40.1053 40.5935 40.1205 40.69C40.1205 41.09 41.6005 42.47 43.3605 43.76C45.1205 42.47 46.5706 41.09 46.5906 40.69C46.5918 40.6366 46.6038 40.584 46.6257 40.5353C46.6477 40.4866 46.6791 40.4427 46.7183 40.4064C46.7574 40.37 46.8034 40.3419 46.8536 40.3236C46.9038 40.3053 46.9572 40.2973 47.0106 40.3C47.114 40.3 47.2132 40.3411 47.2863 40.4142C47.3595 40.4874 47.4006 40.5866 47.4006 40.69C47.4006 41.69 44.7406 43.77 43.5906 44.59L43.3605 44.76Z" fill="#3A2127"/>
<path d="M22.5104 54.15L17.9004 57C17.9004 57 22.0004 57.84 22.5104 54.15Z" fill="#E2C4A3"/>
<path d="M21.1797 62.72L25.2297 57C25.2297 57 26.1097 62.45 21.1797 62.72Z" fill="#E2C4A3"/>
<path d="M25 68.98L28 58.6C28 58.6 31.64 65.54 25 68.98Z" fill="#E2C4A3"/>
<path d="M64.5195 54.15L69.1295 57C69.1295 57 65.0495 57.84 64.5195 54.15Z" fill="#E2C4A3"/>
<path d="M65.8492 62.72L61.7992 57C61.7992 57 60.9192 62.45 65.8492 62.72Z" fill="#E2C4A3"/>
<path d="M61.9995 68.98L58.9995 58.6C58.9995 58.6 55.3895 65.54 61.9995 68.98Z" fill="#E2C4A3"/>
<path d="M26.4498 40.79L22.8398 43.87C22.8398 43.87 26.9998 43.77 26.4498 40.79Z" fill="#E2C4A3"/>
<path d="M29.8111 43.09L27.6211 48.34C27.6211 48.34 31.3911 46.86 29.8111 43.09Z" fill="#E2C4A3"/>
<path d="M60.921 40.79L64.521 43.87C64.521 43.87 60.361 43.77 60.921 40.79Z" fill="#E2C4A3"/>
<path d="M57.5603 43.09L59.7403 48.34C59.7403 48.34 56.0003 46.86 57.5603 43.09Z" fill="#E2C4A3"/>
</svg>
