<svg width="85" height="84" viewBox="0 0 85 84" fill="none" xmlns="http://www.w3.org/2000/svg">
<rect width="84" height="84" transform="translate(0.994141)" fill="#EFF6FB"/>
<path d="M69.6998 24.6301V74.0901C69.6971 75.2738 69.225 76.4083 68.387 77.2444C67.549 78.0805 66.4135 78.5501 65.2297 78.5501H20.2297C19.0459 78.5501 17.9105 78.0805 17.0725 77.2444C16.2345 76.4083 15.7624 75.2738 15.7598 74.0901V24.6301H69.6998Z" fill="white"/>
<path d="M32.8595 8.20004V24.63H15.8595C15.8595 24.63 14.2995 7.93004 30.3895 6.00004C30.7003 5.9616 31.0156 5.98994 31.3145 6.08315C31.6134 6.17637 31.889 6.33231 32.1228 6.54057C32.3566 6.74882 32.5433 7.00458 32.6704 7.29076C32.7974 7.57694 32.8619 7.88694 32.8595 8.20004Z" fill="#3A2127"/>
<path d="M52.7501 8.20004V24.63H69.7501C69.7501 24.63 71.31 7.93004 55.22 6.00004C54.9093 5.9616 54.594 5.98994 54.295 6.08315C53.9961 6.17637 53.7206 6.33231 53.4868 6.54057C53.2529 6.74882 53.0663 7.00458 52.9392 7.29076C52.8122 7.57694 52.7477 7.88694 52.7501 8.20004Z" fill="#3A2127"/>
<path d="M43.2295 24.6301H15.7695V38.3701C16.6951 39.6287 17.9323 40.6246 19.3595 41.2601L36.5895 50.1301L39.2895 52.0401L42.2895 52.6301V52.8201L42.7895 52.7201L43.2795 52.8201V52.6301L46.2295 52.0401L48.9295 50.1301L66.1595 41.2601C67.5867 40.6246 68.824 39.6287 69.7495 38.3701V24.6301H43.2295Z" fill="#F46831"/>
<path d="M36.9996 42.47C36.9996 42.47 41.9996 33.12 32.0996 32.61L36.9996 42.47Z" fill="#FFEFE1"/>
<path d="M49.6096 42.47C49.6096 42.47 44.6096 33.12 54.4996 32.61L49.6096 42.47Z" fill="#FFEFE1"/>
<path d="M46.2994 52.1101C45.8622 51.6246 45.329 51.2352 44.7335 50.9665C44.1379 50.6978 43.4931 50.5557 42.8398 50.5491C42.1866 50.5425 41.539 50.6717 40.9382 50.9283C40.3374 51.1849 39.7963 51.5635 39.3494 52.0401C38.9288 52.5345 38.6953 53.161 38.6895 53.8101C38.6895 55.6201 40.5294 55.8101 42.7894 55.8101H43.2894C45.2894 55.8101 46.8995 55.4601 46.8995 53.8101C46.8931 53.1926 46.682 52.5947 46.2994 52.1101Z" fill="#3A2127"/>
<path d="M51.9995 57.91C52.0087 57.8515 52.0051 57.7917 51.989 57.7347C51.9729 57.6777 51.9446 57.6248 51.9061 57.5798C51.8676 57.5348 51.8199 57.4986 51.7661 57.4738C51.7122 57.449 51.6537 57.4362 51.5944 57.4362C51.5352 57.4362 51.4767 57.449 51.4229 57.4738C51.369 57.4986 51.3213 57.5348 51.2828 57.5798C51.2443 57.6248 51.216 57.6777 51.1999 57.7347C51.1838 57.7917 51.1802 57.8515 51.1895 57.91C51.1895 59.46 49.3895 60.73 47.1895 60.73C44.9895 60.73 43.1895 59.46 43.1895 57.91V55C43.1742 54.9036 43.1251 54.8157 43.0508 54.7522C42.9766 54.6887 42.8821 54.6539 42.7844 54.6539C42.6867 54.6539 42.5923 54.6887 42.5181 54.7522C42.4438 54.8157 42.3947 54.9036 42.3795 55V57.88C42.3795 59.43 40.5895 60.7 38.3795 60.7C36.1695 60.7 34.3795 59.43 34.3795 57.88C34.3887 57.8215 34.3851 57.7617 34.369 57.7047C34.3529 57.6477 34.3246 57.5948 34.2861 57.5498C34.2476 57.5048 34.1999 57.4686 34.1461 57.4438C34.0923 57.419 34.0337 57.4062 33.9744 57.4062C33.9152 57.4062 33.8567 57.419 33.8029 57.4438C33.7491 57.4686 33.7013 57.5048 33.6628 57.5498C33.6243 57.5948 33.596 57.6477 33.5799 57.7047C33.5638 57.7617 33.5602 57.8215 33.5695 57.88C33.5695 59.7 35.3594 61.2 37.6794 61.46C37.7377 62.7749 38.301 64.0166 39.252 64.9264C40.203 65.8362 41.4683 66.344 42.7844 66.344C44.1006 66.344 45.366 65.8362 46.317 64.9264C47.268 64.0166 47.8313 62.7749 47.8895 61.46C50.2495 61.24 51.9995 59.73 51.9995 57.91ZM42.7795 65.68C41.6663 65.6781 40.5972 65.2446 39.7971 64.4706C38.997 63.6966 38.5283 62.6425 38.4894 61.53C39.3293 61.5579 40.1625 61.3738 40.9124 60.9945C41.6622 60.6152 42.3043 60.0531 42.7795 59.36C43.2555 60.0545 43.8992 60.6176 44.6509 60.9969C45.4026 61.3763 46.238 61.5596 47.0795 61.53C47.036 62.6357 46.5699 63.6826 45.7773 64.4548C44.9847 65.227 43.9259 65.6655 42.8195 65.68H42.7795Z" fill="#3A2127"/>
<path d="M36.6502 50.1301C35.1613 50.7518 33.5984 51.1787 32.0002 51.4001C29.8062 51.7746 27.5502 51.4747 25.5302 50.5401C22.6902 49.0701 21.0502 46.0501 20.2002 43.8501C19.8701 43.0085 19.606 42.1426 19.4102 41.2601C20.1822 40.9311 20.9778 40.6604 21.7902 40.4501C24.0702 39.8401 27.6002 39.3501 30.5202 40.8501C32.5523 42.0247 34.1673 43.8041 35.1402 45.9401C35.8068 47.2724 36.3137 48.6788 36.6502 50.1301Z" fill="white"/>
<path d="M36.6511 50.53C36.558 50.53 36.4677 50.4983 36.395 50.4402C36.3223 50.382 36.2716 50.3008 36.2511 50.21C35.9288 48.7935 35.4386 47.4205 34.7911 46.12C33.8659 44.0529 32.3075 42.3335 30.3411 41.21C27.5811 39.79 24.2311 40.21 21.9111 40.84C21.1176 41.0401 20.3418 41.3043 19.5911 41.63C19.4956 41.661 19.392 41.6558 19.3 41.6155C19.208 41.5751 19.1341 41.5024 19.0921 41.4112C19.0502 41.3199 19.0432 41.2164 19.0725 41.1204C19.1018 41.0243 19.1654 40.9423 19.2511 40.89C20.0468 40.555 20.8656 40.2776 21.7011 40.06C24.1611 39.41 27.7011 38.95 30.7011 40.49C32.822 41.6901 34.5038 43.5366 35.5011 45.76C36.1847 47.123 36.7018 48.5634 37.0411 50.05C37.0591 50.1558 37.0361 50.2644 36.9766 50.3537C36.9171 50.4429 36.8256 50.506 36.7211 50.53H36.6511Z" fill="#3A2127"/>
<path d="M34.2092 48.4501C33.65 49.5546 32.902 50.5529 31.9992 51.4001C29.8052 51.7746 27.5492 51.4747 25.5292 50.5401C22.6892 49.0701 21.0492 46.0501 20.1992 43.8501C20.4091 43.1001 20.6938 42.3731 21.0492 41.6801C21.2721 41.2563 21.5192 40.8456 21.7892 40.4501C24.0692 39.8401 27.5992 39.3501 30.5192 40.8501C32.5513 42.0247 34.1663 43.8041 35.1392 45.9401C34.9344 46.812 34.622 47.6552 34.2092 48.4501Z" fill="#3A2127"/>
<path d="M23.0698 45.42C22.7195 45.3429 22.4125 45.1334 22.2131 44.8352C22.0137 44.537 21.9373 44.1733 21.9998 43.82C21.9998 42.97 22.6098 42.32 23.2598 42.36C23.9098 42.4 23.4198 43.06 23.3698 43.9C23.3198 44.74 23.7098 45.46 23.0698 45.42Z" fill="white"/>
<path d="M19.4196 48.1301C19.336 48.1304 19.2544 48.1046 19.1862 48.0561C19.1181 48.0077 19.0668 47.9391 19.0396 47.8601C19.0223 47.8102 19.0151 47.7574 19.0183 47.7047C19.0215 47.652 19.0352 47.6004 19.0584 47.553C19.0817 47.5056 19.1141 47.4632 19.1538 47.4284C19.1934 47.3936 19.2396 47.367 19.2896 47.3501L21.6297 46.5401C21.6795 46.5228 21.7323 46.5155 21.785 46.5188C21.8378 46.522 21.8893 46.5356 21.9367 46.5588C21.9841 46.5821 22.0265 46.6145 22.0613 46.6542C22.0961 46.6939 22.1228 46.74 22.1397 46.7901C22.1749 46.8922 22.1684 47.0041 22.1216 47.1015C22.0748 47.1989 21.9914 47.2738 21.8897 47.3101L19.5496 48.1101C19.5083 48.1263 19.4639 48.1331 19.4196 48.1301Z" fill="#3A2127"/>
<path d="M49 50.1301C50.4857 50.751 52.0452 51.1778 53.64 51.4001C55.834 51.7746 58.09 51.4747 60.11 50.5401C62.95 49.0701 64.58 46.0501 65.43 43.8501C65.7657 43.0096 66.0332 42.1434 66.23 41.2601C65.4579 40.9311 64.6624 40.6604 63.85 40.4501C61.56 39.8401 58.04 39.3501 55.12 40.8501C53.0858 42.0221 51.4701 43.8022 50.5 45.9401C49.8315 47.2705 49.3278 48.6776 49 50.1301Z" fill="white"/>
<path d="M48.9998 50.53H48.9197C48.8152 50.506 48.7238 50.4429 48.6643 50.3537C48.6048 50.2644 48.5817 50.1558 48.5997 50.05C48.9391 48.5634 49.4562 47.123 50.1398 45.76C51.1339 43.5377 52.8122 41.6912 54.9298 40.49C57.9298 38.95 61.4898 39.41 63.9298 40.06C64.7623 40.2765 65.5779 40.5539 66.3698 40.89C66.4186 40.9105 66.4628 40.9408 66.4996 40.9789C66.5364 41.0171 66.5651 41.0624 66.5838 41.112C66.6025 41.1616 66.6109 41.2145 66.6085 41.2675C66.6061 41.3204 66.5929 41.3723 66.5698 41.42C66.5491 41.4689 66.5189 41.5131 66.481 41.5502C66.443 41.5873 66.3981 41.6165 66.3488 41.636C66.2994 41.6555 66.2467 41.6651 66.1937 41.6641C66.1406 41.663 66.0883 41.6515 66.0397 41.63C65.2875 41.3084 64.5119 41.0443 63.7197 40.84C61.3997 40.22 58.0498 39.79 55.2798 41.21C53.3162 42.334 51.7612 44.0536 50.8398 46.12C50.1919 47.4213 49.6985 48.794 49.3698 50.21C49.3522 50.2968 49.3063 50.3753 49.2394 50.4332C49.1724 50.4911 49.0881 50.5251 48.9998 50.53Z" fill="#3A2127"/>
<path d="M51.3792 48.4501C51.9424 49.5521 52.6899 50.5498 53.5892 51.4001C55.7832 51.7746 58.0392 51.4747 60.0592 50.5401C62.8992 49.0701 64.5292 46.0501 65.3792 43.8501C65.1735 43.0987 64.8886 42.3713 64.5292 41.6801C64.3097 41.2564 64.0659 40.8457 63.7992 40.4501C61.5092 39.8401 57.9892 39.3501 55.0692 40.8501C53.035 42.0221 51.4193 43.8022 50.4492 45.9401C50.6581 46.8108 50.9703 47.6534 51.3792 48.4501Z" fill="#3A2127"/>
<path d="M53.4292 47.7301C53.0789 47.653 52.7719 47.4434 52.5725 47.1452C52.373 46.847 52.2966 46.4833 52.3592 46.1301C52.3592 45.2801 52.9792 44.6201 53.6192 44.6601C54.2592 44.7001 53.7892 45.3601 53.7292 46.2101C53.6692 47.0601 54.0692 47.7701 53.4292 47.7301Z" fill="white"/>
<path d="M65.0901 48.13C65.0474 48.1406 65.0028 48.1406 64.9601 48.13L62.6201 47.33C62.5183 47.2938 62.435 47.2188 62.3882 47.1214C62.3413 47.0241 62.3348 46.9122 62.3701 46.81C62.387 46.76 62.4136 46.7138 62.4485 46.6741C62.4833 46.6344 62.5256 46.602 62.573 46.5788C62.6204 46.5556 62.672 46.5419 62.7247 46.5387C62.7774 46.5355 62.8302 46.5427 62.8801 46.56L65.2201 47.37C65.2701 47.3869 65.3163 47.4135 65.356 47.4484C65.3957 47.4832 65.4281 47.5255 65.4513 47.573C65.4746 47.6204 65.4882 47.6719 65.4914 47.7246C65.4946 47.7773 65.4874 47.8301 65.4701 47.88C65.4396 47.9554 65.3869 48.0196 65.3191 48.0643C65.2512 48.109 65.1714 48.1319 65.0901 48.13Z" fill="#3A2127"/>
</svg>
