<svg width="85" height="84" viewBox="0 0 85 84" fill="none" xmlns="http://www.w3.org/2000/svg">
<rect width="84" height="84" transform="translate(0.994141)" fill="#EFF6FB"/>
<path d="M69.9141 33.49V75.25C69.9141 76.4338 69.4446 77.5693 68.6084 78.4073C67.7723 79.2453 66.6379 79.7174 65.4541 79.72H20.4541C19.2703 79.7174 18.136 79.2453 17.2998 78.4073C16.4637 77.5693 15.9941 76.4338 15.9941 75.25V34.2C15.9941 31.9722 16.8791 29.8357 18.4544 28.2603C20.0297 26.685 22.1663 25.8 24.3941 25.8H62.2241C63.9827 25.7995 65.6884 26.4016 67.0568 27.5062C68.4252 28.6107 69.3737 30.1509 69.7441 31.87C69.8571 32.4026 69.9141 32.9456 69.9141 33.49Z" fill="#FFE7CF"/>
<path d="M34.5137 58.58V73.97C34.5137 78.51 41.3337 78.76 41.5137 74.22C41.6737 71.1 40.4037 66.09 36.3437 58.13C36.2301 57.9576 36.0658 57.8245 35.8736 57.7492C35.6813 57.6738 35.4704 57.6599 35.2699 57.7092C35.0693 57.7585 34.889 57.8687 34.7536 58.0246C34.6182 58.1805 34.5344 58.3746 34.5137 58.58Z" fill="#EA363F"/>
<path d="M51.0847 58.5801V73.9701C51.0847 78.5101 44.2647 78.7601 44.0347 74.2201C43.8747 71.1001 45.1447 66.0901 49.2047 58.1301C49.3093 57.9359 49.4752 57.7818 49.6765 57.6917C49.8778 57.6016 50.1033 57.5806 50.3178 57.632C50.5323 57.6833 50.7238 57.8041 50.8625 57.9756C51.0012 58.1471 51.0793 58.3596 51.0847 58.5801Z" fill="#EA363F"/>
<path d="M48.3249 45.8C47.8487 45.8017 47.3771 45.8933 46.9349 46.07C47.0108 45.5568 47.0509 45.0389 47.0549 44.52C47.0549 40.76 45.1449 37.72 42.7949 37.72C40.4449 37.72 38.5449 40.72 38.5449 44.52C38.5449 48.32 40.4549 51.31 42.7949 51.31C43.5138 51.3018 44.2058 51.0356 44.7449 50.56C44.938 51.2231 45.3118 51.8193 45.8245 52.2819C46.3372 52.7445 46.9685 53.0553 47.6479 53.1794C48.3272 53.3036 49.0276 53.2362 49.6708 52.9848C50.314 52.7334 50.8745 52.3079 51.2896 51.756C51.7047 51.2041 51.9579 50.5476 52.021 49.8599C52.0841 49.1722 51.9545 48.4806 51.6468 47.8624C51.3391 47.2441 50.8654 46.7238 50.2787 46.3596C49.692 45.9953 49.0155 45.8016 48.3249 45.8Z" fill="#EA363F"/>
<path d="M40.514 50.22L33.834 57.58C33.834 57.58 35.324 65.44 42.764 68.18C50.214 65.44 51.704 57.58 51.704 57.58L45.054 50.22C44.7655 49.9054 44.4147 49.6542 44.0239 49.4823C43.6331 49.3105 43.2109 49.2217 42.784 49.2217C42.3571 49.2217 41.9349 49.3105 41.5441 49.4823C41.1533 49.6542 40.8025 49.9054 40.514 50.22Z" fill="#F9AC50"/>
<path d="M38.7148 54.4L41.7148 51.17C41.7148 51.17 41.3648 55.14 38.7148 54.4Z" fill="#3A2127"/>
<path d="M46.8848 54.4L43.8848 51.17C43.8848 51.17 44.2348 55.14 46.8848 54.4Z" fill="#3A2127"/>
<path d="M62.2246 25.8001H61.8346C62.1534 24.7394 62.3151 23.6377 62.3146 22.5301C62.3146 16.7501 57.9846 12.0601 52.6346 12.0601C51.3718 12.0664 50.1236 12.3304 48.9664 12.836C47.8091 13.3415 46.7673 14.0779 45.9046 15.0001C44.0946 9.16006 39.2946 5.00006 33.6546 5.00006C26.4546 5.00006 20.6546 11.7901 20.6546 20.1701C20.6375 23.1757 21.4247 26.1312 22.9346 28.7301C23.6316 30.0931 24.6139 31.2902 25.8146 32.2401C27.0488 33.343 28.4901 34.1895 30.0546 34.7301C34.7946 36.6101 42.4146 37.2301 54.3246 33.0101C54.3246 33.0101 66.0046 29.3001 69.7746 31.8801C69.405 30.1541 68.453 28.6077 67.0782 27.5006C65.7034 26.3935 63.9897 25.7931 62.2246 25.8001Z" fill="#EA363F"/>
<path d="M32.9434 45.7601L21.9434 36.7601C21.9434 36.7601 30.0134 33.2401 32.9434 45.7601Z" fill="#F9AC50"/>
<path d="M28.7634 45.0701C28.7634 45.0701 24.3334 39.0701 18.5234 42.5201L28.7634 45.0701Z" fill="#F9AC50"/>
<path d="M52.7051 45.7601L63.7051 36.7601C63.7051 36.7601 55.6351 33.2401 52.7051 45.7601Z" fill="#F9AC50"/>
<path d="M56.8848 45.0701C56.8848 45.0701 61.3048 39.0701 67.1248 42.5201L56.8848 45.0701Z" fill="#F9AC50"/>
<path d="M27.0145 60.32C30.5767 60.32 33.4645 57.4323 33.4645 53.87C33.4645 50.3078 30.5767 47.42 27.0145 47.42C23.4522 47.42 20.5645 50.3078 20.5645 53.87C20.5645 57.4323 23.4522 60.32 27.0145 60.32Z" fill="white"/>
<path d="M27.0145 59.32C30.0244 59.32 32.4645 56.88 32.4645 53.87C32.4645 50.8601 30.0244 48.42 27.0145 48.42C24.0045 48.42 21.5645 50.8601 21.5645 53.87C21.5645 56.88 24.0045 59.32 27.0145 59.32Z" fill="#3A2127"/>
<path d="M31.6148 49.34L30.7748 47.23L29.9348 49.34L27.8848 50.13L29.8948 50.77L30.7748 53.02L31.6448 50.77L33.6648 50.13L31.6148 49.34Z" fill="white"/>
<path d="M26.1836 57.95C25.9644 58.1439 25.688 58.2612 25.3963 58.2844C25.1045 58.3076 24.8131 58.2353 24.566 58.0784C24.3189 57.9216 24.1295 57.6887 24.0262 57.4148C23.923 57.141 23.9115 56.841 23.9936 56.56C24.2836 56.1 24.5736 56.72 25.1836 57.1C25.7936 57.48 26.4736 57.49 26.1836 57.95Z" fill="white"/>
<path d="M58.7234 60.32C62.2857 60.32 65.1734 57.4323 65.1734 53.87C65.1734 50.3078 62.2857 47.42 58.7234 47.42C55.1612 47.42 52.2734 50.3078 52.2734 53.87C52.2734 57.4323 55.1612 60.32 58.7234 60.32Z" fill="white"/>
<path d="M58.7234 59.32C61.7334 59.32 64.1734 56.88 64.1734 53.87C64.1734 50.8601 61.7334 48.42 58.7234 48.42C55.7135 48.42 53.2734 50.8601 53.2734 53.87C53.2734 56.88 55.7135 59.32 58.7234 59.32Z" fill="#3A2127"/>
<path d="M63.5249 49.34L62.6849 47.23L61.8449 49.34L59.7949 50.13L61.8049 50.77L62.6849 53.02L63.5549 50.77L65.5749 50.13L63.5249 49.34Z" fill="white"/>
<path d="M58.0938 57.95C57.8745 58.1439 57.5982 58.2612 57.3064 58.2844C57.0147 58.3076 56.7233 58.2353 56.4762 58.0784C56.2291 57.9216 56.0396 57.6887 55.9364 57.4148C55.8331 57.141 55.8217 56.841 55.9038 56.56C56.1938 56.1 56.4838 56.72 57.0938 57.1C57.7038 57.48 58.3838 57.49 58.0938 57.95Z" fill="white"/>
</svg>
