<svg width="85" height="84" viewBox="0 0 85 84" fill="none" xmlns="http://www.w3.org/2000/svg">
<rect width="84" height="84" transform="translate(0.994141)" fill="#EFF6FB"/>
<path d="M72.5801 26.84C72.1852 27.2401 71.7679 27.6174 71.3301 27.97C70.6993 28.468 70.0306 28.916 69.3301 29.31C65.0401 31.79 60.1601 31.78 57.5901 29.2C56.0106 27.694 54.8936 25.7687 54.3701 23.65C53.9888 22.0025 54.1393 20.2766 54.8001 18.72C55.2678 17.6361 55.9478 16.6568 56.8001 15.84C60.1201 12.52 67.5801 11.9 71.8001 11.84C72.7002 11.8286 73.5716 12.1568 74.2406 12.7591C74.9096 13.3614 75.3272 14.1936 75.4101 15.09C75.7601 18.47 75.6501 23.77 72.5801 26.84Z" fill="#FFE2C2"/>
<path d="M38.6407 20.62V15.05C38.5922 14.132 38.1933 13.2675 37.5263 12.6348C36.8593 12.0021 35.975 11.6494 35.0557 11.6494C34.1364 11.6494 33.2521 12.0021 32.5851 12.6348C31.9181 13.2675 31.5192 14.132 31.4707 15.05V20.62H38.6407Z" fill="#FFE2C2"/>
<path d="M54.7911 20.62V15.05C54.7426 14.132 54.3437 13.2675 53.6767 12.6348C53.0097 12.0021 52.1254 11.6494 51.2061 11.6494C50.2868 11.6494 49.4024 12.0021 48.7355 12.6348C48.0685 13.2675 47.6696 14.132 47.6211 15.05V20.62H54.7911Z" fill="#753936"/>
<path d="M69.3694 23.19V68.19C69.3694 69.3738 68.8999 70.5092 68.0638 71.3472C67.2276 72.1852 66.0932 72.6573 64.9095 72.66H19.9095C18.7239 72.66 17.587 72.189 16.7487 71.3507C15.9104 70.5125 15.4395 69.3755 15.4395 68.19V23.19C15.4395 22.0045 15.9104 20.8675 16.7487 20.0292C17.587 19.1909 18.7239 18.72 19.9095 18.72H64.9095C66.0932 18.7226 67.2276 19.1947 68.0638 20.0327C68.8999 20.8707 69.3694 22.0062 69.3694 23.19Z" fill="#FFE2C2"/>
<path d="M39.8295 70.81C39.8296 71.4253 39.7896 72.0399 39.7094 72.65H19.9095C18.7239 72.65 17.587 72.179 16.7487 71.3407C15.9104 70.5025 15.4395 69.3655 15.4395 68.18V52.53H15.6595C28.9995 52.53 39.8295 60.72 39.8295 70.81Z" fill="#753936"/>
<path d="M72.5793 26.84C72.1844 27.2401 71.767 27.6174 71.3293 27.97C70.6984 28.468 70.0297 28.916 69.3293 29.31V41.22C67.2889 41.4962 65.2184 41.4591 63.1893 41.11C54.9393 39.77 42.3693 31.35 42.3693 21.54C42.3651 20.5934 42.4555 19.6487 42.6393 18.72H54.7993C55.267 17.6361 55.947 16.6568 56.7993 15.84C60.1193 12.52 67.5793 11.9 71.7993 11.84C72.6994 11.8286 73.5708 12.1568 74.2398 12.7591C74.9088 13.3614 75.3264 14.1936 75.4093 15.09C75.7593 18.47 75.6493 23.77 72.5793 26.84Z" fill="#753936"/>
<path d="M72.2207 14.88C72.2207 14.88 68.4907 15.61 66.7207 17.38C64.9507 19.15 67.0207 24.07 63.2207 26.73C63.2207 26.73 70.4907 28.27 72.2207 14.88Z" fill="#FFB3A1"/>
<path d="M28.671 51.79C32.4707 51.79 35.551 48.7097 35.551 44.91C35.551 41.1103 32.4707 38.03 28.671 38.03C24.8713 38.03 21.791 41.1103 21.791 44.91C21.791 48.7097 24.8713 51.79 28.671 51.79Z" fill="white"/>
<path d="M35.5507 45.31C35.4446 45.31 35.3429 45.2678 35.2679 45.1928C35.1928 45.1178 35.1507 45.0161 35.1507 44.91C35.1507 43.1861 34.4659 41.5328 33.2469 40.3138C32.0279 39.0948 30.3746 38.41 28.6507 38.41C26.9268 38.41 25.2735 39.0948 24.0545 40.3138C22.8355 41.5328 22.1507 43.1861 22.1507 44.91C22.1507 45.0161 22.1086 45.1178 22.0335 45.1928C21.9585 45.2678 21.8568 45.31 21.7507 45.31C21.6446 45.31 21.5429 45.2678 21.4679 45.1928C21.3928 45.1178 21.3507 45.0161 21.3507 44.91C21.3144 43.9306 21.476 42.9539 21.8257 42.0384C22.1755 41.1229 22.7063 40.2873 23.3863 39.5816C24.0664 38.8759 24.8817 38.3145 25.7837 37.9311C26.6856 37.5477 27.6556 37.35 28.6357 37.35C29.6158 37.35 30.5858 37.5477 31.4877 37.9311C32.3897 38.3145 33.205 38.8759 33.8851 39.5816C34.5651 40.2873 35.0959 41.1229 35.4457 42.0384C35.7954 42.9539 35.957 43.9306 35.9207 44.91C35.921 45.0111 35.883 45.1085 35.8143 45.1827C35.7457 45.2569 35.6515 45.3024 35.5507 45.31Z" fill="#3A2127"/>
<path d="M22.8496 44.91C22.8496 46.0611 23.1909 47.1863 23.8305 48.1434C24.47 49.1005 25.3789 49.8464 26.4424 50.2869C27.5059 50.7274 28.6761 50.8427 29.805 50.6181C30.934 50.3936 31.971 49.8393 32.785 49.0253C33.5989 48.2114 34.1532 47.1744 34.3778 46.0454C34.6024 44.9164 34.4871 43.7462 34.0466 42.6828C33.6061 41.6193 32.8601 40.7103 31.903 40.0708C30.9459 39.4313 29.8207 39.09 28.6696 39.09C27.126 39.09 25.6457 39.7031 24.5543 40.7946C23.4628 41.8861 22.8496 43.3664 22.8496 44.91Z" fill="#3A2127"/>
<path d="M22.6606 41.65C22.5642 41.6518 22.4709 41.6159 22.4006 41.55L20.5206 39.94C20.4473 39.8652 20.4062 39.7647 20.4062 39.66C20.4062 39.5553 20.4473 39.4547 20.5206 39.38C20.597 39.306 20.6992 39.2647 20.8056 39.2647C20.9119 39.2647 21.0141 39.306 21.0906 39.38L22.9706 40.99C23.0445 41.0664 23.0858 41.1686 23.0858 41.275C23.0858 41.3813 23.0445 41.4835 22.9706 41.56C22.8829 41.6291 22.7717 41.6614 22.6606 41.65Z" fill="#3A2127"/>
<path d="M25.8196 39C25.7415 38.9994 25.6652 38.9765 25.5996 38.934C25.5341 38.8914 25.482 38.8311 25.4496 38.76L24.4496 36.52C24.426 36.4722 24.4122 36.4201 24.4089 36.3669C24.4057 36.3136 24.4132 36.2603 24.4309 36.21C24.4486 36.1596 24.4762 36.1134 24.512 36.0739C24.5479 36.0344 24.5913 36.0025 24.6396 35.98C24.7382 35.9382 24.8489 35.9357 24.9493 35.9729C25.0497 36.01 25.132 36.0841 25.1796 36.18L26.1796 38.42C26.2214 38.5185 26.2239 38.6293 26.1867 38.7296C26.1496 38.83 26.0755 38.9124 25.9796 38.96C25.9291 38.9826 25.8749 38.9962 25.8196 39Z" fill="#3A2127"/>
<path d="M31.6792 39.13C31.6167 39.1448 31.5516 39.1448 31.4892 39.13C31.4412 39.1057 31.3986 39.0721 31.364 39.031C31.3293 38.99 31.3032 38.9424 31.2874 38.8911C31.2715 38.8397 31.2661 38.7857 31.2716 38.7323C31.2771 38.6788 31.2932 38.627 31.3192 38.58L32.4792 36.39C32.5041 36.3433 32.538 36.3021 32.5789 36.2686C32.6198 36.235 32.6669 36.2099 32.7175 36.1946C32.7681 36.1793 32.8212 36.1741 32.8738 36.1793C32.9265 36.1845 32.9775 36.2 33.0242 36.225C33.0708 36.2499 33.112 36.2838 33.1456 36.3247C33.1791 36.3656 33.2042 36.4127 33.2195 36.4633C33.2349 36.5139 33.2401 36.567 33.2348 36.6196C33.2296 36.6723 33.2141 36.7233 33.1892 36.77L31.9992 38.91C31.9697 38.9714 31.9246 39.024 31.8685 39.0626C31.8123 39.1012 31.7471 39.1244 31.6792 39.13Z" fill="#3A2127"/>
<path d="M34.6905 42C34.6143 42.0021 34.5393 41.9814 34.4751 41.9404C34.4109 41.8993 34.3605 41.84 34.3305 41.77C34.3068 41.7222 34.293 41.6701 34.2898 41.6169C34.2866 41.5636 34.294 41.5103 34.3117 41.4599C34.3294 41.4096 34.357 41.3634 34.3929 41.3239C34.4287 41.2844 34.4721 41.2524 34.5205 41.23L36.7605 40.23C36.8084 40.207 36.8604 40.1937 36.9135 40.1908C36.9666 40.1879 37.0197 40.1955 37.0698 40.2131C37.12 40.2308 37.1662 40.2581 37.2057 40.2936C37.2453 40.3291 37.2775 40.372 37.3005 40.42C37.3235 40.4679 37.3368 40.5199 37.3397 40.573C37.3426 40.626 37.335 40.6792 37.3173 40.7293C37.2997 40.7795 37.2723 40.8256 37.2368 40.8652C37.2014 40.9048 37.1584 40.937 37.1105 40.96L34.8605 42C34.8043 42.0103 34.7467 42.0103 34.6905 42Z" fill="#3A2127"/>
<path d="M26.9993 41C26.9993 40.28 27.7793 39.7 28.7293 39.71C29.1182 39.6791 29.5047 39.7941 29.8134 40.0326C30.1221 40.2711 30.331 40.6159 30.3993 41C30.3993 41.72 29.6193 41.23 28.6693 41.22C27.7193 41.21 26.9393 41.72 26.9993 41Z" fill="white"/>
<path d="M57.4796 51.79C61.2793 51.79 64.3596 48.7097 64.3596 44.91C64.3596 41.1103 61.2793 38.03 57.4796 38.03C53.6799 38.03 50.5996 41.1103 50.5996 44.91C50.5996 48.7097 53.6799 51.79 57.4796 51.79Z" fill="white"/>
<path d="M64.3695 45.31C64.3162 45.3113 64.2631 45.302 64.2134 45.2825C64.1637 45.263 64.1184 45.2337 64.0802 45.1964C64.042 45.1591 64.0116 45.1146 63.9909 45.0654C63.9702 45.0162 63.9595 44.9634 63.9595 44.91C63.9595 43.1861 63.2747 41.5328 62.0557 40.3138C60.8367 39.0948 59.1834 38.41 57.4595 38.41C55.7356 38.41 54.0823 39.0948 52.8633 40.3138C51.6444 41.5328 50.9595 43.1861 50.9595 44.91C50.9443 45.0065 50.8952 45.0944 50.8209 45.1578C50.7467 45.2213 50.6522 45.2561 50.5545 45.2561C50.4569 45.2561 50.3624 45.2213 50.2881 45.1578C50.2139 45.0944 50.1647 45.0065 50.1495 44.91C50.1132 43.9306 50.2748 42.9539 50.6246 42.0384C50.9743 41.1229 51.5051 40.2873 52.1851 39.5816C52.8652 38.8759 53.6806 38.3145 54.5825 37.9311C55.4845 37.5477 56.4545 37.35 57.4345 37.35C58.4146 37.35 59.3846 37.5477 60.2865 37.9311C61.1885 38.3145 62.0039 38.8759 62.6839 39.5816C63.364 40.2873 63.8947 41.1229 64.2445 42.0384C64.5943 42.9539 64.7558 43.9306 64.7195 44.91C64.7203 45.008 64.6851 45.1028 64.6206 45.1765C64.5561 45.2503 64.4667 45.2977 64.3695 45.31Z" fill="#3A2127"/>
<path d="M51.6699 44.91C51.6699 46.0615 52.0115 47.1871 52.6515 48.1444C53.2914 49.1017 54.201 49.8477 55.265 50.2879C56.3291 50.7281 57.4998 50.8428 58.629 50.6174C59.7583 50.392 60.7953 49.8367 61.6088 49.0218C62.4224 48.2069 62.9759 47.1689 63.1993 46.0393C63.4228 44.9096 63.3061 43.7391 62.864 42.6758C62.422 41.6125 61.6745 40.7043 60.7161 40.066C59.7577 39.4277 58.6314 39.088 57.4799 39.09C56.7161 39.09 55.9598 39.2406 55.2542 39.5332C54.5487 39.8258 53.9077 40.2547 53.3681 40.7952C52.8285 41.3358 52.4007 41.9775 52.1093 42.6835C51.8179 43.3896 51.6686 44.1462 51.6699 44.91Z" fill="#3A2127"/>
<path d="M51.4695 41.65C51.3734 41.6498 51.2809 41.6142 51.2095 41.55L49.3295 39.94C49.292 39.9036 49.2621 39.8601 49.2418 39.812C49.2214 39.7639 49.2109 39.7122 49.2109 39.66C49.2109 39.6077 49.2214 39.556 49.2418 39.5079C49.2621 39.4599 49.292 39.4163 49.3295 39.38C49.4059 39.306 49.5081 39.2647 49.6145 39.2647C49.7208 39.2647 49.823 39.306 49.8995 39.38L51.7795 40.99C51.8173 41.0272 51.8473 41.0716 51.8678 41.1205C51.8882 41.1694 51.8988 41.2219 51.8988 41.275C51.8988 41.328 51.8882 41.3805 51.8678 41.4295C51.8473 41.4784 51.8173 41.5227 51.7795 41.56C51.7366 41.5952 51.687 41.6213 51.6337 41.6368C51.5804 41.6522 51.5245 41.6567 51.4695 41.65Z" fill="#3A2127"/>
<path d="M54.6299 39C54.5532 38.9987 54.4785 38.9754 54.4146 38.9328C54.3508 38.8903 54.3006 38.8303 54.2699 38.76L53.2199 36.52C53.1756 36.4217 53.1717 36.31 53.2091 36.2089C53.2465 36.1079 53.3223 36.0256 53.4199 35.98C53.4678 35.9582 53.5195 35.9461 53.5721 35.9444C53.6247 35.9427 53.6771 35.9514 53.7264 35.97C53.7756 35.9886 53.8207 36.0167 53.859 36.0527C53.8974 36.0887 53.9283 36.132 53.9499 36.18L54.9499 38.42C54.9942 38.5182 54.9981 38.6299 54.9606 38.731C54.9232 38.832 54.8475 38.9143 54.7499 38.96C54.7119 38.9786 54.6715 38.9921 54.6299 39Z" fill="#3A2127"/>
<path d="M60.4907 39.13C60.4204 39.1294 60.3515 39.1108 60.2906 39.0759C60.2296 39.0411 60.1786 38.9911 60.1424 38.9309C60.1063 38.8707 60.0862 38.8022 60.0842 38.732C60.0821 38.6617 60.0981 38.5922 60.1307 38.5299L61.2907 36.3399C61.3414 36.2475 61.4266 36.1788 61.5277 36.1488C61.6289 36.1188 61.7378 36.13 61.8307 36.1799C61.8783 36.2032 61.9207 36.2358 61.9553 36.276C61.9898 36.3161 62.0159 36.3629 62.0318 36.4134C62.0477 36.4639 62.0531 36.5172 62.0478 36.5699C62.0424 36.6226 62.0264 36.6736 62.0007 36.72L60.8507 38.91C60.8154 38.9751 60.7635 39.0298 60.7003 39.0684C60.6371 39.1071 60.5648 39.1283 60.4907 39.13Z" fill="#3A2127"/>
<path d="M63.501 41.9999C63.4252 42.0008 63.3507 41.9795 63.2867 41.9386C63.2228 41.8978 63.1722 41.8392 63.141 41.77C63.1174 41.7221 63.1036 41.6701 63.1003 41.6168C63.0971 41.5636 63.1046 41.5102 63.1223 41.4599C63.14 41.4096 63.1676 41.3633 63.2034 41.3238C63.2393 41.2843 63.2827 41.2524 63.331 41.2299L65.581 40.2299C65.6281 40.2065 65.6795 40.1928 65.732 40.1897C65.7845 40.1866 65.8371 40.1941 65.8866 40.2119C65.9361 40.2296 65.9815 40.2572 66.0201 40.293C66.0586 40.3287 66.0896 40.3719 66.111 40.4199C66.1347 40.4678 66.1485 40.5198 66.1517 40.5731C66.1549 40.6263 66.1475 40.6797 66.1298 40.73C66.1121 40.7803 66.0845 40.8266 66.0486 40.8661C66.0128 40.9055 65.9694 40.9375 65.921 40.96L63.681 41.9999C63.6214 42.0095 63.5607 42.0095 63.501 41.9999Z" fill="#3A2127"/>
<path d="M55.7599 41C55.7599 40.28 56.5399 39.7 57.4899 39.71C57.8918 39.6641 58.2958 39.7761 58.6167 40.0223C58.9376 40.2686 59.1503 40.6299 59.2099 41.03C59.2099 41.75 58.4299 41.26 57.4799 41.25C56.5299 41.24 55.7499 41.72 55.7599 41Z" fill="white"/>
<path d="M53.0806 46.15C53.0239 45.5398 52.7817 44.9617 52.3866 44.4933C51.9915 44.0249 51.4625 43.6887 50.8706 43.53C49.3506 43.01 47.8006 43.34 46.5906 45.53C45.5006 45.48 44.3906 45.46 43.2606 45.46C42.1306 45.46 41.0306 45.46 39.9406 45.53C38.7306 43.37 37.1806 43.04 35.6606 43.53C35.0688 43.6887 34.5397 44.0249 34.1446 44.4933C33.7495 44.9617 33.5073 45.5398 33.4506 46.15C26.4506 47.35 21.6406 50.15 21.6406 55.6C21.6406 63.32 31.3206 69.6 43.2606 69.6C55.2006 69.6 64.8906 63.34 64.8906 55.6C64.8906 50.17 60.0906 47.35 53.0806 46.15Z" fill="#FFB3A1"/>
<path d="M39.9995 50.1C39.2795 48 38.1995 47.64 37.1595 48C36.1195 48.36 35.4895 49.3 36.1595 51.4C36.8295 53.5 38.6595 55.93 39.7095 55.57C40.7595 55.21 40.7395 52.19 39.9995 50.1Z" fill="#ED4F63"/>
<path d="M46.5006 50.1C47.2206 48 48.2906 47.64 49.3406 48C50.3906 48.36 51.0106 49.3 50.3406 51.4C49.6706 53.5 47.8406 55.93 46.7906 55.57C45.7406 55.21 45.7806 52.19 46.5006 50.1Z" fill="#ED4F63"/>
<path d="M41.321 65.15C40.6713 65.1534 40.0311 64.9948 39.4581 64.6887C38.8851 64.3825 38.3974 63.9384 38.0391 63.3965C37.6808 62.8546 37.4631 62.2319 37.4059 61.5848C37.3486 60.9376 37.4534 60.2864 37.711 59.69C37.7314 59.6414 37.7611 59.5973 37.7985 59.5602C37.8359 59.5231 37.8802 59.4937 37.929 59.4738C37.9777 59.4538 38.0299 59.4436 38.0826 59.4439C38.1353 59.4441 38.1874 59.4547 38.236 59.475C38.2846 59.4954 38.3287 59.5251 38.3658 59.5625C38.4029 59.5999 38.4323 59.6442 38.4522 59.693C38.4722 59.7417 38.4824 59.7939 38.4821 59.8466C38.4819 59.8993 38.4714 59.9514 38.451 60C38.2759 60.3793 38.1787 60.7899 38.1653 61.2074C38.1519 61.625 38.2224 62.0409 38.3727 62.4307C38.5231 62.8205 38.7502 63.1761 39.0406 63.4764C39.3309 63.7767 39.6786 64.0157 40.0631 64.1791C40.4476 64.3426 40.8609 64.4271 41.2787 64.4278C41.6964 64.4285 42.1101 64.3452 42.4951 64.183C42.88 64.0208 43.2285 63.783 43.5198 63.4836C43.8112 63.1841 44.0394 62.8293 44.191 62.44C44.212 62.3914 44.2424 62.3474 44.2804 62.3106C44.3184 62.2737 44.3633 62.2447 44.4125 62.2252C44.4617 62.2057 44.5143 62.1961 44.5672 62.1969C44.6202 62.1978 44.6724 62.209 44.721 62.23C44.7696 62.251 44.8136 62.2814 44.8504 62.3194C44.8873 62.3574 44.9163 62.4023 44.9358 62.4515C44.9553 62.5007 44.9649 62.5533 44.9641 62.6062C44.9632 62.6592 44.952 62.7114 44.931 62.76C44.7305 63.2339 44.4382 63.6635 44.0709 64.0239C43.7036 64.3843 43.2686 64.6685 42.791 64.86C42.3236 65.0484 41.8249 65.1468 41.321 65.15Z" fill="#3A2127"/>
<path d="M29.4995 15.84C30.5422 16.8217 31.3103 18.0587 31.7277 19.4286C32.1452 20.7985 32.1975 22.2537 31.8795 23.65C31.3598 25.7679 30.2462 27.6934 28.6695 29.2C25.6695 32.2 19.6695 31.73 14.9695 27.97C14.5282 27.6143 14.1075 27.2337 13.7095 26.83C10.6395 23.76 10.5395 18.47 10.8595 15.08C10.9401 14.1827 11.357 13.3491 12.0266 12.7464C12.6961 12.1436 13.5687 11.8163 14.4695 11.83C18.7095 11.9 26.1795 12.52 29.4995 15.84Z" fill="#FFE2C2"/>
<path d="M14.0801 14.88C14.0801 14.88 17.8101 15.61 19.5801 17.38C21.3501 19.15 19.2801 24.07 23.0701 26.73C23.0701 26.73 15.8101 28.27 14.0801 14.88Z" fill="#FFB3A1"/>
</svg>
