<svg width="24" height="24" viewBox="0 0 24 24" fill="none" xmlns="http://www.w3.org/2000/svg">
<g clip-path="url(#clip0_311_7380)">
<path d="M17.6899 7.11403C17.1724 6.54909 16.368 5.78658 16.0257 7.5083C15.9093 8.0937 15.6374 8.54496 15.4044 8.90829C15.1532 7.63711 14.3976 6.32135 13.6855 5.43421C13.4191 5.1023 12.4737 3.78286 12.2921 1.57551C12.265 1.24607 11.8737 1.09137 11.6289 1.31358C9.28983 3.43694 8.00594 6.35729 7.95827 9.645C7.95827 9.645 6.98427 8.824 6.45513 7.29666C6.31264 6.88537 5.76124 6.8069 5.52201 7.17057C5.47608 7.24041 5.4335 7.31034 5.39509 7.37823C3.5904 10.5693 2.72227 14.4444 3.52483 18.0496C4.86673 24.0872 13.7432 25.7752 18.4424 21.9804C23.0401 18.2677 21.5786 11.3575 17.6899 7.11403Z" fill="#ED694A"/>
<path d="M4.7719 18.4286C3.97865 14.7849 4.81831 10.872 6.58062 7.63104C6.53605 7.52353 6.49318 7.41232 6.45312 7.29671C6.31064 6.88541 5.75924 6.80694 5.52001 7.17062C5.47408 7.24045 5.43155 7.31038 5.39314 7.37828C3.58845 10.5693 2.72032 14.4444 3.52288 18.0496C4.13495 20.8036 6.31476 22.6519 8.95059 23.4885C6.89434 22.4924 5.28407 20.7849 4.7719 18.4286Z" fill="#D8553A"/>
<path d="M9.21128 9.58448C9.30871 6.60064 10.3879 3.9251 12.3196 1.86973C12.3063 1.75654 12.2964 1.65533 12.2901 1.57851C12.2624 1.24627 11.8854 1.07963 11.6417 1.2999C9.38248 3.34247 8.00547 6.23328 7.95605 9.6449L8.37889 9.97327C8.58714 10.135 8.86929 10.128 9.06817 9.97982C9.18684 9.87924 9.20386 9.72744 9.21128 9.58448Z" fill="#D8553A"/>
<path d="M16.2702 11.5276C15.888 11.1104 15.2938 10.5471 15.041 11.8189C14.9551 12.2512 14.7542 12.5846 14.5822 12.8529C14.3967 11.914 13.8385 10.9421 13.3126 10.2869C13.1158 10.0418 12.4175 9.06722 12.2833 7.43673C12.2633 7.19337 11.9743 7.07916 11.7935 7.24328C10.0658 8.8116 9.1175 10.9687 9.08234 13.397C9.08234 13.397 8.3629 12.7906 7.97212 11.6625C7.86688 11.3587 7.45956 11.3008 7.28289 11.5694C7.24899 11.6209 7.21751 11.6726 7.18914 11.7228C5.85613 14.0798 5.21491 16.942 5.80768 19.6049C6.79884 24.0644 13.3552 25.3112 16.8261 22.5083C20.222 19.766 19.1426 14.662 16.2702 11.5276Z" fill="#F4A32C"/>
<path d="M7.0439 19.9547C6.51907 17.3516 7.06267 14.5584 8.21518 12.2326C8.12735 12.0606 8.04413 11.8705 7.97207 11.6625C7.86683 11.3588 7.45951 11.3008 7.28284 11.5694C7.24894 11.6209 7.21747 11.6726 7.1891 11.7228C5.85613 14.0798 5.21496 16.942 5.80763 19.6049C6.26864 21.679 7.93356 23.0576 9.9318 23.6576C8.51207 22.9456 7.39423 21.6947 7.0439 19.9547Z" fill="#E89528"/>
<path d="M14.9748 15.557C14.7161 15.2745 14.3138 14.8932 14.1427 15.7541C14.0846 16.0469 13.9485 16.2725 13.8321 16.4541C13.7065 15.8185 13.3287 15.1606 12.9726 14.7171C12.8394 14.5511 12.3667 13.8914 12.2759 12.7877C12.2623 12.623 12.0667 12.5456 11.9443 12.6568C10.7748 13.7184 10.1328 15.1787 10.109 16.8225C10.109 16.8225 9.62195 16.4119 9.35745 15.6483C9.28621 15.4427 9.01051 15.4035 8.89092 15.5853C8.86793 15.6201 8.84669 15.6551 8.82744 15.6891C7.92511 17.2846 7.49102 19.2221 7.89228 21.0248C8.56323 24.0436 13.0015 24.8876 15.3511 22.9902C16.1557 22.3405 16.6545 21.4249 16.7557 20.4121C16.9084 18.8782 16.3181 17.0228 14.9748 15.557Z" fill="#F4D44E"/>
<path d="M13.7726 19.2962C13.6285 19.1388 13.4044 18.9264 13.309 19.4059C13.2766 19.569 13.2009 19.6947 13.1359 19.796C13.066 19.4418 12.8555 19.0753 12.6571 18.8282C12.5829 18.7357 12.3196 18.3682 12.2689 17.7533C12.2614 17.6615 12.1523 17.6185 12.0842 17.6803C11.4327 18.2718 11.0749 19.0853 11.0617 20.0011C11.0617 20.0011 10.7904 19.7724 10.643 19.347C10.6033 19.2324 10.4497 19.2105 10.3831 19.3119C10.3703 19.3313 10.3585 19.3508 10.3478 19.3697C9.84508 20.2587 9.60323 21.3381 9.82679 22.3424C10.3359 24.6329 14.5089 24.5635 14.7649 22.001C14.8498 21.1465 14.5209 20.1127 13.7726 19.2962Z" fill="#EAE9E8"/>
<path d="M10.7957 22.797C10.5721 21.8986 10.814 20.933 11.3167 20.1379C11.3274 20.1209 11.3392 20.1035 11.352 20.0861C11.4186 19.9955 11.5722 20.015 11.6119 20.1175C11.7593 20.4981 12.0306 20.7027 12.0306 20.7027C12.0415 20.0296 12.2854 19.4185 12.7332 18.9284C12.6331 18.7897 12.3267 18.4553 12.2689 17.7534C12.2614 17.6616 12.1523 17.6186 12.0842 17.6804C11.4327 18.2719 11.0749 19.0854 11.0617 20.0012C11.0617 20.0012 10.7904 19.7725 10.643 19.3471C10.6033 19.2325 10.4497 19.2107 10.3831 19.312C10.3703 19.3315 10.3585 19.351 10.3478 19.3699C9.84508 20.2588 9.60323 21.3382 9.82679 22.3425C10.0337 23.2734 10.8836 23.8329 11.8233 23.9679C11.3164 23.719 10.9268 23.3248 10.7957 22.797Z" fill="#F7E7A1"/>
<path d="M10.0454 13.0071C10.219 10.958 11.0015 9.13604 12.3153 7.74705C12.302 7.64637 12.2908 7.54303 12.2821 7.43677C12.2621 7.19342 11.9731 7.07921 11.7923 7.24332C10.4232 8.48609 9.54458 10.0989 9.22092 11.9231L9.22043 11.9229C9.19643 12.0582 9.16665 12.2553 9.14783 12.4102C9.14788 12.4103 9.14793 12.4104 9.14803 12.4106C9.1087 12.7337 9.0859 13.0627 9.08105 13.3971C9.11762 13.4042 9.94536 13.8297 10.0454 13.0071Z" fill="#E89528"/>
<path d="M9.10271 21.453C8.74602 19.769 9.0498 17.9732 9.75552 16.4172C9.61881 16.2255 9.46919 15.968 9.35848 15.6483C9.28719 15.4426 9.01153 15.4034 8.89189 15.5852C8.86896 15.6201 8.84762 15.6551 8.82841 15.6891C7.92609 17.2846 7.492 19.2221 7.89326 21.0248C8.20752 22.4385 9.348 23.3753 10.7132 23.7769C9.91856 23.2493 9.31745 22.4685 9.10271 21.453Z" fill="#E8C842"/>
<path d="M11.3978 16.0866C11.516 15.2415 11.8616 14.3104 12.4057 13.532C12.3465 13.3123 12.2999 13.0639 12.2771 12.7877C12.2635 12.623 12.0679 12.5456 11.9455 12.6568C11.2168 13.3183 10.6938 14.1349 10.3967 15.0538L10.3959 15.0537C10.3491 15.198 10.283 15.4372 10.243 15.626C10.2433 15.6259 10.2437 15.6259 10.244 15.6258C10.162 16.011 10.1163 16.4108 10.1104 16.8224C10.7647 16.9041 11.3059 16.7421 11.3978 16.0866Z" fill="#E8C842"/>
</g>
<defs>
<clipPath id="clip0_311_7380">
<rect width="24" height="24" fill="white"/>
</clipPath>
</defs>
</svg>
