<svg width="500" height="500" viewBox="0 0 500 500" fill="none" xmlns="http://www.w3.org/2000/svg">
<rect width="500" height="500" fill="#E8F2FA"/>
<g opacity="0.08">
<path d="M308.406 191.594H190.594C188.192 191.601 185.891 192.558 184.193 194.256C182.495 195.954 181.538 198.255 181.531 200.656V300.344C181.538 302.745 182.495 305.046 184.193 306.744C185.891 308.442 188.192 309.399 190.594 309.406H308.406C310.808 309.399 313.109 308.442 314.807 306.744C316.505 305.046 317.462 302.745 317.469 300.344V200.656C317.462 198.255 316.505 195.954 314.807 194.256C313.109 192.558 310.808 191.601 308.406 191.594ZM308.406 300.344H190.594V200.656H308.406V300.344Z" fill="#00041A"/>
<path d="M222.312 236.906C229.82 236.906 235.906 230.82 235.906 223.312C235.906 215.805 229.82 209.719 222.312 209.719C214.805 209.719 208.719 215.805 208.719 223.312C208.719 230.82 214.805 236.906 222.312 236.906Z" fill="#00041A"/>
<path d="M279.451 237.858C278.675 237.26 277.727 236.928 276.748 236.912C275.769 236.896 274.81 237.195 274.015 237.767L239.893 262.553L256.75 274.063C257.709 274.786 258.342 275.859 258.512 277.048C258.681 278.236 258.374 279.444 257.656 280.406C257.231 280.966 256.683 281.42 256.055 281.734C255.426 282.048 254.734 282.214 254.031 282.219C253.052 282.21 252.101 281.892 251.312 281.313L215.969 255.938C215.31 255.443 214.525 255.145 213.704 255.077C212.707 254.943 211.695 255.168 210.848 255.711L190.594 268.353V300.344H308.406V259.88L279.451 237.858Z" fill="#00041A"/>
</g>
</svg>
