<svg width="32" height="32" viewBox="0 0 32 32" fill="none" xmlns="http://www.w3.org/2000/svg">
<g clip-path="url(#clip0_311_7715)">
<path d="M22.6375 0H9.3625C4.2 0 0 4.2 0 9.3625V22.6375C0 27.8 4.2 32 9.3625 32H22.6375C27.8 32 32 27.8 32 22.6375V9.3625C32 4.2 27.8 0 22.6375 0V0Z" fill="url(#paint0_linear_311_7715)"/>
<path d="M22.4436 21.1C21.9499 20.8563 21.3499 21.0562 21.1061 21.55C20.1436 23.4812 18.1436 24.7313 15.9999 24.7313C13.8561 24.7313 11.8561 23.4812 10.8999 21.55C10.6561 21.0562 10.0561 20.85 9.56236 21.1C9.06861 21.3438 8.86236 21.9437 9.11236 22.4375C9.73736 23.7062 10.7061 24.775 11.8999 25.5375C13.1311 26.3188 14.5499 26.7375 16.0061 26.7375C17.4624 26.7375 18.8811 26.325 20.1124 25.5438C21.3061 24.7813 22.2686 23.7125 22.8999 22.45C23.1436 21.9438 22.9374 21.3438 22.4436 21.1Z" fill="#402711"/>
<path d="M9.66211 14.2313V12.2625C9.66211 11.7125 9.21211 11.2625 8.66211 11.2625C8.11211 11.2625 7.66211 11.7125 7.66211 12.2625V14.2313C7.66211 14.7813 8.11211 15.2313 8.66211 15.2313C9.21211 15.2313 9.66211 14.7875 9.66211 14.2313Z" fill="#402711"/>
<path d="M23.3379 11.2625C22.7879 11.2625 22.3379 11.7125 22.3379 12.2625V14.2313C22.3379 14.7813 22.7879 15.2313 23.3379 15.2313C23.8879 15.2313 24.3379 14.7813 24.3379 14.2313V12.2625C24.3379 11.7063 23.8879 11.2625 23.3379 11.2625Z" fill="#402711"/>
<g opacity="0.42">
<path d="M26.6828 7.70625H19.9953C18.7078 7.70625 17.6641 8.75 17.6641 10.0375V15.2563C17.6641 17.2063 19.2516 18.7875 21.1953 18.7875H25.4828C27.4328 18.7875 29.0141 17.2 29.0141 15.2563V10.0375C29.0141 8.75 27.9703 7.70625 26.6828 7.70625Z" fill="white"/>
<path d="M12.007 7.70625H5.31953C4.03203 7.70625 2.98828 8.75 2.98828 10.0375V15.2563C2.98828 17.2063 4.57578 18.7875 6.51953 18.7875H10.8133C12.7633 18.7875 14.3445 17.2 14.3445 15.2563V10.0375C14.3383 8.75 13.2945 7.70625 12.007 7.70625Z" fill="white"/>
</g>
<path d="M26.6816 7.70625H19.9941C18.7066 7.70625 17.6629 8.75 17.6629 10.0375V11.375H14.3441V10.0375C14.3441 8.75 13.3004 7.70625 12.0129 7.70625H5.32539C4.03789 7.70625 2.99414 8.75 2.99414 10.0375V15.2563C2.99414 17.2063 4.58164 18.7875 6.52539 18.7875H10.8191C12.7691 18.7875 14.3504 17.2 14.3504 15.2563V13.3688H17.6691V15.2563C17.6691 17.2063 19.2566 18.7875 21.2004 18.7875H25.4879C27.4379 18.7875 29.0191 17.2 29.0191 15.2563V10.0375C29.0129 8.75 27.9691 7.70625 26.6816 7.70625ZM12.3379 15.2563C12.3379 16.1 11.6504 16.7875 10.8066 16.7875H6.51289C5.66914 16.7875 4.98164 16.1 4.98164 15.2563V10.0375C4.98164 9.85625 5.13164 9.70625 5.31289 9.70625H12.0004C12.1816 9.70625 12.3316 9.85625 12.3316 10.0375V15.2563H12.3379ZM27.0129 15.2563C27.0129 16.1 26.3254 16.7875 25.4816 16.7875H21.1941C20.3504 16.7875 19.6629 16.1 19.6629 15.2563V10.0375C19.6629 9.85625 19.8129 9.70625 19.9941 9.70625H26.6816C26.8629 9.70625 27.0129 9.85625 27.0129 10.0375V15.2563Z" fill="url(#paint1_linear_311_7715)"/>
</g>
<defs>
<linearGradient id="paint0_linear_311_7715" x1="16" y1="31.9998" x2="16" y2="0.000186918" gradientUnits="userSpaceOnUse">
<stop stop-color="#FFA326"/>
<stop offset="1" stop-color="#FDF003"/>
</linearGradient>
<linearGradient id="paint1_linear_311_7715" x1="2.98408" y1="13.2469" x2="29.015" y2="13.2469" gradientUnits="userSpaceOnUse">
<stop stop-color="#1E1D1D"/>
<stop offset="0.00781515" stop-color="#22201F"/>
<stop offset="0.045191" stop-color="#2D2C25"/>
<stop offset="0.0977125" stop-color="#343228"/>
<stop offset="0.2437" stop-color="#363429"/>
<stop offset="0.3769" stop-color="#282622"/>
<stop offset="0.5101" stop-color="#1E1D1D"/>
<stop offset="0.7764" stop-color="#3A382B"/>
<stop offset="1" stop-color="#1E1D1D"/>
</linearGradient>
<clipPath id="clip0_311_7715">
<rect width="32" height="32" fill="white"/>
</clipPath>
</defs>
</svg>
