<svg width="200" height="31" viewBox="0 0 200 31" fill="none" xmlns="http://www.w3.org/2000/svg">
<g clip-path="url(#clip0_302_796)">
<path d="M9.33926 31C6.67427 31 4.44558 30.0992 2.6532 28.2974C0.8844 26.4959 0 24.2676 0 21.6125C0 18.9575 0.8844 16.7291 2.6532 14.9275C4.44558 13.1259 6.67427 12.2251 9.33926 12.2251C11.0609 12.2251 12.6292 12.6399 14.0443 13.4696C15.4593 14.2993 16.5324 15.4135 17.2634 16.8122L13.3367 19.1234C12.983 18.3885 12.4405 17.8078 11.7094 17.3811C11.0019 16.9544 10.2001 16.7409 9.30388 16.7409C7.936 16.7409 6.80398 17.2033 5.90778 18.1278C5.0116 19.0286 4.5635 20.1902 4.5635 21.6125C4.5635 23.0112 5.0116 24.1727 5.90778 25.0973C6.80398 25.9981 7.936 26.4485 9.30388 26.4485C10.2237 26.4485 11.0373 26.2469 11.7448 25.8441C12.4759 25.4172 13.0183 24.8365 13.3721 24.1016L17.3343 26.3774C16.556 27.776 15.4593 28.902 14.0443 29.7554C12.6292 30.5851 11.0609 31 9.33926 31Z" fill="white"/>
<path d="M33.657 28.2974C31.8412 30.0992 29.6242 31 27.0064 31C24.3886 31 22.1718 30.0992 20.3557 28.2974C18.5634 26.4722 17.6672 24.2439 17.6672 21.6125C17.6672 18.9812 18.5634 16.7648 20.3557 14.9631C22.1718 13.1378 24.3886 12.2251 27.0064 12.2251C29.6242 12.2251 31.8412 13.1378 33.657 14.9631C35.4731 16.7648 36.381 18.9812 36.381 21.6125C36.381 24.2439 35.4731 26.4722 33.657 28.2974ZM23.575 25.1328C24.4947 26.0573 25.6386 26.5196 27.0064 26.5196C28.3744 26.5196 29.5182 26.0573 30.4379 25.1328C31.3577 24.2084 31.8176 23.0349 31.8176 21.6125C31.8176 20.1902 31.3577 19.0168 30.4379 18.0923C29.5182 17.1678 28.3744 16.7054 27.0064 16.7054C25.6386 16.7054 24.4947 17.1678 23.575 18.0923C22.6787 19.0168 22.2307 20.1902 22.2307 21.6125C22.2307 23.0349 22.6787 24.2084 23.575 25.1328Z" fill="white"/>
<path d="M50.3812 12.7229H54.9446V30.5022H50.3812V28.5109C49.2728 30.1703 47.5157 30.9999 45.1102 30.9999C43.1762 30.9999 41.5725 30.348 40.299 29.0442C39.049 27.7404 38.4241 25.9388 38.4241 23.6393V12.7229H42.9875V23.0704C42.9875 24.2557 43.306 25.1684 43.9427 25.8083C44.5794 26.4248 45.4284 26.733 46.4898 26.733C47.6691 26.733 48.6124 26.3655 49.3199 25.6306C50.0273 24.8957 50.3812 23.7935 50.3812 22.3237V12.7229Z" fill="white"/>
<path d="M62.8034 15.7811C63.2279 14.6432 63.9236 13.7898 64.8906 13.2208C65.8811 12.6519 66.9779 12.3674 68.1806 12.3674V17.4878C66.7892 17.3219 65.5392 17.6064 64.4308 18.3412C63.3458 19.0761 62.8034 20.297 62.8034 22.0037V30.5023H58.24V12.723H62.8034V15.7811Z" fill="white"/>
<path d="M73.6219 17.7722C73.6219 18.2463 73.9286 18.6375 74.5418 18.9457C75.1786 19.2302 75.9451 19.4908 76.8412 19.728C77.7375 19.9412 78.6336 20.2258 79.5299 20.5814C80.426 20.9133 81.1807 21.4822 81.7939 22.2882C82.4307 23.0942 82.749 24.1016 82.749 25.3106C82.749 27.136 82.0651 28.5464 80.6972 29.542C79.353 30.514 77.6666 31 75.6384 31C72.0066 31 69.5302 29.5895 68.2095 26.7685L72.1716 24.5283C72.6904 26.0692 73.846 26.8396 75.6384 26.8396C77.2658 26.8396 78.0794 26.33 78.0794 25.3106C78.0794 24.8365 77.7609 24.4572 77.1242 24.1727C76.5111 23.8646 75.7564 23.5919 74.8601 23.355C73.964 23.1178 73.0677 22.8215 72.1716 22.4659C71.2753 22.1104 70.509 21.5532 69.8721 20.7946C69.259 20.0123 68.9524 19.0405 68.9524 17.8788C68.9524 16.1247 69.5891 14.7497 70.8627 13.7541C72.1598 12.7348 73.7635 12.2251 75.6739 12.2251C77.1124 12.2251 78.4213 12.557 79.6006 13.2207C80.7797 13.8608 81.7113 14.7853 82.3952 15.9943L78.504 18.1278C77.938 16.9188 76.9946 16.3142 75.6739 16.3142C75.0842 16.3142 74.5889 16.4447 74.1881 16.7054C73.8108 16.9662 73.6219 17.3218 73.6219 17.7722Z" fill="white"/>
<path d="M88.4137 23.4972C89.0269 25.7254 90.6896 26.8396 93.4017 26.8396C95.147 26.8396 96.4677 26.2469 97.3638 25.0618L101.043 27.1952C99.2978 29.7317 96.7271 31 93.331 31C90.4065 31 88.0599 30.111 86.2912 28.3332C84.5224 26.5551 83.6379 24.315 83.6379 21.6125C83.6379 18.9338 84.5106 16.7054 86.2557 14.9275C88.001 13.1259 90.2415 12.2251 92.9773 12.2251C95.5714 12.2251 97.7059 13.1259 99.3803 14.9275C101.078 16.7291 101.927 18.9575 101.927 21.6125C101.927 22.2052 101.868 22.8333 101.751 23.4972H88.4137ZM88.343 19.9412H97.3638C97.1044 18.7322 96.562 17.8315 95.7366 17.2389C94.9347 16.6462 94.015 16.3499 92.9773 16.3499C91.7509 16.3499 90.7368 16.6698 89.9349 17.31C89.1331 17.9262 88.6023 18.8033 88.343 19.9412Z" fill="white"/>
<path d="M104.229 30.5021V4.54443H108.792V30.5021H104.229Z" fill="white"/>
<path d="M125.527 12.7229H130.091V30.5022H125.527V28.4042C124.159 30.1347 122.237 31 119.761 31C117.403 31 115.374 30.0992 113.676 28.2974C112.002 26.4722 111.165 24.2439 111.165 21.6125C111.165 18.9812 112.002 16.7648 113.676 14.9631C115.374 13.1378 117.403 12.2251 119.761 12.2251C122.237 12.2251 124.159 13.0904 125.527 14.8209V12.7229ZM117.108 25.2395C118.028 26.164 119.195 26.6262 120.61 26.6262C122.025 26.6262 123.193 26.164 124.112 25.2395C125.056 24.2913 125.527 23.0823 125.527 21.6125C125.527 20.1428 125.056 18.9457 124.112 18.0212C123.193 17.0728 122.025 16.5988 120.61 16.5988C119.195 16.5988 118.028 17.0728 117.108 18.0212C116.188 18.9457 115.728 20.1428 115.728 21.6125C115.728 23.0823 116.188 24.2913 117.108 25.2395Z" fill="white"/>
<path d="M143.179 12.2251C145.113 12.2251 146.705 12.877 147.955 14.1808C149.228 15.4846 149.865 17.2863 149.865 19.5856V30.5022H145.302V20.1547C145.302 18.9694 144.983 18.0686 144.347 17.4522C143.71 16.8122 142.861 16.4921 141.8 16.4921C140.62 16.4921 139.677 16.8596 138.969 17.5945C138.262 18.3292 137.908 19.4316 137.908 20.9014V30.5022H133.345V12.7229H137.908V14.7142C139.017 13.0548 140.774 12.2251 143.179 12.2251Z" fill="white"/>
<path d="M166.285 5.61133H170.848V30.5023H166.285V28.4043C164.94 30.1348 163.031 31.0001 160.554 31.0001C158.172 31.0001 156.132 30.0993 154.434 28.2976C152.76 26.4723 151.922 24.244 151.922 21.6126C151.922 18.9813 152.76 16.7649 154.434 14.9632C156.132 13.1379 158.172 12.2252 160.554 12.2252C163.031 12.2252 164.94 13.0905 166.285 14.821V5.61133ZM157.866 25.2396C158.809 26.1641 159.988 26.6263 161.403 26.6263C162.819 26.6263 163.985 26.1641 164.906 25.2396C165.825 24.2914 166.285 23.0824 166.285 21.6126C166.285 20.1429 165.825 18.9458 164.906 18.0213C163.985 17.073 162.819 16.5989 161.403 16.5989C159.988 16.5989 158.809 17.073 157.866 18.0213C156.946 18.9458 156.486 20.1429 156.486 21.6126C156.486 23.0824 156.946 24.2914 157.866 25.2396Z" fill="white"/>
<path d="M176.401 10.5893C175.647 10.5893 174.987 10.3167 174.421 9.77151C173.879 9.20257 173.607 8.53882 173.607 7.78023C173.607 7.02165 173.879 6.35789 174.421 5.78896C174.987 5.22002 175.647 4.93555 176.401 4.93555C177.18 4.93555 177.84 5.22002 178.384 5.78896C178.948 6.35789 179.232 7.02165 179.232 7.78023C179.232 8.53882 178.948 9.20257 178.384 9.77151C177.84 10.3167 177.18 10.5893 176.401 10.5893ZM174.138 30.5021V12.7229H178.701V30.5021H174.138Z" fill="white"/>
<path d="M195.437 12.7229H200V30.5022H195.437V28.4042C194.068 30.1347 192.147 31 189.67 31C187.312 31 185.283 30.0992 183.586 28.2974C181.911 26.4722 181.074 24.2439 181.074 21.6125C181.074 18.9812 181.911 16.7648 183.586 14.9631C185.283 13.1378 187.312 12.2251 189.67 12.2251C192.147 12.2251 194.068 13.0904 195.437 14.8209V12.7229ZM187.018 25.2395C187.937 26.164 189.104 26.6262 190.519 26.6262C191.934 26.6262 193.102 26.164 194.021 25.2395C194.964 24.2913 195.437 23.0823 195.437 21.6125C195.437 20.1428 194.964 18.9457 194.021 18.0212C193.102 17.0728 191.934 16.5988 190.519 16.5988C189.104 16.5988 187.937 17.0728 187.018 18.0212C186.097 18.9457 185.638 20.1428 185.638 21.6125C185.638 23.0823 186.097 24.2913 187.018 25.2395Z" fill="white"/>
<path d="M12.1992 4.70681L26.9242 0L41.6491 4.70681L26.9242 9.41361L12.1992 4.70681Z" fill="#3E3CFD"/>
</g>
<defs>
<clipPath id="clip0_302_796">
<rect width="200" height="31" fill="white"/>
</clipPath>
</defs>
</svg>
