<svg width="174" height="27" viewBox="0 0 174 27" fill="none" xmlns="http://www.w3.org/2000/svg">
<g clip-path="url(#clip0_264_1133)">
<path d="M8.12515 26.9998C5.80662 26.9998 3.86766 26.2152 2.30829 24.646C0.769428 23.0768 0 21.1361 0 18.8236C0 16.5112 0.769428 14.5703 2.30829 13.0012C3.86766 11.432 5.80662 10.6475 8.12515 10.6475C9.62297 10.6475 10.9874 11.0088 12.2185 11.7314C13.4496 12.4541 14.3832 13.4245 15.0192 14.6427L11.603 16.6557C11.2952 16.0156 10.8233 15.5098 10.1872 15.1381C9.57168 14.7665 8.87406 14.5806 8.09438 14.5806C6.90432 14.5806 5.91946 14.9833 5.13977 15.7885C4.36009 16.5731 3.97024 17.5848 3.97024 18.8236C3.97024 20.0418 4.36009 21.0534 5.13977 21.8587C5.91946 22.6433 6.90432 23.0356 8.09438 23.0356C8.89458 23.0356 9.60245 22.86 10.218 22.5091C10.8541 22.1374 11.326 21.6316 11.6337 20.9915L15.0808 22.9737C14.4037 24.1918 13.4496 25.1725 12.2185 25.9158C10.9874 26.6384 9.62297 26.9998 8.12515 26.9998Z" fill="#00041A"/>
<path d="M29.2817 24.6462C27.7019 26.2155 25.7732 27 23.4957 27C21.2182 27 19.2895 26.2155 17.7096 24.6462C16.1502 23.0565 15.3706 21.1157 15.3706 18.8238C15.3706 16.5321 16.1502 14.6016 17.7096 13.0324C19.2895 11.4426 21.2182 10.6477 23.4957 10.6477C25.7732 10.6477 27.7019 11.4426 29.2817 13.0324C30.8617 14.6016 31.6516 16.5321 31.6516 18.8238C31.6516 21.1157 30.8617 23.0565 29.2817 24.6462ZM20.5104 21.8899C21.3105 22.6951 22.3057 23.0977 23.4957 23.0977C24.6858 23.0977 25.6809 22.6951 26.4811 21.8899C27.2813 21.0847 27.6814 20.0627 27.6814 18.8238C27.6814 17.5851 27.2813 16.563 26.4811 15.7578C25.6809 14.9526 24.6858 14.5499 23.4957 14.5499C22.3057 14.5499 21.3105 14.9526 20.5104 15.7578C19.7306 16.563 19.3408 17.5851 19.3408 18.8238C19.3408 20.0627 19.7306 21.0847 20.5104 21.8899Z" fill="#00041A"/>
<path d="M43.8316 11.0813H47.8018V26.5664H43.8316V24.8321C42.8673 26.2773 41.3386 27 39.2458 27C37.5633 27 36.168 26.4321 35.0601 25.2966C33.9726 24.161 33.429 22.5919 33.429 20.5891V11.0813H37.3991V20.0936C37.3991 21.126 37.6762 21.9209 38.2301 22.4783C38.7841 23.0152 39.5228 23.2836 40.4461 23.2836C41.4721 23.2836 42.2928 22.9636 42.9083 22.3235C43.5238 21.6834 43.8316 20.7234 43.8316 19.4432V11.0813Z" fill="#00041A"/>
<path d="M54.6389 13.7447C55.0081 12.7537 55.6135 12.0104 56.4548 11.5149C57.3165 11.0193 58.2706 10.7716 59.317 10.7716V15.2313C58.1065 15.0868 57.019 15.3346 56.0547 15.9745C55.1108 16.6146 54.6389 17.6779 54.6389 19.1645V26.5664H50.6687V11.0813H54.6389V13.7447Z" fill="#00041A"/>
<path d="M64.0511 15.4791C64.0511 15.892 64.3179 16.2327 64.8514 16.5011C65.4054 16.7489 66.0723 16.9759 66.8519 17.1825C67.6316 17.3682 68.4113 17.616 69.191 17.9257C69.9706 18.2148 70.6272 18.7103 71.1608 19.4123C71.7147 20.1143 71.9916 20.9917 71.9916 22.0447C71.9916 23.6346 71.3967 24.863 70.2066 25.7302C69.0372 26.5768 67.57 27 65.8055 27C62.6458 27 60.4913 25.7716 59.3423 23.3146L62.7893 21.3634C63.2407 22.7055 64.2461 23.3765 65.8055 23.3765C67.2213 23.3765 67.9291 22.9326 67.9291 22.0447C67.9291 21.6318 67.6521 21.3015 67.0981 21.0536C66.5647 20.7853 65.9081 20.5479 65.1283 20.3415C64.3487 20.1349 63.569 19.8768 62.7893 19.5671C62.0096 19.2575 61.3429 18.7722 60.7888 18.1115C60.2554 17.4301 59.9886 16.5837 59.9886 15.5719C59.9886 14.0441 60.5425 12.8466 61.6506 11.9794C62.7791 11.0916 64.1743 10.6477 65.8363 10.6477C67.0878 10.6477 68.2266 10.9368 69.2525 11.5149C70.2784 12.0723 71.0888 12.8776 71.6839 13.9306L68.2985 15.7888C67.8061 14.7358 66.9853 14.2092 65.8363 14.2092C65.3233 14.2092 64.8924 14.3229 64.5437 14.5499C64.2154 14.7771 64.0511 15.0868 64.0511 15.4791Z" fill="#00041A"/>
<path d="M76.9198 20.4653C77.4533 22.406 78.8998 23.3765 81.2594 23.3765C82.7778 23.3765 83.9268 22.8602 84.7064 21.828L87.9073 23.6862C86.389 25.8954 84.1525 27 81.1978 27C78.6536 27 76.612 26.2258 75.0732 24.6773C73.5344 23.1287 72.7649 21.1776 72.7649 18.8238C72.7649 16.4908 73.5241 14.5499 75.0424 13.0014C76.5608 11.4323 78.51 10.6477 80.8901 10.6477C83.147 10.6477 85.004 11.4323 86.4608 13.0014C87.9381 14.5705 88.6767 16.5114 88.6767 18.8238C88.6767 19.3401 88.6254 19.8871 88.5229 20.4653H76.9198ZM76.8583 17.3682H84.7064C84.4808 16.3152 84.0089 15.5307 83.2908 15.0146C82.5931 14.4983 81.7929 14.2403 80.8901 14.2403C79.8232 14.2403 78.9409 14.5189 78.2432 15.0765C77.5457 15.6132 77.0839 16.3771 76.8583 17.3682Z" fill="#00041A"/>
<path d="M90.679 26.5665V3.95813H94.6493V26.5665H90.679Z" fill="#00041A"/>
<path d="M109.209 11.0813H113.179V26.5665H109.209V24.7392C108.019 26.2464 106.347 27 104.192 27C102.14 27 100.376 26.2155 98.8985 24.6462C97.4418 23.0565 96.7134 21.1157 96.7134 18.8238C96.7134 16.5321 97.4418 14.6016 98.8985 13.0324C100.376 11.4426 102.14 10.6477 104.192 10.6477C106.347 10.6477 108.019 11.4013 109.209 12.9085V11.0813ZM101.884 21.9828C102.684 22.788 103.7 23.1906 104.931 23.1906C106.162 23.1906 107.178 22.788 107.978 21.9828C108.798 21.157 109.209 20.104 109.209 18.8238C109.209 17.5438 108.798 16.5011 107.978 15.6959C107.178 14.8699 106.162 14.457 104.931 14.457C103.7 14.457 102.684 14.8699 101.884 15.6959C101.084 16.5011 100.684 17.5438 100.684 18.8238C100.684 20.104 101.084 21.157 101.884 21.9828Z" fill="#00041A"/>
<path d="M124.566 10.6477C126.248 10.6477 127.633 11.2155 128.721 12.3511C129.829 13.4866 130.383 15.0558 130.383 17.0585V26.5665H126.413V17.5541C126.413 16.5217 126.136 15.7372 125.582 15.2003C125.028 14.6429 124.289 14.3641 123.366 14.3641C122.34 14.3641 121.519 14.6842 120.904 15.3243C120.288 15.9642 119.98 16.9243 119.98 18.2045V26.5665H116.01V11.0813H119.98V12.8156C120.945 11.3703 122.473 10.6477 124.566 10.6477Z" fill="#00041A"/>
<path d="M144.668 4.88724H148.638V26.5665H144.668V24.7392C143.498 26.2464 141.837 27 139.682 27C137.61 27 135.835 26.2155 134.358 24.6462C132.901 23.0565 132.172 21.1157 132.172 18.8238C132.172 16.5321 132.901 14.6016 134.358 13.0324C135.835 11.4426 137.61 10.6477 139.682 10.6477C141.837 10.6477 143.498 11.4013 144.668 12.9085V4.88724ZM137.343 21.9828C138.164 22.788 139.19 23.1906 140.421 23.1906C141.652 23.1906 142.667 22.788 143.468 21.9828C144.268 21.157 144.668 20.104 144.668 18.8238C144.668 17.5438 144.268 16.5011 143.468 15.6959C142.667 14.8699 141.652 14.457 140.421 14.457C139.19 14.457 138.164 14.8699 137.343 15.6959C136.543 16.5011 136.143 17.5438 136.143 18.8238C136.143 20.104 136.543 21.157 137.343 21.9828Z" fill="#00041A"/>
<path d="M153.469 9.22304C152.813 9.22304 152.239 8.98561 151.746 8.51074C151.274 8.01521 151.038 7.4371 151.038 6.77639C151.038 6.1157 151.274 5.53759 151.746 5.04206C152.239 4.54653 152.813 4.29877 153.469 4.29877C154.146 4.29877 154.721 4.54653 155.194 5.04206C155.685 5.53759 155.931 6.1157 155.931 6.77639C155.931 7.4371 155.685 8.01521 155.194 8.51074C154.721 8.98561 154.146 9.22304 153.469 9.22304ZM151.5 26.5664V11.0813H155.469V26.5664H151.5Z" fill="#00041A"/>
<path d="M170.03 11.0813H174V26.5665H170.03V24.7392C168.839 26.2464 167.168 27 165.013 27C162.962 27 161.196 26.2155 159.72 24.6462C158.262 23.0565 157.535 21.1157 157.535 18.8238C157.535 16.5321 158.262 14.6016 159.72 13.0324C161.196 11.4426 162.962 10.6477 165.013 10.6477C167.168 10.6477 168.839 11.4013 170.03 12.9085V11.0813ZM162.705 21.9828C163.505 22.788 164.52 23.1906 165.752 23.1906C166.982 23.1906 167.999 22.788 168.798 21.9828C169.619 21.157 170.03 20.104 170.03 18.8238C170.03 17.5438 169.619 16.5011 168.798 15.6959C167.999 14.8699 166.982 14.457 165.752 14.457C164.52 14.457 163.505 14.8699 162.705 15.6959C161.904 16.5011 161.505 17.5438 161.505 18.8238C161.505 20.104 161.904 21.157 162.705 21.9828Z" fill="#00041A"/>
<path d="M10.6133 4.09948L23.424 0L36.2347 4.09948L23.424 8.19895L10.6133 4.09948Z" fill="#3E3CFD"/>
</g>
<defs>
<clipPath id="clip0_264_1133">
<rect width="174" height="27" fill="white"/>
</clipPath>
</defs>
</svg>
