<svg width="32" height="32" viewBox="0 0 32 32" fill="none" xmlns="http://www.w3.org/2000/svg">
<g clip-path="url(#clip0_311_7733)">
<path d="M22.6375 0H9.3625C4.2 0 0 4.2 0 9.3625V22.6375C0 27.8 4.2 32 9.3625 32H22.6375C27.8 32 32 27.8 32 22.6375V9.3625C32 4.2 27.8 0 22.6375 0V0Z" fill="url(#paint0_linear_311_7733)"/>
<path d="M7.91797 8.325C7.36797 8.325 6.91797 8.775 6.91797 9.325V11.2937C6.91797 11.8437 7.36797 12.2937 7.91797 12.2937C8.46797 12.2937 8.91797 11.8437 8.91797 11.2937V9.325C8.91797 8.76875 8.47422 8.325 7.91797 8.325Z" fill="#402711"/>
<path d="M24.0742 9.30624H22.1055C21.5555 9.30624 21.1055 9.75624 21.1055 10.3062C21.1055 10.8562 21.5555 11.3062 22.1055 11.3062H24.0742C24.6242 11.3062 25.0742 10.8562 25.0742 10.3062C25.0742 9.75624 24.6305 9.30624 24.0742 9.30624Z" fill="#402711"/>
<path d="M22.4436 18.8437C21.9499 18.6 21.3499 18.8 21.1061 19.2937C20.1436 21.225 18.1436 22.475 15.9999 22.475C13.8561 22.475 11.8561 21.225 10.8999 19.2937C10.6561 18.8 10.0561 18.5937 9.56236 18.8437C9.06861 19.0875 8.86236 19.6875 9.11236 20.1812C9.73736 21.45 10.7061 22.5187 11.8999 23.2812C13.1311 24.0625 14.5499 24.475 16.0061 24.475C17.4624 24.475 18.8811 24.0625 20.1124 23.2812C21.3061 22.5187 22.2686 21.45 22.8999 20.1875C23.1436 19.6875 22.9374 19.0875 22.4436 18.8437Z" fill="#402711"/>
</g>
<defs>
<linearGradient id="paint0_linear_311_7733" x1="16" y1="31.9998" x2="16" y2="0.000186918" gradientUnits="userSpaceOnUse">
<stop stop-color="#FFA326"/>
<stop offset="1" stop-color="#FDF003"/>
</linearGradient>
<clipPath id="clip0_311_7733">
<rect width="32" height="32" fill="white"/>
</clipPath>
</defs>
</svg>
