<svg width="32" height="32" viewBox="0 0 32 32" fill="none" xmlns="http://www.w3.org/2000/svg">
<g clip-path="url(#clip0_311_7762)">
<path d="M22.6375 0H9.3625C4.2 0 0 4.2 0 9.3625V22.6375C0 27.8 4.2 32 9.3625 32H22.6375C27.8 32 32 27.8 32 22.6375V9.3625C32 4.2 27.8 0 22.6375 0V0Z" fill="url(#paint0_linear_311_7762)"/>
<path d="M32 9.36249V13.2562C32 15.0062 31.225 16.5812 30 17.65C28.975 18.55 27.625 19.0937 26.1562 19.0937H22.1375C20.5063 19.0937 19.0875 18.2937 18.2437 16.9L16.4875 14.0062C16.3375 13.7625 16.1 13.7375 16 13.7375C15.9062 13.7375 15.6625 13.7625 15.5188 14.0062L13.7563 16.9C12.9125 18.2937 11.4875 19.0937 9.8625 19.0937H5.84375C4.375 19.0937 3.03125 18.55 2 17.65C0.775 16.5812 0 15.0062 0 13.2562V9.36249C0 8.79374 0.05 8.24374 0.14375 7.70624H31.85C31.95 8.24374 32 8.79999 32 9.36249Z" fill="black"/>
<path d="M25.3312 8.95627L20.4375 17.4C20.9313 17.6938 21.5063 17.85 22.1313 17.85H22.4875L27.6375 8.95627H25.3312Z" fill="#3B3C36"/>
<path d="M4.47461 17.6375C4.91211 17.775 5.37461 17.8438 5.83711 17.8438H6.66211L11.8121 8.95001H9.49961L4.47461 17.6375Z" fill="#3B3C36"/>
<path d="M16 26.7313C15.45 26.7313 15 26.2813 15 25.7313C15 25.1813 15.45 24.7313 16 24.7313C18.1437 24.7313 20.1438 23.4813 21.1063 21.55C21.35 21.0563 21.95 20.8563 22.4438 21.1C22.9375 21.3438 23.1375 21.9438 22.8937 22.4375C22.2625 23.7063 21.3 24.775 20.1063 25.5313C18.875 26.3188 17.4562 26.7313 16 26.7313Z" fill="#402711"/>
</g>
<defs>
<linearGradient id="paint0_linear_311_7762" x1="16" y1="31.9998" x2="16" y2="0.000186918" gradientUnits="userSpaceOnUse">
<stop stop-color="#FFA326"/>
<stop offset="1" stop-color="#FDF003"/>
</linearGradient>
<clipPath id="clip0_311_7762">
<rect width="32" height="32" fill="white"/>
</clipPath>
</defs>
</svg>
