<svg width="15" height="15" viewBox="0 0 15 15" fill="none" xmlns="http://www.w3.org/2000/svg">
<path d="M7.04597 0.984332C7.22468 0.596897 7.77532 0.596897 7.95403 0.984332L9.63987 4.63923C9.7127 4.79713 9.86235 4.90585 10.035 4.92633L14.032 5.40023C14.4557 5.45047 14.6258 5.97416 14.3126 6.26385L11.3575 8.9966C11.2299 9.11467 11.1727 9.29058 11.2066 9.46114L11.991 13.4089C12.0742 13.8274 11.6287 14.1511 11.2564 13.9427L7.74422 11.9767C7.59248 11.8918 7.40752 11.8918 7.25578 11.9767L3.74361 13.9427C3.3713 14.1511 2.92583 13.8274 3.00898 13.4089L3.7934 9.46114C3.82729 9.29058 3.77013 9.11467 3.64246 8.9966L0.687401 6.26385C0.374151 5.97416 0.544309 5.45047 0.968006 5.40023L4.96497 4.92633C5.13765 4.90585 5.2873 4.79713 5.36013 4.63923L7.04597 0.984332Z" fill="#F4CC40"/>
</svg>
