<svg width="24" height="24" viewBox="0 0 24 24" fill="none" xmlns="http://www.w3.org/2000/svg">
<path d="M2 10C2 7.23858 4.23858 5 7 5H17C19.7614 5 22 7.23858 22 10V16C22 18.7614 19.7614 21 17 21H7C4.23858 21 2 18.7614 2 16V10Z" stroke="#00041A" stroke-width="2"/>
<circle cx="7" cy="9" r="1" fill="#000419"/>
<circle cx="7" cy="13" r="1" fill="#000419"/>
<circle cx="7" cy="17" r="1" fill="#000419"/>
<circle cx="12" cy="9" r="1" fill="#000419"/>
<circle cx="12" cy="13" r="1" fill="#000419"/>
<circle cx="12" cy="17" r="1" fill="#000419"/>
<circle cx="17" cy="9" r="1" fill="#000419"/>
<circle cx="17" cy="13" r="1" fill="#000419"/>
<circle cx="17" cy="17" r="1" fill="#000419"/>
<path d="M7 5V3" stroke="black" stroke-width="2" stroke-linecap="round" stroke-linejoin="round"/>
<path d="M12 5V3" stroke="black" stroke-width="2" stroke-linecap="round" stroke-linejoin="round"/>
<path d="M17 5V3" stroke="black" stroke-width="2" stroke-linecap="round" stroke-linejoin="round"/>
</svg>
