<svg width="20" height="20" viewBox="0 0 20 20" fill="none" xmlns="http://www.w3.org/2000/svg">
<path d="M3.29304 17.435C2.90252 17.0445 2.90252 16.4113 3.29304 16.0208L16.021 3.29289C16.4115 2.90237 17.0447 2.90237 17.4352 3.29289C17.8257 3.68342 17.8257 4.31658 17.4352 4.70711L4.70726 17.435C4.31673 17.8256 3.68357 17.8256 3.29304 17.435Z" fill="#273852"/>
<path d="M3.29289 3.2944C3.68342 2.90388 4.31658 2.90388 4.70711 3.2944L17.435 16.0223C17.8256 16.4128 17.8256 17.046 17.435 17.4365C17.0445 17.8271 16.4113 17.8271 16.0208 17.4365L3.29289 4.70862C2.90237 4.31809 2.90237 3.68493 3.29289 3.2944Z" fill="#273852"/>
</svg>
