<svg width="26" height="26" viewBox="0 0 26 26" fill="none" xmlns="http://www.w3.org/2000/svg">
<path d="M16.0801 5.47773H9.20763C9.09586 5.47773 8.983 5.53361 8.92712 5.61799L5.14025 9.37736C5.05588 9.46173 5 9.5461 5 9.68637V9.71485V21.9728C5 23.3468 6.12203 24.4689 7.49608 24.4689H16.0802C17.4542 24.4689 18.5763 23.3468 18.5763 21.9728V7.97486C18.5763 6.59972 17.4541 5.47773 16.0801 5.47773ZM17.7905 20.5419V20.5704V20.5988V21.9455C17.7905 22.8714 17.0334 23.6286 16.079 23.6286L7.49599 23.6275C6.57009 23.6275 5.81294 22.8703 5.81294 21.9444V10.0786H7.13111C8.50515 10.0786 9.62718 8.9566 9.62718 7.58256V6.26439H16.0789C17.0048 6.26439 17.7904 7.02154 17.7904 7.94744L17.7905 20.5419Z" fill="#3E3CFD"/>
<path d="M19.5568 2H10.9726C9.68185 2 8.61682 2.95328 8.47656 4.21557V4.49607C8.47656 4.7207 8.6453 4.88834 8.86883 4.88834C9.09345 4.88834 9.26109 4.7196 9.26109 4.49607V4.32733C9.34546 3.45731 10.0741 2.81304 10.9441 2.81304H19.5283C20.4542 2.81304 21.2113 3.57018 21.2113 4.49609V18.4929C21.2113 19.3629 20.5659 20.0916 19.697 20.1759C19.4724 20.2044 19.3047 20.4006 19.3321 20.6252C19.3606 20.8213 19.5283 20.9901 19.7244 20.9901H19.7803C21.0426 20.8498 21.9958 19.7837 21.9958 18.494L21.9969 4.49609C22.0528 3.12204 20.9308 2 19.5568 2Z" fill="#3E3CFD"/>
<path d="M15.5752 11.1165H8.02898C7.80436 11.1165 7.63672 11.2853 7.63672 11.5088C7.63672 11.7334 7.80546 11.901 8.02898 11.901H15.5741C15.7987 11.901 15.9664 11.7323 15.9664 11.5088C15.9675 11.2852 15.7713 11.1165 15.5752 11.1165Z" fill="#3E3CFD"/>
<path d="M15.5752 13.6411H8.02898C7.80436 13.6411 7.63672 13.8098 7.63672 14.0334C7.63672 14.258 7.80546 14.4256 8.02898 14.4256H15.5741C15.7987 14.4256 15.9664 14.2569 15.9664 14.0334C15.9675 13.8098 15.7713 13.6411 15.5752 13.6411Z" fill="#3E3CFD"/>
<path d="M15.5752 16.1371H8.02898C7.80436 16.1371 7.63672 16.3058 7.63672 16.5293C7.63672 16.754 7.80546 16.9216 8.02898 16.9216H15.5741C15.7987 16.9216 15.9664 16.7529 15.9664 16.5293C15.9675 16.3058 15.7713 16.1371 15.5752 16.1371Z" fill="#3E3CFD"/>
<path d="M15.5752 18.6344H8.02898C7.80436 18.6344 7.63672 18.8032 7.63672 19.0267C7.63672 19.2513 7.80546 19.4189 8.02898 19.4189H15.5741C15.7987 19.4189 15.9664 19.2502 15.9664 19.0267C15.9675 18.8305 15.7713 18.6344 15.5752 18.6344Z" fill="#3E3CFD"/>
</svg>
