<svg width="25" height="23" viewBox="0 0 25 23" fill="none" xmlns="http://www.w3.org/2000/svg">
<path d="M21.9286 5.28348H19.5464C19.8 4.42634 20.1214 2.65134 18.9429 1.4692C18.6179 1.1442 18.2143 0.983484 17.7429 1.00134C16.3464 1.0442 14.7179 2.67277 14.275 3.1442H11.725C11.2821 2.67277 9.65357 1.0442 8.25714 1.00134C7.78929 0.987055 7.38214 1.1442 7.05714 1.4692C5.87857 2.65491 6.2 4.42634 6.45357 5.28348H4.07143C3.48214 5.28348 3 5.76563 3 6.35491V8.49777C3 9.08706 3.48214 9.5692 4.07143 9.5692V19.9263C4.07143 21.3049 5.19286 22.4263 6.57143 22.4263H19.4286C20.8071 22.4263 21.9286 21.3049 21.9286 19.9263V9.5692C22.5179 9.5692 23 9.08706 23 8.49777V6.35491C23 5.76563 22.5179 5.28348 21.9286 5.28348ZM14.7857 3.64063C15.35 3.03348 16.75 1.7442 17.7643 1.71206C18.0357 1.70491 18.2536 1.79063 18.4357 1.97277C19.4429 2.98348 18.9964 4.68348 18.7964 5.28348H14.7857V3.64063ZM11.9286 3.85491H14.0714V5.28348H11.9286V3.85491ZM7.56429 1.97277C7.74643 1.79063 7.96786 1.70848 8.23571 1.71206C9.24643 1.74063 10.65 3.02991 11.2143 3.64063V5.28348H7.20357C7.00357 4.68348 6.55714 2.98348 7.56429 1.97277ZM10.5 21.7121H6.57143C5.58571 21.7121 4.78571 20.9121 4.78571 19.9263V9.5692H10.5V21.7121ZM14.7857 21.7121H11.2143V9.5692H14.7857V21.7121ZM21.2143 19.9263C21.2143 20.9121 20.4143 21.7121 19.4286 21.7121H15.5V9.5692H21.2143V19.9263ZM22.2857 8.49777C22.2857 8.6942 22.125 8.85491 21.9286 8.85491H4.07143C3.875 8.85491 3.71429 8.6942 3.71429 8.49777V6.35491C3.71429 6.15848 3.875 5.99777 4.07143 5.99777H21.9286C22.125 5.99777 22.2857 6.15848 22.2857 6.35491V8.49777Z" fill="#3E3CFD" stroke="#3E3CFD" stroke-width="0.4"/>
</svg>
