<svg width="25" height="23" viewBox="0 0 25 23" fill="none" xmlns="http://www.w3.org/2000/svg">
<path fill-rule="evenodd" clip-rule="evenodd" d="M11.1609 18.19L13.7681 20.7972C14.0137 21.0428 14.3472 21.1814 14.6952 21.1814C15.0431 21.1814 15.3766 21.0428 15.6222 20.7972C15.7887 20.6311 15.9684 20.4515 16.1345 20.2849C16.3801 20.0393 16.5187 19.7058 16.5187 19.3579C16.5187 19.0099 16.3801 18.6764 16.1345 18.4308L13.7445 16.0408L21.9923 14.077C22.4543 13.9673 22.821 13.6158 22.9504 13.1586C23.0798 12.7014 22.9517 12.2102 22.6156 11.8745L12.1255 1.38438C11.7898 1.04826 11.2985 0.9202 10.8414 1.04958C10.3842 1.17896 10.0327 1.54567 9.92303 2.00767L7.82326 10.8255L3.6399 15.0088C3.22991 15.4188 3 15.9748 3 16.5544C3 17.134 3.22991 17.6899 3.6399 18.0995C4.33662 18.7962 5.2038 19.6634 5.90051 20.3601C6.31006 20.7701 6.86604 21 7.44562 21C8.0252 21 8.58117 20.7701 8.99116 20.3601L11.1609 18.19ZM12.9092 16.4416L11.7789 17.5719L14.3861 20.1791C14.4679 20.2609 14.5793 20.3072 14.6952 20.3072C14.811 20.3072 14.9224 20.2609 15.0042 20.1791L15.5164 19.6669C15.5982 19.5851 15.6445 19.4737 15.6445 19.3579C15.6445 19.242 15.5982 19.1306 15.5164 19.0488L12.9092 16.4416ZM8.17643 11.7088L12.2912 15.8236L8.37312 19.7421C8.12704 19.9877 7.79354 20.1258 7.44562 20.1258C7.09813 20.1258 6.76464 19.9877 6.51856 19.7421C5.82184 19.0453 4.95466 18.1782 4.25794 17.4814C4.0123 17.2354 3.87418 16.9019 3.87418 16.5544C3.87418 16.2065 4.0123 15.873 4.25794 15.6269L8.17643 11.7088ZM13.0189 15.3152L8.68476 10.9811L10.7732 2.21004C10.8099 2.05619 10.927 1.9338 11.0796 1.89097C11.2317 1.84769 11.3956 1.89053 11.5075 2.00243L21.9976 12.4925C22.1095 12.6044 22.1523 12.7683 22.109 12.9204C22.0662 13.073 21.9438 13.1901 21.79 13.2268L13.0189 15.3152Z" fill="#3E3CFD" stroke="#3E3CFD" stroke-width="0.4"/>
<path fill-rule="evenodd" clip-rule="evenodd" d="M19.3748 5.24302L21.1231 3.49467C21.2936 3.32421 21.2936 3.04709 21.1231 2.87663C20.9527 2.70616 20.6756 2.70616 20.5051 2.87663L18.7568 4.62498C18.5863 4.79544 18.5863 5.07256 18.7568 5.24302C18.9272 5.41348 19.2043 5.41348 19.3748 5.24302Z" fill="#3E3CFD" stroke="#3E3CFD" stroke-width="0.4"/>
<path fill-rule="evenodd" clip-rule="evenodd" d="M17.755 4.05983V2.31148C17.755 2.0702 17.5592 1.87439 17.3179 1.87439C17.0767 1.87439 16.8809 2.0702 16.8809 2.31148V4.05983C16.8809 4.3011 17.0767 4.49692 17.3179 4.49692C17.5592 4.49692 17.755 4.3011 17.755 4.05983Z" fill="#3E3CFD" stroke="#3E3CFD" stroke-width="0.4"/>
<path fill-rule="evenodd" clip-rule="evenodd" d="M19.941 7.11941H21.6893C21.9306 7.11941 22.1264 6.9236 22.1264 6.68233C22.1264 6.44105 21.9306 6.24524 21.6893 6.24524H19.941C19.6997 6.24524 19.5039 6.44105 19.5039 6.68233C19.5039 6.9236 19.6997 7.11941 19.941 7.11941Z" fill="#3E3CFD" stroke="#3E3CFD" stroke-width="0.4"/>
</svg>
