<svg width="25" height="23" viewBox="0 0 25 23" fill="none" xmlns="http://www.w3.org/2000/svg">
<g clip-path="url(#clip0_2076_5908)">
<path d="M19.4243 18.2822L5.27535 18.0552C4.74551 18.0466 4.26774 17.825 3.92295 17.4741C3.57675 17.1216 3.36354 16.6383 3.3646 16.1099C3.36493 15.8416 3.30703 15.5967 3.19643 15.3831C3.08569 15.1697 2.91828 14.9809 2.70053 14.8279C2.06158 14.3793 1.53647 13.7757 1.17825 13.0734C0.832721 12.396 0.642737 11.6278 0.655666 10.819L0.657305 10.7858C0.675284 9.9864 0.888072 9.23618 1.24945 8.5806C1.62993 7.8909 2.17351 7.30553 2.82685 6.87739C3.04985 6.73115 3.22362 6.54711 3.34182 6.33644C3.45987 6.12601 3.52517 5.882 3.53329 5.6157C3.54918 5.08757 3.77809 4.61151 4.13481 4.27088L4.15433 4.25329C4.5095 3.92305 4.98719 3.72374 5.50552 3.7321L19.6545 3.96016C20.1842 3.96733 20.6631 4.18993 21.0084 4.54151C21.3544 4.89378 21.5681 5.37679 21.5667 5.90526C21.5664 6.17355 21.624 6.41835 21.7349 6.63213C21.8454 6.84536 22.013 7.03428 22.231 7.18747C22.8699 7.63564 23.3948 8.23849 23.7533 8.94132C24.099 9.61911 24.2888 10.3876 24.276 11.1967L24.2743 11.23C24.2564 12.0293 24.0436 12.7795 23.6822 13.4351C23.302 14.1243 22.758 14.7098 22.1048 15.1377C21.8813 15.2843 21.7075 15.4683 21.5893 15.679C21.472 15.8882 21.4069 16.1313 21.3993 16.3979L21.3969 16.4341C21.3724 16.9477 21.1461 17.41 20.798 17.7429C20.4408 18.0842 19.9552 18.2907 19.4243 18.2822ZM10.2772 8.72968C10.0588 8.57722 10.0057 8.27593 10.1581 8.0575C10.3106 7.83906 10.6119 7.78596 10.8303 7.93842L18.5205 13.3475C18.739 13.5 18.7921 13.8013 18.6396 14.0197C18.4871 14.2382 18.1859 14.2913 17.9674 14.1388L10.2772 8.72968ZM10.9523 13.5985L10.9513 13.6568C10.9557 13.8967 11.0528 14.1156 11.2091 14.2767C11.3665 14.4389 11.5832 14.5437 11.8236 14.5546L11.8901 14.5562C12.1257 14.5506 12.3422 14.453 12.502 14.2978C12.6683 14.1369 12.7743 13.9133 12.7813 13.6666L12.7814 13.6541C12.7856 13.4034 12.6862 13.1732 12.5229 13.0048C12.3676 12.8446 12.1542 12.7404 11.9179 12.7267L11.851 12.7262C11.6107 12.7303 11.3917 12.8277 11.2301 12.9841C11.068 13.1415 10.9631 13.3582 10.9523 13.5985ZM9.98735 13.5925C10.0006 13.0811 10.2174 12.6207 10.5581 12.2908C10.8956 11.9639 11.3561 11.7627 11.8612 11.7615L11.9471 11.7643C12.446 11.7856 12.8936 11.9998 13.2162 12.3328C13.5384 12.6652 13.7383 13.1186 13.7439 13.618C13.7474 13.6534 13.7465 13.6881 13.7425 13.722C13.7212 14.2209 13.5071 14.6683 13.174 14.9911C12.8415 15.3136 12.3878 15.5134 11.8878 15.5189C11.8572 15.5216 11.8269 15.5217 11.797 15.5188C11.2936 15.5004 10.8415 15.2849 10.5158 14.9488C10.1817 14.6039 9.97881 14.13 9.98678 13.6118L9.98735 13.5925ZM15.0538 8.45919C15.0506 8.42399 15.0512 8.38909 15.0552 8.35522C15.0765 7.8563 15.2907 7.40869 15.6237 7.08609C15.9563 6.7636 16.4099 6.56387 16.91 6.5583C16.9405 6.55563 16.9709 6.55551 17.0007 6.55842C17.5045 6.57668 17.9562 6.79234 18.2819 7.12847C18.6088 7.46597 18.81 7.92653 18.8112 8.43164L18.8084 8.51745C18.7871 9.01636 18.573 9.46373 18.2399 9.78657C17.9075 10.1088 17.4541 10.3087 16.9547 10.3143C16.9195 10.3175 16.8848 10.3171 16.8507 10.3129C16.352 10.2917 15.9044 10.0775 15.5816 9.74444C15.2593 9.41203 15.0594 8.95861 15.0538 8.45919ZM16.2957 7.77938C16.1295 7.94031 16.0235 8.16395 16.0165 8.41061L16.0163 8.42314C16.0122 8.67387 16.1115 8.90405 16.2749 9.07241C16.4358 9.23866 16.6588 9.34461 16.9059 9.35191L16.9186 9.35185C17.1689 9.35606 17.3995 9.25661 17.5679 9.09328C17.7281 8.93804 17.8323 8.72463 17.846 8.48834L17.8465 8.42143C17.8424 8.18109 17.745 7.96206 17.5886 7.8005C17.4312 7.63836 17.2145 7.53353 16.9742 7.52265L16.9077 7.5208C16.6716 7.52676 16.4557 7.62399 16.2957 7.77938ZM5.29281 17.0928L19.4418 17.3198C19.7069 17.3243 19.9517 17.2194 20.1322 17.047C20.306 16.8806 20.4198 16.65 20.4342 16.3944L20.4344 16.3703C20.4468 15.9485 20.5547 15.555 20.7497 15.2067C20.9439 14.8602 21.2218 14.5629 21.5748 14.3318C22.0989 13.9883 22.5351 13.52 22.8384 12.9697C23.1266 12.4469 23.2968 11.8482 23.312 11.2108L23.3116 11.1826C23.322 10.5314 23.1712 9.91715 22.8969 9.37921C22.6119 8.82062 22.1915 8.33889 21.6779 7.97873C21.3322 7.73606 21.0632 7.42921 20.8798 7.07549C20.6966 6.72192 20.601 6.32497 20.6023 5.90224C20.6028 5.63703 20.4952 5.39393 20.322 5.21765C20.1478 5.04014 19.9061 4.92765 19.6404 4.92355L5.49149 4.69652C5.23029 4.69212 4.99027 4.79123 4.81291 4.95516L4.7996 4.96848C4.61985 5.14029 4.50427 5.38048 4.49615 5.64677C4.48375 6.06853 4.37559 6.46188 4.18148 6.80874C3.98727 7.15521 3.70913 7.45241 3.35692 7.68328C2.83264 8.02702 2.39666 8.49552 2.09321 9.04605C1.80506 9.56881 1.63479 10.1675 1.61967 10.8049L1.62009 10.8331C1.60972 11.4836 1.76038 12.0975 2.03472 12.6355C2.31965 13.1941 2.74021 13.6762 3.25363 14.0366C3.59911 14.2791 3.86774 14.5861 4.05153 14.9397C4.23444 15.2931 4.3303 15.6902 4.32896 16.1129C4.32873 16.3783 4.43617 16.6216 4.60939 16.7979C4.78428 16.9759 5.02623 17.0885 5.29281 17.0928ZM3.37295 10.8605C3.3794 10.4781 3.5395 10.1342 3.79282 9.88901C4.04687 9.64259 4.39606 9.49342 4.77812 9.49934C5.1612 9.50521 5.50583 9.66637 5.75152 9.91999C5.99705 10.1738 6.14672 10.5233 6.14016 10.907C6.1337 11.2894 5.97361 11.6333 5.72029 11.8785C5.46609 12.1252 5.11705 12.2741 4.73499 12.2682C4.35191 12.2623 4.00727 12.1012 3.76159 11.8476C3.51606 11.5937 3.36639 11.2442 3.37295 10.8605ZM4.46485 10.5823C4.38703 10.6578 4.33728 10.7631 4.33531 10.878C4.3333 10.9919 4.37964 11.0979 4.45488 11.1755C4.52979 11.2527 4.63433 11.302 4.74903 11.3038C4.86474 11.3056 4.97112 11.2602 5.04826 11.1852C5.12647 11.1097 5.17583 11.0045 5.1778 10.8895C5.17981 10.7756 5.13347 10.6697 5.05823 10.592C4.98332 10.5149 4.87877 10.4656 4.76408 10.4638C4.64837 10.462 4.54198 10.5074 4.46485 10.5823Z" fill="#3E3CFD" stroke="#3E3CFD" stroke-width="0.3"/>
</g>
<defs>
<clipPath id="clip0_2076_5908">
<rect width="25" height="23" fill="white"/>
</clipPath>
</defs>
</svg>
