<svg width="16" height="16" viewBox="0 0 16 16" fill="none" xmlns="http://www.w3.org/2000/svg">
<path d="M1 2C1 1.44772 1.44772 1 2 1H5C5.55228 1 6 1.44772 6 2V5C6 5.55228 5.55228 6 5 6H2C1.44772 6 1 5.55228 1 5V2Z" stroke="#00041A" stroke-width="2"/>
<path d="M10 2C10 1.44772 10.4477 1 11 1H14C14.5523 1 15 1.44772 15 2V5C15 5.55228 14.5523 6 14 6H11C10.4477 6 10 5.55228 10 5V2Z" stroke="#00041A" stroke-width="2"/>
<path d="M1 11C1 10.4477 1.44772 10 2 10H5C5.55228 10 6 10.4477 6 11V14C6 14.5523 5.55228 15 5 15H2C1.44772 15 1 14.5523 1 14V11Z" stroke="#00041A" stroke-width="2"/>
<path d="M10 11C10 10.4477 10.4477 10 11 10H14C14.5523 10 15 10.4477 15 11V14C15 14.5523 14.5523 15 14 15H11C10.4477 15 10 14.5523 10 14V11Z" stroke="#00041A" stroke-width="2"/>
</svg>
